<?xml version="1.0" encoding="UTF-8"?>
<svg width="29px" height="30px" viewBox="0 0 29 30" version="1.1" xmlns="http://www.w3.org/2000/svg" xmlns:xlink="http://www.w3.org/1999/xlink">
    <title>向右3备份 4</title>
    <g id="页面-1" stroke="none" stroke-width="1" fill="none" fill-rule="evenodd">
        <g id="首页-公告翻页" transform="translate(-213.000000, -604.000000)" fill="#FFFFFF" fill-rule="nonzero">
            <g id="向右3备份-4" transform="translate(213.000000, 604.493070)">
                <rect id="矩形" opacity="0" x="0" y="0" width="29" height="29"></rect>
                <path d="M14.5,27.1875 C7.50376461,27.1875 1.8125,21.4962354 1.8125,14.5 C1.8125,7.50376461 7.50376461,1.8125 14.5,1.8125 C21.4962354,1.8125 27.1875,7.50376461 27.1875,14.5 C27.1875,21.4962354 21.4962354,27.1875 14.5,27.1875 Z M14.5,3.625 C8.5033312,3.625 3.625,8.5033312 3.625,14.5 C3.625,20.4966688 8.5033312,25.375 14.5,25.375 C20.4966688,25.375 25.375,20.4966688 25.375,14.5 C25.375,8.5033312 20.4966688,3.625 14.5,3.625 Z M18.9415384,14.1927933 C18.9406128,14.1891883 18.9360822,14.1855345 18.9342797,14.1819295 C18.8907758,14.0795273 18.8309518,13.9816557 18.7475978,13.897376 C18.7466722,13.8964504 18.7457953,13.8964504 18.7448696,13.8955735 C18.743944,13.8946479 18.743944,13.893771 18.7430671,13.8928454 L14.2426304,9.37974233 C13.8891917,9.02537799 13.315554,9.02357549 12.9611897,9.37793983 C12.6068254,9.73137854 12.6059485,10.3050162 12.9593872,10.6593805 L16.8191036,14.5299607 L12.9276727,18.3788134 C12.5715059,18.7313265 12.5687777,19.3040872 12.9204139,19.6602541 C13.0971089,19.8396772 13.3309485,19.9294131 13.5647393,19.9294131 C13.7949251,19.9294131 14.0251109,19.8415284 14.2018546,19.6675128 L18.740339,15.1788655 C19.009498,14.9132627 19.0765808,14.5217276 18.9415384,14.1927933 Z" id="形状"></path>
            </g>
        </g>
    </g>
</svg>