<?xml version="1.0" encoding="UTF-8"?>
<svg width="37px" height="36px" viewBox="0 0 37 36" version="1.1" xmlns="http://www.w3.org/2000/svg" xmlns:xlink="http://www.w3.org/1999/xlink">
    <title>编组 5</title>
    <g id="页面-1" stroke="none" stroke-width="1" fill="none" fill-rule="evenodd">
        <g id="我的-分享与邀请-海报" transform="translate(-287.000000, -230.000000)">
            <g id="编组-5" transform="translate(287.879147, 230.000000)">
                <circle id="椭圆形备份-41" fill="#21201F" opacity="0.79951913" cx="18" cy="18" r="18"></circle>
                <g id="下载" transform="translate(10.000000, 10.000000)" fill="#FFFFFF" fill-rule="nonzero">
                    <rect id="矩形" opacity="0" x="0" y="0" width="16" height="16"></rect>
                    <path d="M14.4,13.792 L2.224,13.792 C1.84,13.792 1.536,14.096 1.536,14.48 C1.536,14.864 1.84,15.168 2.224,15.168 L14.4,15.168 C14.784,15.168 15.088,14.864 15.088,14.48 C15.088,14.112 14.784,13.792 14.4,13.792 Z M7.856,12.608 C7.984,12.736 8.16,12.8 8.32,12.784 C8.48,12.784 8.656,12.736 8.784,12.608 L12.944,8.448 C13.184,8.208 13.184,7.808 12.944,7.568 C12.704,7.328 12.304,7.328 12.064,7.568 L8.912,10.72 L8.912,1.392 C8.912,1.056 8.64,0.768 8.288,0.768 C7.936,0.768 7.664,1.04 7.664,1.392 L7.664,10.656 L4.576,7.568 C4.336,7.328 3.936,7.328 3.696,7.568 C3.456,7.808 3.456,8.208 3.696,8.448 L7.856,12.608 Z" id="形状"></path>
                </g>
            </g>
        </g>
    </g>
</svg>