<?xml version="1.0" standalone="no"?><!DOCTYPE svg PUBLIC "-//W3C//DTD SVG 1.1//EN" "http://www.w3.org/Graphics/SVG/1.1/DTD/svg11.dtd"><svg t="1661251723513" class="icon" viewBox="0 0 1070 1024" version="1.1" xmlns="http://www.w3.org/2000/svg" p-id="8860" xmlns:xlink="http://www.w3.org/1999/xlink" width="208.984375" height="200"><defs><style type="text/css">@font-face { font-family: feedback-iconfont; src: url("//at.alicdn.com/t/font_1031158_u69w8yhxdu.woff2?t=1630033759944") format("woff2"), url("//at.alicdn.com/t/font_1031158_u69w8yhxdu.woff?t=1630033759944") format("woff"), url("//at.alicdn.com/t/font_1031158_u69w8yhxdu.ttf?t=1630033759944") format("truetype"); }
</style></defs><path d="M636.881455 362.682182v218.298182h-148.38691v37.701818h186.181819V324.887273H302.359273v293.841454h86.900363v-37.794909H340.107636v-218.298182h296.773819z m151.412363 82.385454H701.44v37.748364h49.152v218.298182H453.725091v-218.298182h148.386909v-37.748364h-186.181818v293.794909h372.363636V445.067636z m-242.082909 531.176728l-402.059636-232.122182v-159.418182h-41.425455v183.249455L546.257455 1024l195.258181-112.733091-20.666181-35.84-174.592 100.817455zM144.151273 279.877818l402.059636-232.122182 145.221818 83.921455 20.712728-35.84L546.210909 0 102.772364 256v245.480727h41.425454V279.877818z m645.957818-139.077818l-20.712727 35.84 178.781091 103.237818v464.197818L786.618182 837.399273l20.712727 35.84 182.318546-105.192728v-512l-199.493819-115.246545z" fill="#FFFFFF" p-id="8861"></path></svg>