<?xml version="1.0" standalone="no"?><!DOCTYPE svg PUBLIC "-//W3C//DTD SVG 1.1//EN" "http://www.w3.org/Graphics/SVG/1.1/DTD/svg11.dtd"><svg t="1652255439751" class="icon" viewBox="0 0 1024 1024" version="1.1" xmlns="http://www.w3.org/2000/svg" p-id="3724" xmlns:xlink="http://www.w3.org/1999/xlink" width="200" height="200"><defs><style type="text/css">@font-face { font-family: feedback-iconfont; src: url("//at.alicdn.com/t/font_1031158_u69w8yhxdu.woff2?t=1630033759944") format("woff2"), url("//at.alicdn.com/t/font_1031158_u69w8yhxdu.woff?t=1630033759944") format("woff"), url("//at.alicdn.com/t/font_1031158_u69w8yhxdu.ttf?t=1630033759944") format("truetype"); }
</style></defs><path d="M665.6 1017.6c-19.2 0-38.4-19.2-38.4-38.4s19.2-38.4 38.4-38.4h268.8l6.4-268.8c0-19.2 19.2-38.4 38.4-38.4s38.4 19.2 38.4 38.4v294.4c0 32-25.6 51.2-51.2 51.2h-300.8zM51.2 396.8c-19.2 0-38.4-19.2-38.4-38.4V64C12.8 32 38.4 12.8 64 12.8h294.4c19.2 0 38.4 19.2 38.4 38.4s-19.2 38.4-38.4 38.4H89.6v268.8c0 19.2-19.2 38.4-38.4 38.4z m12.8 620.8c-32 0-51.2-25.6-51.2-51.2v-294.4c0-19.2 19.2-38.4 38.4-38.4s38.4 19.2 38.4 38.4v217.6l198.4-198.4c6.4-6.4 19.2-12.8 25.6-12.8 6.4 0 19.2 6.4 25.6 12.8 6.4 6.4 12.8 19.2 12.8 25.6 0 12.8-6.4 19.2-12.8 25.6l-198.4 198.4h217.6c19.2 0 38.4 19.2 38.4 38.4s-19.2 38.4-38.4 38.4H64z m915.2-620.8c-19.2 0-38.4-19.2-38.4-38.4V140.8l-198.4 198.4c-6.4 6.4-19.2 12.8-25.6 12.8-12.8 0-19.2-6.4-25.6-12.8-12.8-12.8-12.8-38.4 0-51.2l198.4-198.4h-217.6c-19.2 0-38.4-19.2-38.4-38.4s19.2-38.4 38.4-38.4h294.4c32 0 51.2 25.6 51.2 51.2v294.4c0 19.2-19.2 38.4-38.4 38.4z" fill="#040404" p-id="3725"></path></svg>