<?xml version="1.0" standalone="no"?><!DOCTYPE svg PUBLIC "-//W3C//DTD SVG 1.1//EN" "http://www.w3.org/Graphics/SVG/1.1/DTD/svg11.dtd"><svg t="1653290569577" class="icon" viewBox="0 0 1052 1024" version="1.1" xmlns="http://www.w3.org/2000/svg" p-id="18649" xmlns:xlink="http://www.w3.org/1999/xlink" width="205.46875" height="200"><defs><style type="text/css">@font-face { font-family: feedback-iconfont; src: url("//at.alicdn.com/t/font_1031158_u69w8yhxdu.woff2?t=1630033759944") format("woff2"), url("//at.alicdn.com/t/font_1031158_u69w8yhxdu.woff?t=1630033759944") format("woff"), url("//at.alicdn.com/t/font_1031158_u69w8yhxdu.ttf?t=1630033759944") format("truetype"); }
</style></defs><path d="M537.031111 512m-512 0a512 512 0 1 0 1024 0 512 512 0 1 0-1024 0Z" fill="#0A0C47" p-id="18650"></path><path d="M719.075556 676.750222H372.736a19.427556 19.427556 0 0 0-19.569778 19.569778c0 10.922667 8.647111 19.569778 19.569778 19.569778H719.075556a19.427556 19.427556 0 0 0 19.569777-19.569778 19.712 19.712 0 0 0-19.569777-19.569778z m-186.140445-33.678222a16.782222 16.782222 0 0 0 13.198222 5.006222 18.488889 18.488889 0 0 0 13.198223-5.006222l118.328888-118.328889c6.826667-6.826667 6.826667-18.204444 0-25.031111a17.863111 17.863111 0 0 0-25.031111 0l-89.656889 89.656889v-265.329778a17.777778 17.777778 0 0 0-17.749333-17.749333 17.493333 17.493333 0 0 0-17.749333 17.749333v263.509333l-87.836445-87.836444a17.863111 17.863111 0 0 0-25.031111 0c-6.826667 6.826667-6.826667 18.204444 0 25.031111l118.328889 118.328889z" fill="#FFFFFF" p-id="18651"></path></svg>