<?xml version="1.0" encoding="UTF-8"?>
<svg width="24px" height="24px" viewBox="0 0 24 24" version="1.1" xmlns="http://www.w3.org/2000/svg" xmlns:xlink="http://www.w3.org/1999/xlink">
    <title>消息中心</title>
    <g id="页面-1" stroke="none" stroke-width="1" fill="none" fill-rule="evenodd">
        <g id="首页" transform="translate(-331.000000, -112.000000)" fill="#FFFFFF" fill-rule="nonzero">
            <g id="消息中心" transform="translate(331.000000, 112.000000)">
                <rect id="矩形" opacity="0" x="0" y="0" width="24" height="24"></rect>
                <path d="M13.725,21.225 L13.725,21.225 C14.325,20.475 14.625,20.175 14.7,20.175 C19.575,19.275 22.8,15.525 22.8,10.875 C22.875,5.55 18,1.35 12,1.35 C6,1.35 1.125,5.55 1.125,10.875 C1.125,15.525 4.425,19.275 9.225,20.175 C9.3,20.175 9.6,20.475 10.2,21.225 L10.2,21.225 C10.95,22.2 11.4,22.725 11.925,22.725 C12.45,22.725 12.9,22.2 13.725,21.225 M14.55,18.825 C14.1,18.9 13.8,19.275 12.975,20.325 L12.975,20.325 C12.45,20.925 12,21.375 12,21.375 L11.775,21.15 C11.625,21 11.4,20.7 11.175,20.4 C10.275,19.275 9.975,18.9 9.525,18.825 C5.175,18.075 2.325,14.775 2.325,10.725 C2.325,6.225 6.675,2.475 12.075,2.475 C17.475,2.475 21.825,6.225 21.825,10.725 C21.75,14.85 18.9,18.075 14.55,18.825 Z M6.6,11.025 C6.6,11.6463203 7.07010101,12.15 7.65,12.15 C8.22989899,12.15 8.7,11.6463203 8.7,11.025 C8.7,10.4036797 8.22989899,9.9 7.65,9.9 C7.07010101,9.9 6.6,10.4036797 6.6,11.025 L6.6,11.025 Z M10.95,11.025 C10.95,11.6463203 11.420101,12.15 12,12.15 C12.579899,12.15 13.05,11.6463203 13.05,11.025 C13.05,10.4036797 12.579899,9.9 12,9.9 C11.420101,9.9 10.95,10.4036797 10.95,11.025 L10.95,11.025 Z M15.3,11.025 C15.3,11.6463203 15.770101,12.15 16.35,12.15 C16.929899,12.15 17.4,11.6463203 17.4,11.025 C17.4,10.4036797 16.929899,9.9 16.35,9.9 C15.770101,9.9 15.3,10.4036797 15.3,11.025 Z" id="形状"></path>
            </g>
        </g>
    </g>
</svg>