<?xml version="1.0" encoding="UTF-8"?>
<svg width="101px" height="141px" viewBox="0 0 101 141" version="1.1" xmlns="http://www.w3.org/2000/svg" xmlns:xlink="http://www.w3.org/1999/xlink">
    <title>编组 3</title>
    <defs>
        <linearGradient x1="0.00249207068%" y1="50.000438%" x2="99.9975079%" y2="50.000438%" id="linearGradient-1">
            <stop stop-color="#484BCB" offset="0%"></stop>
            <stop stop-color="#484BCB" offset="100%"></stop>
        </linearGradient>
        <linearGradient x1="50%" y1="43.2827747%" x2="50%" y2="0%" id="linearGradient-2">
            <stop stop-color="#4E4CD6" offset="0%"></stop>
            <stop stop-color="#B6A6FF" offset="100%"></stop>
        </linearGradient>
        <linearGradient x1="-0.0141104294%" y1="49.8650307%" x2="99.9579755%" y2="49.8650307%" id="linearGradient-3">
            <stop stop-color="#77CAFF" offset="0%"></stop>
            <stop stop-color="#D9E5FC" offset="100%"></stop>
        </linearGradient>
        <linearGradient x1="42.8929522%" y1="86.1526827%" x2="80.2606073%" y2="14.0101394%" id="linearGradient-4">
            <stop stop-color="#84C0FF" offset="0%"></stop>
            <stop stop-color="#D5C3FF" offset="100%"></stop>
        </linearGradient>
        <linearGradient x1="50%" y1="0%" x2="50%" y2="100%" id="linearGradient-5">
            <stop stop-color="#70D0FF" offset="0%"></stop>
            <stop stop-color="#D575FF" offset="100%"></stop>
        </linearGradient>
        <filter x="-26.5%" y="-54.0%" width="152.9%" height="208.0%" filterUnits="objectBoundingBox" id="filter-6">
            <feOffset dx="0" dy="1" in="SourceAlpha" result="shadowOffsetOuter1"></feOffset>
            <feGaussianBlur stdDeviation="3" in="shadowOffsetOuter1" result="shadowBlurOuter1"></feGaussianBlur>
            <feColorMatrix values="0 0 0 0 0.941395549   0 0 0 0 0.81885897   0 0 0 0 1  0 0 0 1 0" type="matrix" in="shadowBlurOuter1" result="shadowMatrixOuter1"></feColorMatrix>
            <feMerge>
                <feMergeNode in="shadowMatrixOuter1"></feMergeNode>
                <feMergeNode in="SourceGraphic"></feMergeNode>
            </feMerge>
        </filter>
    </defs>
    <g id="页面-1" stroke="none" stroke-width="1" fill="none" fill-rule="evenodd">
        <g id="我的银行卡-空白页" transform="translate(-137.000000, -238.000000)">
            <g id="编组-3" transform="translate(137.500000, 238.000000)">
                <polygon id="路径" fill="url(#linearGradient-1)" fill-rule="nonzero" points="100 80.4574275 0.0452898551 80.4574275 7.01992754 49.4338768 93.0253623 49.4338768"></polygon>
                <rect id="矩形" fill="url(#linearGradient-2)" fill-rule="nonzero" x="7.01992754" y="49.4791667" width="85.9375" height="90.942029"></rect>
                <circle id="椭圆形" fill="url(#linearGradient-3)" fill-rule="nonzero" cx="51.8115942" cy="76.0416667" r="2.55887681"></circle>
                <circle id="椭圆形" fill="url(#linearGradient-3)" fill-rule="nonzero" cx="43.5914855" cy="68.75" r="2.98913043"></circle>
                <circle id="椭圆形" fill="url(#linearGradient-3)" fill-rule="nonzero" cx="38.6548913" cy="57.6766304" r="3.69112319"></circle>
                <circle id="椭圆形" fill="url(#linearGradient-3)" fill-rule="nonzero" cx="42.3233696" cy="44.678442" r="4.39311594"></circle>
                <g id="编组" transform="translate(34.198061, 0.000000)" fill-rule="nonzero">
                    <polygon id="路径" fill="url(#linearGradient-4)" points="31.3843975 0.0313530445 0 20.081625 29.29942 37.1376812"></polygon>
                    <polygon id="路径" fill="#6669E1" points="10.6757116 34.6921437 9.93891509 25.6154373 31.400074 0 18.8118267 31.2589853"></polygon>
                </g>
                <path d="M91.6666667,140.217391 L8.31068841,140.217391 C3.71376812,140.217391 0,136.503623 0,131.906703 L0,80.3894928 L100,80.3894928 L100,131.906703 C100,136.503623 96.263587,140.217391 91.6666667,140.217391 Z" id="路径" fill="url(#linearGradient-5)"></path>
                <g id="编组-2" filter="url(#filter-6)" opacity="0.796393985" transform="translate(24.388587, 97.305254)" fill="#FFFFFF" fill-rule="nonzero">
                    <path d="M49.2980072,3.44202899 L1.74365942,3.44202899 C0.792572464,3.44202899 0.0226449275,2.67210145 0.0226449275,1.72101449 L0.0226449275,1.72101449 C0.0226449275,0.769927536 0.792572464,0 1.74365942,0 L49.2980072,0 C50.2490942,0 51.0190217,0.769927536 51.0190217,1.72101449 L51.0190217,1.72101449 C50.9963768,2.67210145 50.2264493,3.44202899 49.2980072,3.44202899 Z" id="路径"></path>
                    <path d="M41.3043478,14.1983696 L1.72101449,14.1983696 C0.769927536,14.1983696 0,13.428442 0,12.4773551 L0,12.4773551 C0,11.5262681 0.769927536,10.7563406 1.72101449,10.7563406 L41.3043478,10.7563406 C42.2554348,10.7563406 43.0253623,11.5262681 43.0253623,12.4773551 L43.0253623,12.4773551 C43.0027174,13.428442 42.2327899,14.1983696 41.3043478,14.1983696 Z" id="路径"></path>
                    <path d="M25.7019928,25 L1.72101449,25 C0.769927536,25 0,24.2300725 0,23.2789855 L0,23.1431159 C0,22.192029 0.769927536,21.4221014 1.72101449,21.4221014 L25.7019928,21.4221014 C26.6530797,21.4221014 27.4230072,22.192029 27.4230072,23.1431159 L27.4230072,23.2789855 C27.4003623,24.2300725 26.6304348,25 25.7019928,25 Z" id="路径"></path>
                </g>
            </g>
        </g>
    </g>
</svg>