<?xml version="1.0" standalone="no"?><!DOCTYPE svg PUBLIC "-//W3C//DTD SVG 1.1//EN" "http://www.w3.org/Graphics/SVG/1.1/DTD/svg11.dtd"><svg t="1642147605035" class="icon" viewBox="0 0 1024 1024" version="1.1" xmlns="http://www.w3.org/2000/svg" p-id="1260" xmlns:xlink="http://www.w3.org/1999/xlink" width="200" height="200"><defs><style type="text/css"></style></defs><path d="M512 0c282.7776 0 512 229.248 512 511.9488 0 282.7008-229.2224 511.9232-512 511.9232S0 794.6496 0 511.9488C0 229.2224 229.2224 0 512 0z m0 78.7712c-239.2832 0-433.2544 193.9712-433.2544 433.1776 0 239.232 193.9712 433.152 433.2288 433.152 239.2832 0 433.2288-193.92 433.2288-433.152 0-239.2064-193.9456-433.152-433.1776-433.152h-0.0512z m-3.072 159.5392c19.968 0 36.7616 14.9504 39.0912 34.7904l0.2816 4.608v216.9088h216.96c19.9936 0 36.8384 14.9504 39.168 34.7904l0.256 4.608c0 19.968-14.976 36.7872-34.816 39.1168l-4.608 0.256H508.928c-19.968 0-36.7872-14.9248-39.1168-34.7648l-0.256-4.608V277.7088c0-21.76 17.6128-39.3984 39.3728-39.3984z" fill="#ECA800" p-id="1261"></path></svg>