<?xml version="1.0" standalone="no"?><!DOCTYPE svg PUBLIC "-//W3C//DTD SVG 1.1//EN" "http://www.w3.org/Graphics/SVG/1.1/DTD/svg11.dtd"><svg t="1643013313806" class="icon" viewBox="0 0 1024 1024" version="1.1" xmlns="http://www.w3.org/2000/svg" p-id="2935" xmlns:xlink="http://www.w3.org/1999/xlink" width="200" height="200"><defs><style type="text/css"></style></defs><path d="M512 32a480 480 0 1 0 0 960 480 480 0 0 0 0-960z m0 64a416 416 0 1 1 0 832 416 416 0 0 1 0-832z" fill="#7ECF55" p-id="2936"></path><path d="M754.88 341.376a56 56 0 0 0-79.232-1.472L441.024 566.4 348.224 479.36l-4.352-3.712a56 56 0 0 0-72.256 85.44l123.008 115.264 4.416 3.776a55.936 55.936 0 0 0 42.368 10.752c16.704 2.56 34.368-2.432 47.424-15.04l264.576-255.36 3.968-4.16a56 56 0 0 0-2.56-74.944z" fill="#7ECF55" p-id="2937"></path></svg>