<?xml version="1.0" standalone="no"?><!DOCTYPE svg PUBLIC "-//W3C//DTD SVG 1.1//EN" "http://www.w3.org/Graphics/SVG/1.1/DTD/svg11.dtd"><svg t="1653031427849" class="icon" viewBox="0 0 1024 1024" version="1.1" xmlns="http://www.w3.org/2000/svg" p-id="3597" xmlns:xlink="http://www.w3.org/1999/xlink" width="200" height="200"><defs><style type="text/css">@font-face { font-family: feedback-iconfont; src: url("//at.alicdn.com/t/font_1031158_u69w8yhxdu.woff2?t=1630033759944") format("woff2"), url("//at.alicdn.com/t/font_1031158_u69w8yhxdu.woff?t=1630033759944") format("woff"), url("//at.alicdn.com/t/font_1031158_u69w8yhxdu.ttf?t=1630033759944") format("truetype"); }
</style></defs><path d="M287.857778 683.121778V340.878222L595.968 512 287.857778 683.121778z m81.521778-203.719111v65.194666L428.088889 512l-58.709333-32.597333z m325.973333 378.993777H124.984889a61.155556 61.155556 0 0 1-61.155556-61.098666V226.702222c0-33.678222 27.420444-61.098667 61.155556-61.098666h570.481778c33.678222 0 61.098667 27.420444 61.098666 61.098666V369.777778l119.466667-48.696889a60.984889 60.984889 0 0 1 84.195556 56.604444v269.994667a60.984889 60.984889 0 0 1-78.620445 58.481778l-125.041778-37.489778v128.625778c0 33.678222-27.420444 61.098667-61.098666 61.098666z m-550.115556-81.521777h529.749334V247.125333H145.180444v529.749334z m611.271111-193.251556l122.311112 36.693333V408.007111l-122.311112 49.891556v125.724444z" fill="#FFFFFF" p-id="3598"></path></svg>