<?xml version="1.0" standalone="no"?><!DOCTYPE svg PUBLIC "-//W3C//DTD SVG 1.1//EN" "http://www.w3.org/Graphics/SVG/1.1/DTD/svg11.dtd"><svg t="1653031542947" class="icon" viewBox="0 0 1024 1024" version="1.1" xmlns="http://www.w3.org/2000/svg" p-id="6050" xmlns:xlink="http://www.w3.org/1999/xlink" width="200" height="200"><defs><style type="text/css">@font-face { font-family: feedback-iconfont; src: url("//at.alicdn.com/t/font_1031158_u69w8yhxdu.woff2?t=1630033759944") format("woff2"), url("//at.alicdn.com/t/font_1031158_u69w8yhxdu.woff?t=1630033759944") format("woff"), url("//at.alicdn.com/t/font_1031158_u69w8yhxdu.ttf?t=1630033759944") format("truetype"); }
</style></defs><path d="M884.053333 113.208889c25.770667 22.016 41.415111 53.703111 43.235556 87.608889l0.170667 7.338666v36.579556l-78.848 12.231111v-48.810667a46.307556 46.307556 0 0 0-8.988445-27.761777l-3.072-3.754667-3.584-3.299556a37.205333 37.205333 0 0 0-26.282667-9.102222l-4.096 0.455111-362.382222 60.074667c-18.318222 3.072-32.142222 19.057778-33.905778 39.139556l-0.170666 4.323555v147.456l450.332444-72.021333a40.106667 40.106667 0 0 1 2.56-0.341334l68.437334-10.581333v364.088889l-0.170667 1.592889c0 0.341333-0.113778 0.341333-0.284445-0.227556 1.251556 6.883556 1.820444 13.653333 1.820445 20.536889 0 74.524444-69.973333 134.542222-155.477333 134.542222-85.447111 0-155.477333-59.960889-155.477334-134.542222 0-74.581333 69.973333-134.599111 155.477334-134.599111 22.869333 0 44.942222 4.323556 65.137777 12.401778l8.533334 3.697778 1.592889 0.796444V424.732444L406.186667 495.502222v308.565334c0 74.581333-70.030222 134.599111-155.477334 134.599111s-155.477333-60.017778-155.477333-134.599111c0-74.524444 69.973333-134.542222 155.477333-134.542223 23.779556 0 46.819556 4.664889 67.697778 13.425778l8.874667 4.039111V268.231111c0-56.263111 36.295111-104.277333 87.893333-118.556444l5.973333-1.479111 6.200889-1.194667 362.382223-60.131556a116.337778 116.337778 0 0 1 94.378666 26.282667v0.056889zM250.652444 748.316444c-42.723556 0-76.629333 25.656889-76.629333 55.751112 0 30.037333 33.905778 55.694222 76.629333 55.694222 42.666667 0 76.572444-25.656889 76.572445-55.751111 0-30.037333-33.848889-55.694222-76.572445-55.694223z m522.638223-85.333333c-42.666667 0-76.629333 25.713778-76.629334 55.751111s33.905778 55.751111 76.629334 55.751111c42.780444 0 76.686222-25.713778 76.629333-55.751111 0-30.037333-33.905778-55.751111-76.629333-55.751111z" fill="#FFFFFF" p-id="6051"></path></svg>