<?xml version="1.0" standalone="no"?><!DOCTYPE svg PUBLIC "-//W3C//DTD SVG 1.1//EN" "http://www.w3.org/Graphics/SVG/1.1/DTD/svg11.dtd"><svg t="1653031418670" class="icon" viewBox="0 0 1024 1024" version="1.1" xmlns="http://www.w3.org/2000/svg" p-id="3297" xmlns:xlink="http://www.w3.org/1999/xlink" width="200" height="200"><defs><style type="text/css">@font-face { font-family: feedback-iconfont; src: url("//at.alicdn.com/t/font_1031158_u69w8yhxdu.woff2?t=1630033759944") format("woff2"), url("//at.alicdn.com/t/font_1031158_u69w8yhxdu.woff?t=1630033759944") format("woff"), url("//at.alicdn.com/t/font_1031158_u69w8yhxdu.ttf?t=1630033759944") format("truetype"); }
</style></defs><path d="M921.258667 284.444444c1.706667-67.242667-43.008-122.026667-121.116445-120.661333-191.032889 3.242667-382.293333 3.299556-573.326222-0.113778-74.865778-1.308444-126.520889 43.918222-124.017778 122.197334 3.640889 115.882667 0.853333 231.936 0.910222 347.932444 0 42.439111-0.512 84.935111 0.568889 127.431111 1.137778 43.747556 23.893333 74.695111 64.056889 89.713778 19.228444 7.224889 41.528889 8.817778 62.407111 8.874667 164.977778 0.682667 329.955556 0.455111 494.990223 0.398222 9.784889 0 19.740444 0.568889 29.354666-0.853333 40.675556-6.257778 54.044444-39.082667 29.013334-71.111112-6.997333-8.931556-15.815111-16.497778-23.893334-24.576l-161.336889-160.995555c41.073778-50.574222 56.206222-52.110222 96.540445-12.344889 45.340444 44.714667 90.112 90.055111 135.224889 135.054222 8.078222 8.021333 15.815111 17.009778 25.372444 22.926222 27.420444 17.237333 56.888889 3.982222 63.089778-27.875555 1.820444-9.500444 1.137778-19.512889 1.137778-29.297778 0-135.566222-2.446222-271.246222 1.024-406.755555z m-297.699556 458.808889c7.509333 7.509333 13.937778 16.156444 25.770667 30.094223-17.976889 1.422222-28.558222 3.072-39.139556 3.072-120.604444 0.170667-241.208889 0.398222-361.813333 0-53.873778-0.227556-63.317333-9.614222-63.544889-62.464-0.170667-43.918222-10.24-92.672 5.404444-130.389334 15.644444-37.774222 57.400889-64.967111 88.576-95.914666 37.831111-37.546667 51.2-37.660444 88.974223-0.170667 85.560889 84.935111 170.666667 170.382222 255.772444 255.772444z m213.617778-128.113777l-68.892445-68.152889c-15.075556-14.961778-29.468444-30.606222-45.226666-44.771556-46.250667-41.528889-98.872889-41.870222-144.952889-0.398222-12.003556 10.808889-21.276444 24.746667-33.905778 39.708444-14.222222-11.605333-24.462222-18.659556-33.223111-27.306666-37.205333-36.579556-73.329778-74.410667-111.104-110.364445-48.526222-46.307556-103.992889-46.819556-152.007111-0.739555-17.521778 16.725333-30.776889 37.888-45.966222 57.002666l-16.896-10.012444c0-53.361778-1.137778-106.666667 0.455111-159.971556 0.910222-28.103111 15.018667-40.504889 42.894222-43.804444 9.671111-1.194667 19.569778-0.568889 29.354667-0.568889 169.756444 0 339.456-0.113778 509.155555 0 61.667556 0.113778 72.135111 10.126222 72.362667 69.973333 0.341333 84.878222 0.170667 169.756444 0 254.577778 0 10.808889-0.910222 21.674667-2.048 44.828445z" fill="#FFFFFF" p-id="3298"></path></svg>