<?xml version="1.0" standalone="no"?><!DOCTYPE svg PUBLIC "-//W3C//DTD SVG 1.1//EN" "http://www.w3.org/Graphics/SVG/1.1/DTD/svg11.dtd"><svg t="1653031422166" class="icon" viewBox="0 0 1024 1024" version="1.1" xmlns="http://www.w3.org/2000/svg" p-id="3447" xmlns:xlink="http://www.w3.org/1999/xlink" width="200" height="200"><defs><style type="text/css">@font-face { font-family: feedback-iconfont; src: url("//at.alicdn.com/t/font_1031158_u69w8yhxdu.woff2?t=1630033759944") format("woff2"), url("//at.alicdn.com/t/font_1031158_u69w8yhxdu.woff?t=1630033759944") format("woff"), url("//at.alicdn.com/t/font_1031158_u69w8yhxdu.ttf?t=1630033759944") format("truetype"); }
</style></defs><path d="M528.497778 53.987556l371.939555 214.698666a32.995556 32.995556 0 0 1 16.497778 28.615111v429.397334c0 11.832889-6.257778 22.755556-16.497778 28.615111L528.497778 970.012444a32.995556 32.995556 0 0 1-32.995556 0l-371.939555-214.698666a32.995556 32.995556 0 0 1-16.497778-28.615111V297.301333c0-11.832889 6.257778-22.755556 16.497778-28.615111L495.502222 53.987556a32.995556 32.995556 0 0 1 32.995556 0zM512 120.718222L206.165333 297.301333l93.468445 53.987556-32.995556 57.230222-93.525333-54.044444v353.166222l305.834667 176.526222v-107.918222h66.104888v107.918222l305.834667-176.526222V354.417778l-93.525333 54.044444-32.995556-57.230222 93.468445-54.044444L512 120.775111z m-113.777778 255.431111c25.6 0.227556 46.08 8.419556 61.155556 24.576 14.222222 15.075556 22.072889 35.043556 22.016 55.751111 0 10.808889-1.934222 21.276444-5.802667 31.288889-4.551111 10.126222-12.515556 19.057778-24.177778 26.965334 11.889778 7.736889 20.48 17.009778 25.770667 27.875555 5.006222 10.808889 7.509333 22.186667 7.509333 34.019556-0.227556 26.453333-8.419556 47.331556-24.576 62.577778-15.872 15.587556-36.238222 23.495111-61.155555 23.779555a77.482667 77.482667 0 0 1-51.086222-18.602667c-14.791111-12.401778-24.462222-30.321778-28.842667-53.816888h40.448c3.584 9.443556 8.704 17.066667 15.303111 22.869333 6.712889 6.030222 15.587556 9.102222 26.737778 9.102222a40.789333 40.789333 0 0 0 29.980444-12.231111c8.248889-7.566222 12.515556-18.432 12.743111-32.483556-0.227556-14.336-4.551111-25.429333-12.743111-33.28a43.52 43.52 0 0 0-31.004444-11.434666h-17.009778v-35.84h13.937778c13.767111 0 24.462222-3.754667 32.142222-11.377778a38.115556 38.115556 0 0 0 11.377778-28.615111 40.846222 40.846222 0 0 0-11.776-29.240889 41.870222 41.870222 0 0 0-29.411556-11.377778 37.432889 37.432889 0 0 0-23.608889 8.248889c-7.509333 5.575111-12.515556 14.165333-15.132444 25.770667h-40.391111a82.488889 82.488889 0 0 1 25.315555-52.906667c14.563556-14.108444 31.971556-21.390222 52.224-21.617778z m209.578667 2.275556c38.172444 0.284444 66.844444 16.156444 85.902222 47.616 6.826667 10.581333 11.207111 21.674667 13.027556 33.28l0.512 5.12c0.967111 11.093333 1.536 27.591111 1.592889 49.493333v5.632c0 30.321778-1.137778 51.484444-3.299556 63.488a70.883556 70.883556 0 0 1-4.608 16.213334 150.243556 150.243556 0 0 1-7.964444 14.563555 98.133333 98.133333 0 0 1-34.474667 32.881778c-14.563556 9.272889-32.426667 13.937778-53.589333 13.937778H509.155556v-282.168889h98.702222z m-4.835556 40.504889h-51.086222v201.272889h51.086222c22.584889 0 39.367111-7.281778 50.289778-21.788445l1.991111-2.844444 1.934222-2.673778a48.810667 48.810667 0 0 0 7.168-20.309333c0.910222-7.281778 1.479111-19.626667 1.649778-36.977778v-4.892445l0.056889-15.189333a501.475556 501.475556 0 0 0-1.706667-47.104 48.583111 48.583111 0 0 0-11.036444-25.713778 55.409778 55.409778 0 0 0-42.439111-23.608889l-3.925333-0.227555h-3.982223z" fill="#FFFFFF" p-id="3448"></path></svg>