<?xml version="1.0" standalone="no"?><!DOCTYPE svg PUBLIC "-//W3C//DTD SVG 1.1//EN" "http://www.w3.org/Graphics/SVG/1.1/DTD/svg11.dtd"><svg t="1661234996514" class="icon" viewBox="0 0 1325 1024" version="1.1" xmlns="http://www.w3.org/2000/svg" p-id="5022" xmlns:xlink="http://www.w3.org/1999/xlink" width="258.7890625" height="200"><defs><style type="text/css">@font-face { font-family: feedback-iconfont; src: url("//at.alicdn.com/t/font_1031158_u69w8yhxdu.woff2?t=1630033759944") format("woff2"), url("//at.alicdn.com/t/font_1031158_u69w8yhxdu.woff?t=1630033759944") format("woff"), url("//at.alicdn.com/t/font_1031158_u69w8yhxdu.ttf?t=1630033759944") format("truetype"); }
</style></defs><path d="M1091.764706 561.694118c-82.823529-108.423529-317.741176-134.023529-317.741177-134.02353l93.364706-57.223529L659.576471 256 451.764706 359.905882l167.152941 93.364706c271.058824-4.517647 349.364706 140.047059 349.364706 140.047059 67.764706 212.329412-322.258824 227.388235-322.258824 227.388235C420.141176 844.8 316.235294 649.035294 316.235294 649.035294l-135.529412 4.517647c161.129412 320.752941 739.388235 180.705882 739.388236 180.705883 302.682353-91.858824 171.670588-272.564706 171.670588-272.564706z m-432.188235-134.02353l-93.364706-46.682353 88.847059-61.741176 93.364705 51.2-88.847058 57.223529z" fill="#1D2088" p-id="5023"></path><path d="M676.141176 153.6c-152.094118-10.541176-448.752941 4.517647-484.894117 185.223529-31.623529 144.564706 188.235294 227.388235 343.341176 242.447059-31.623529 21.082353-63.247059 36.141176-93.364706 57.22353 72.282353 40.658824 140.047059 82.823529 207.811765 118.964706l188.235294-108.42353-188.235294-97.882353c-36.141176-4.517647-72.282353 4.517647-93.364706 4.517647-103.905882 0-256-112.941176-213.835294-216.847059 78.305882-221.364706 593.317647-191.247059 646.02353 31.62353h146.070588c-67.764706-170.164706-311.717647-206.305882-457.788236-216.847059z m-21.082352 438.211765l93.364705 51.2-99.388235 51.2-88.847059-51.2 94.870589-51.2z" fill="#5AA572" p-id="5024"></path></svg>