<?xml version="1.0" standalone="no"?><!DOCTYPE svg PUBLIC "-//W3C//DTD SVG 1.1//EN" "http://www.w3.org/Graphics/SVG/1.1/DTD/svg11.dtd"><svg t="1653447101093" class="icon" viewBox="0 0 1024 1024" version="1.1" xmlns="http://www.w3.org/2000/svg" p-id="3538" xmlns:xlink="http://www.w3.org/1999/xlink" width="200" height="200"><defs><style type="text/css">@font-face { font-family: feedback-iconfont; src: url("//at.alicdn.com/t/font_1031158_u69w8yhxdu.woff2?t=1630033759944") format("woff2"), url("//at.alicdn.com/t/font_1031158_u69w8yhxdu.woff?t=1630033759944") format("woff"), url("//at.alicdn.com/t/font_1031158_u69w8yhxdu.ttf?t=1630033759944") format("truetype"); }
</style></defs><path d="M386.1504 415.744H257.2288V265.5232c0-32.768 6.5536-63.1808 19.456-91.5456 13.0048-28.2624 30.9248-53.248 53.76-74.6496 22.8352-21.504 49.7664-38.4 80.7936-50.5856 31.0272-12.288 64.9216-18.432 101.7856-18.432 32.768 0 64.3072 6.144 94.6176 18.432 30.3104 12.288 57.344 29.0816 80.896 50.5856 23.4496 21.504 42.1888 46.3872 56.2176 74.752 13.9264 28.2624 20.992 58.7776 20.992 91.4432v150.4256h-123.904V294.0928c0-43.008-11.8784-76.1856-35.7376-99.7376-23.8592-23.552-56.32-35.328-97.1776-35.328-36.864 0-66.56 11.776-89.088 35.328-22.4256 23.552-33.6896 56.832-33.6896 99.7376v121.7536z m440.9344 61.44c18.432 0 34.304 6.656 47.5136 19.968 13.312 13.312 19.968 29.184 19.968 47.616v317.1328a136.4992 136.4992 0 0 1-36.2496 93.5936 122.6752 122.6752 0 0 1-90.5216 38.2976H251.1872a119.808 119.808 0 0 1-88.576-37.2736 120.1152 120.1152 0 0 1-24.576-39.424 132.1984 132.1984 0 0 1-8.6016-48.128V544.768c0-18.432 6.4512-34.304 19.456-47.616a63.2832 63.2832 0 0 1 47.104-19.968h631.0912z" fill="#CCCCCC" p-id="3539"></path></svg>