<?xml version="1.0" standalone="no"?><!DOCTYPE svg PUBLIC "-//W3C//DTD SVG 1.1//EN" "http://www.w3.org/Graphics/SVG/1.1/DTD/svg11.dtd"><svg t="1654077913299" class="icon" viewBox="0 0 1024 1024" version="1.1" xmlns="http://www.w3.org/2000/svg" p-id="2412" xmlns:xlink="http://www.w3.org/1999/xlink" width="200" height="200"><defs><style type="text/css">@font-face { font-family: feedback-iconfont; src: url("//at.alicdn.com/t/font_1031158_u69w8yhxdu.woff2?t=1630033759944") format("woff2"), url("//at.alicdn.com/t/font_1031158_u69w8yhxdu.woff?t=1630033759944") format("woff"), url("//at.alicdn.com/t/font_1031158_u69w8yhxdu.ttf?t=1630033759944") format("truetype"); }
</style></defs><path d="M899.85219 887.222857l-132.291047-132.291047A394.48381 394.48381 0 0 0 877.714286 481.52381c0-218.453333-177.737143-396.190476-396.190476-396.190477S85.333333 263.070476 85.333333 481.52381 263.070476 877.714286 481.52381 877.714286a393.703619 393.703619 0 0 0 240.493714-82.115048l134.729143 134.729143a30.378667 30.378667 0 0 0 43.105523 0 30.47619 30.47619 0 0 0 0-43.105524zM146.285714 481.52381A335.62819 335.62819 0 0 1 481.52381 146.285714a335.62819 335.62819 0 0 1 335.238095 335.238096 335.62819 335.62819 0 0 1-335.238095 335.238095A335.62819 335.62819 0 0 1 146.285714 481.52381z m474.112-30.476191H512V344.356571a30.47619 30.47619 0 1 0-60.952381 0V451.047619H344.356571a30.47619 30.47619 0 1 0 0 60.952381H451.047619v106.691048a30.47619 30.47619 0 1 0 60.952381 0V512h108.397714a30.47619 30.47619 0 1 0 0-60.952381z" fill="#000000" p-id="2413"></path></svg>