<?xml version="1.0" standalone="no"?><!DOCTYPE svg PUBLIC "-//W3C//DTD SVG 1.1//EN" "http://www.w3.org/Graphics/SVG/1.1/DTD/svg11.dtd"><svg t="1654081632323" class="icon" viewBox="0 0 1024 1024" version="1.1" xmlns="http://www.w3.org/2000/svg" p-id="2562" xmlns:xlink="http://www.w3.org/1999/xlink" width="200" height="200"><defs><style type="text/css">@font-face { font-family: feedback-iconfont; src: url("//at.alicdn.com/t/font_1031158_u69w8yhxdu.woff2?t=1630033759944") format("woff2"), url("//at.alicdn.com/t/font_1031158_u69w8yhxdu.woff?t=1630033759944") format("woff"), url("//at.alicdn.com/t/font_1031158_u69w8yhxdu.ttf?t=1630033759944") format("truetype"); }
</style></defs><path d="M746.75296 859.2a415.36 415.36 0 0 1-234.624 71.872A419.392 419.392 0 0 1 93.12096 512.192c0-82.944 24.192-163.264 70.016-231.936a30.592 30.592 0 0 0-50.752-33.92A477.12 477.12 0 0 0 32.06496 512.192c0 264.576 215.36 479.808 480.064 479.808 96.384 0 189.44-28.416 268.928-82.304a30.72 30.72 0 0 0 8.192-42.432 30.784 30.784 0 0 0-42.496-8.064zM512.00096 32C409.47296 32 311.68096 63.808 229.12096 124.16a30.464 30.464 0 1 0 36.032 49.216A416.64 416.64 0 0 1 512.00096 93.056c230.976 0 418.88 188.032 418.88 419.008a414.976 414.976 0 0 1-80.32 246.72 30.528 30.528 0 1 0 49.28 35.84A475.904 475.904 0 0 0 991.87296 512C992.00096 247.36 776.89696 32 512.00096 32zM418.75296 704.512c5.312 0 10.56-1.28 15.36-4.224l276.8-159.808a30.464 30.464 0 0 0 0-52.864L434.24096 327.808a31.36 31.36 0 0 0-30.72 0 30.336 30.336 0 0 0-15.168 26.432v319.616a30.464 30.464 0 0 0 30.4 30.656z m30.656-297.344l185.216 106.88-185.216 106.88v-213.76z" fill="#000000" p-id="2563"></path></svg>