<?xml version="1.0" standalone="no"?><!DOCTYPE svg PUBLIC "-//W3C//DTD SVG 1.1//EN" "http://www.w3.org/Graphics/SVG/1.1/DTD/svg11.dtd"><svg t="1653447116280" class="icon" viewBox="0 0 1024 1024" version="1.1" xmlns="http://www.w3.org/2000/svg" p-id="3838" xmlns:xlink="http://www.w3.org/1999/xlink" width="200" height="200"><defs><style type="text/css">@font-face { font-family: feedback-iconfont; src: url("//at.alicdn.com/t/font_1031158_u69w8yhxdu.woff2?t=1630033759944") format("woff2"), url("//at.alicdn.com/t/font_1031158_u69w8yhxdu.woff?t=1630033759944") format("woff"), url("//at.alicdn.com/t/font_1031158_u69w8yhxdu.ttf?t=1630033759944") format("truetype"); }
</style></defs><path d="M656 985.984c-17.984 0-36.032-17.984-36.032-35.968s18.048-36.032 36.032-36.032h252.032l5.952-251.968c0-17.984 17.984-36.032 36.032-36.032 17.984 0 35.968 17.984 35.968 36.032v275.968a47.36 47.36 0 0 1-48 48H656z m-576-582.016c-17.984 0-36.032-17.92-36.032-35.968V91.968a47.36 47.36 0 0 1 48-48H368c17.984 0 36.032 18.048 36.032 36.032 0 17.984-18.048 36.032-36.032 36.032H115.968V368c0 17.984-17.92 36.032-35.968 36.032z m12.032 582.016a47.36 47.36 0 0 1-48-48v-275.968c0-17.984 17.92-36.032 35.968-36.032 17.984 0 36.032 17.984 36.032 36.032v203.968l185.984-185.984c5.952-6.016 17.984-12.032 24-12.032 5.952 0 17.984 6.016 24 12.032 5.952 6.016 11.968 17.984 11.968 24 0 12.032-5.952 17.984-11.968 24l-186.048 185.984H368c17.984 0 36.032 17.984 36.032 36.032 0 17.984-18.048 35.968-36.032 35.968H91.968z m857.984-582.016c-17.984 0-36.032-17.92-36.032-35.968V163.968L728 350.08c-6.016 5.952-17.984 11.968-24 11.968-12.032 0-17.984-5.952-24-11.968-12.032-12.032-12.032-36.032 0-48l185.984-186.048H662.016c-17.984 0-36.032-17.92-36.032-35.968 0-17.984 17.984-36.032 36.032-36.032h275.968a47.36 47.36 0 0 1 48 48V368c0 17.984-17.984 36.032-35.968 36.032z" fill="#000000" p-id="3839"></path></svg>