<?xml version="1.0" encoding="UTF-8"?>
<svg width="26px" height="26px" viewBox="0 0 26 26" version="1.1" xmlns="http://www.w3.org/2000/svg" xmlns:xlink="http://www.w3.org/1999/xlink">
    <title>编组</title>
    <g id="页面-1" stroke="none" stroke-width="1" fill="none" fill-rule="evenodd">
        <g id="我的-我的订单-预付-待付款" transform="translate(-20.000000, -402.000000)" fill="#999999" fill-rule="nonzero">
            <g id="编组" transform="translate(20.000000, 402.000000)">
                <path d="M13,0 C20.1797017,0 26,5.82029825 26,13 C26,20.1797017 20.1797017,26 13,26 C5.82029825,26 0,20.1797017 0,13 C0,5.82029825 5.82029825,0 13,0 Z M13,1 C6.372583,1 1,6.372583 1,13 C1,19.627417 6.372583,25 13,25 C19.627417,25 25,19.627417 25,13 C25,6.372583 19.627417,1 13,1 Z" id="椭圆形备份"></path>
                <g id="2" transform="translate(9.368000, 7.808000)">
                    <path d="M3.472,0 C2.464,0 1.638,0.336 1.022,1.008 C0.406,1.666 0.084,2.562 0.084,3.682 L1.232,3.682 C1.246,2.8 1.456,2.128 1.848,1.68 C2.212,1.204 2.744,0.98 3.43,0.98 C4.074,0.98 4.592,1.148 4.956,1.484 C5.32,1.82 5.502,2.282 5.502,2.898 C5.502,3.542 5.236,4.144 4.732,4.69 C4.466,4.97 3.948,5.376 3.164,5.936 C2.1,6.664 1.386,7.266 0.994,7.714 C0.322,8.456 0,9.282 0,10.192 L6.664,10.192 L6.664,9.17 L1.414,9.17 C1.596,8.498 2.324,7.728 3.598,6.874 C4.634,6.174 5.32,5.628 5.67,5.264 C6.314,4.564 6.65,3.78 6.65,2.912 C6.65,2.044 6.342,1.33 5.754,0.798 C5.152,0.266 4.396,0 3.472,0 Z" id="路径"></path>
                </g>
            </g>
        </g>
    </g>
</svg>