<?xml version="1.0" standalone="no"?><!DOCTYPE svg PUBLIC "-//W3C//DTD SVG 1.1//EN" "http://www.w3.org/Graphics/SVG/1.1/DTD/svg11.dtd"><svg t="1652266627108" class="icon" viewBox="0 0 1066 1024" version="1.1" xmlns="http://www.w3.org/2000/svg" p-id="14609" xmlns:xlink="http://www.w3.org/1999/xlink" width="208.203125" height="200"><defs><style type="text/css">@font-face { font-family: feedback-iconfont; src: url("//at.alicdn.com/t/font_1031158_u69w8yhxdu.woff2?t=1630033759944") format("woff2"), url("//at.alicdn.com/t/font_1031158_u69w8yhxdu.woff?t=1630033759944") format("woff"), url("//at.alicdn.com/t/font_1031158_u69w8yhxdu.ttf?t=1630033759944") format("truetype"); }
</style></defs><path d="M261.973333 233.898667c-26.069333 3.285333-52.138667 24.832-60.672 49.664-5.674667 15.488-107.52 454.229333-107.989333 462.208-0.938667 22.954667 12.330667 39.850667 34.133333 44.074666 8.021333 1.877333 266.666667 1.877333 275.2 0 24.618667-4.693333 47.829333-23.893333 56.362667-47.36 3.328-8.917333 108.501333-456.106667 108.501333-463.573333 1.408-21.12-11.392-38.442667-31.744-44.544-4.736-0.938667-262.912-1.877333-273.792-0.469333z" fill="#E60012" p-id="14610"></path><path d="M503.04 233.898667c-26.026667 3.285333-52.053333 24.832-60.586667 49.664-5.205333 15.488-107.52 454.229333-107.52 462.208-0.981333 22.954667 12.288 39.850667 34.090667 44.074666 8.021333 1.877333 266.666667 1.877333 275.2 0 24.661333-4.693333 47.872-23.893333 56.405333-47.36 3.285333-8.917333 108.458667-456.106667 108.458667-463.573333 1.450667-21.12-11.349333-38.442667-31.744-44.544-5.205333-0.938667-263.381333-1.877333-274.261333-0.469333z" fill="#00508E" p-id="14611"></path><path d="M754.602667 233.898667c-26.026667 3.285333-52.096 24.832-60.586667 49.664-5.248 15.488-107.562667 454.229333-107.562667 462.208-0.938667 22.954667 12.330667 39.850667 34.133334 44.074666 8.021333 1.877333 200.362667 1.877333 208.896 0 24.618667-4.693333 47.829333-23.893333 56.32-47.36 3.370667-8.917333 108.501333-456.106667 108.501333-463.573333 1.450667-21.12-11.349333-38.442667-31.744-44.544-4.693333-1.408-220.714667-2.346667-231.637333-0.938667h23.68v0.426667z" fill="#00908C" p-id="14612"></path><path d="M253.866667 376.405333a30.72 30.72 0 0 1-1.365334 6.058667c-10.922667 36.565333-21.802667 85.802667-20.394666 91.904 3.797333 18.261333 30.805333 16.853333 40.277333-2.346667 2.816-5.12 23.210667-90.922667 23.210667-97.024 0-0.469333 32.213333 0 32.213333 0.426667 0 0 0 1.450667-0.469333 2.858667a1510.4 1510.4 0 0 0-11.392 44.501333c-12.8 49.706667-14.208 54.869333-20.821334 64.682667-21.802667 31.914667-94.72 30.976-100.437333-1.408-1.408-6.997333 14.208-88.106667 21.333333-110.122667 0-1.408 37.888-0.469333 37.888 0.426667z m484.181333 0c21.76 4.693333 28.416 22.016 18.474667 47.786667-9.941333 25.813333-31.274667 37.034667-68.693334 37.034667-11.392 0-10.410667-1.877333-17.493333 33.28-1.450667 6.570667-2.901333 12.672-2.901333 13.610666-0.426667 2.346667-34.090667 2.346667-33.621334 0 28.416-120.490667 30.805333-130.773333 30.805334-131.712l0.469333-1.408h34.133333c26.965333 0.426667 34.56 0.426667 38.826667 1.408z m-292.266667 46.378667c4.693333 0.938667 8.021333 4.693333 8.021334 7.978667 0 11.733333-24.149333 19.712-33.152 10.794666-8.533333-8.917333 9.472-22.528 25.088-18.773333z m-83.882666 8.917333c0 0.938667-0.426667 2.816-0.426667 4.224l-0.512 1.877334 5.674667-2.816c15.189333-7.509333 29.866667-6.101333 34.56 3.285333 2.858667 5.632 2.389333 8.917333-5.162667 43.605333-1.450667 6.058667-3.328 14.506667-3.84 18.730667-1.877333 9.386667-0.426667 8.917333-17.493333 8.917333-14.677333 0-14.677333 0-14.208-1.408 0-0.938667 1.877333-8.448 3.797333-17.365333 7.552-33.28 8.064-37.973333 1.408-37.973333-3.797333 0-9.002667 2.346667-9.472 3.754666a1420.16 1420.16 0 0 0-9.941333 47.786667l-0.938667 4.266667-14.72 0.938666c-17.962667 0.426667-16.554667 1.877333-12.8-14.08 5.248-20.608 8.106667-35.157333 9.984-48.256 2.346667-14.08 0.938667-12.672 14.208-14.549333 6.144-0.938667 12.330667-1.877333 14.208-2.346667 4.736-1.408 5.674667-0.938667 5.674667 1.408z m225.024-0.426666c0 0.896-0.469333 2.773333-0.469334 4.181333l-0.469333 2.346667 5.674667-2.816c29.354667-15.018667 40.746667-2.816 32.213333 35.626666-1.877333 8.448-4.266667 20.608-5.674667 26.24a49.749333 49.749333 0 0 1-2.858666 11.733334c-1.877333 1.877333-29.866667 1.408-29.354667 0 0-0.938667 1.877333-8.448 3.797333-16.896 8.021333-34.218667 8.021333-38.4 0.938667-38.4-5.674667 0-8.533333 1.834667-9.472 6.058666-1.450667 5.162667-8.533333 38.912-9.472 45.013334l-0.938667 5.12-14.72 0.512c-18.005333 0.426667-16.554667 2.346667-12.288-15.018667 4.693333-18.773333 8.021333-36.096 10.410667-48.725333 1.877333-12.202667 0.469333-10.794667 12.330667-12.672 5.205333-0.938667 11.818667-1.877333 14.208-2.346667 4.693333-2.346667 6.144-1.877333 6.144 0z m287.573333-0.512c1.877333 28.586667 2.346667 37.034667 2.346667 37.504 0 0.469333 4.266667-7.04 8.96-16.426667 9.514667-18.730667 7.594667-16.853333 18.048-18.261333 2.816-0.469333 8.533333-1.408 12.8-2.346667 10.410667-1.877333 10.410667-2.816-1.450667 17.834667-16.085333 27.648-38.4 66.56-46.421333 80.64-24.149333 43.52-24.149333 43.52-44.544 44.032l-12.288 0.426666 0.938666-3.242666c0.469333-1.877333 1.877333-5.632 2.389334-8.448l1.408-5.12h3.797333c4.266667 0 5.205333-0.981333 8.96-7.509334 1.450667-2.346667 3.84-6.101333 4.778667-8.448 1.408-2.346667 6.144-9.813333 9.941333-17.365333l7.552-13.098667-1.877333-17.365333a1133.781333 1133.781333 0 0 0-6.613334-51.072c-0.981333-6.570667-0.981333-6.570667 7.552-7.509333 3.84-0.469333 9.941333-1.877333 13.269334-2.346667 9.002667-2.816 9.941333-2.816 10.410666-1.877333z m-357.205333 0.469333c36.48 6.570667 23.68 69.376-16.128 78.293333-26.965333 6.101333-45.44-4.266667-45.44-24.874666 0.426667-36.053333 27.434667-59.52 61.568-53.418667z m272.853333 1.877333a28.458667 28.458667 0 0 1 6.144 4.224c2.389333 2.346667 2.389333 2.346667 2.389333 0.938667 0.469333-1.877333 0-1.877333 18.944-4.693333 15.146667-2.346667 14.677333-2.346667 13.738667 1.877333a3313.322667 3313.322667 0 0 0-13.738667 60.458667c-3.328 16.896-0.938667 15.018667-19.413333 14.506666h-15.658667v-1.834666c0-1.877333-0.938667-2.816-1.877333-1.408-5.205333 8.448-30.805333 5.12-37.888-5.162667-17.536-26.24 19.882667-81.578667 47.36-68.906667z m-340.138667 13.610667s0 2.346667-0.426666 4.224c-3.84 14.976-10.453333 45.44-11.861334 51.072l-1.450666 7.04-15.616 0.426667c-18.474667 0.512-17.493333 1.450667-13.738667-9.813334 3.328-10.794667 6.613333-23.893333 8.533333-37.973333 1.877333-12.16 0-10.325333 13.738667-12.16 6.144-0.938667 12.8-1.877333 14.208-2.346667 3.797333-0.938667 6.144-0.938667 6.613333-0.469333z m82.901334 97.024a19.285333 19.285333 0 0 1-2.346667 4.693333 20.949333 20.949333 0 0 1-2.389333 4.224c27.946667 0.426667 28.928 0.426667 28.416 1.834667l-5.205334 16.896h-40.746666l-2.346667 1.877333c-5.205333 4.693333-32.682667 10.794667-32.682667 7.04l5.205334-16.896h3.797333c6.613333 0 8.064-1.408 13.738667-11.221333l4.693333-8.96c24.661333-0.426667 29.866667 0 29.866667 0.512z m62.08 0a29.269333 29.269333 0 0 1-1.450667 5.632 20.992 20.992 0 0 0-1.408 5.12s2.389333-0.938667 5.205333-3.242667c10.453333-7.04 19.413333-8.448 45.952-8.448 10.410667 0 19.413333 0 19.925334 0.426667 0.426667 0.981333-15.189333 51.626667-17.536 56.32a23.808 23.808 0 0 1-11.861334 11.690667l-4.693333 1.877333-27.050667 0.426667-27.008 0.512-4.693333 15.914666c-9.514667 30.464-9.514667 28.16 4.266667 26.752 10.88-0.981333 10.410667-1.877333 7.082666 9.386667l-2.858666 9.344h-13.738667c-29.866667 0.469333-33.621333-1.408-30.762667-13.610667 1.408-6.058667 35.498667-117.632 35.968-118.613333 0.512-0.426667 24.661333-0.426667 24.661334 0.512z m124.586666 0c0 0.426667-0.469333 1.877333-0.938666 3.754667-1.450667 4.693333-1.450667 4.693333 4.693333 1.408 8.106667-4.266667 27.008-5.632 65.877333-5.632h12.330667v5.632c0 6.528 0.426667 6.997333 6.144 7.936l4.266667 0.469333-2.389334 8.448-2.346666 8.448h-8.533334c-21.76 0.426667-25.130667-1.877333-25.6-14.506667v-6.144l-1.408 4.266667-1.408 4.693333h-4.736c-2.389333 0-4.736 0-4.736 0.426667l-26.538666 87.210667c-0.469333 0.938667 0 1.408 2.858666 1.408 4.266667 0 4.266667 0 2.816 3.712-1.408 4.266667-1.408 4.266667 3.328 4.266666a13.056 13.056 0 0 0 7.594667-1.877333c3.285333-1.877333 3.285333-1.408 18.474667-22.528l6.144-8.917333h-12.8c-15.616 0-14.208 0.938667-11.349334-8.405334l2.346667-7.509333h31.274667c2.858667-9.813333 3.797333-12.672 3.797333-13.141333 0-0.426667-6.656-0.426667-15.189333-0.426667h-15.146667l4.736-16.896h42.666667c23.168 0 42.624 0 42.624 0.426667 0 0.512-0.938667 4.266667-2.389334 8.490666l-2.346666 7.936-14.208 0.469334-14.208 0.469333c-2.389333 7.04-3.328 10.325333-3.84 11.264l-0.426667 1.877333h13.738667c16.085333 0 15.146667-0.938667 11.818666 8.448l-2.346666 7.466667h-31.274667l-4.736 5.632h12.330667l1.877333 11.264c1.877333 12.672 1.877333 12.672 8.064 12.672 4.693333 0 4.693333-0.981333 1.408 10.282667l-2.858667 9.386666h-8.96c-15.658667 0-18.517333-2.346667-21.333333-18.261333l-1.450667-10.325333-5.674666 7.509333c-15.616 21.077333-16.554667 21.546667-36.48 21.546667-12.8 0-12.8 0-10.88-3.754667 0.469333-1.877333 0.469333-1.877333-3.328-1.877333s-3.797333 0-4.693334 2.816l-0.512 2.816h-26.538666l0.469333-1.408c1.450667-4.693333 3.84-4.224-25.088-4.224-25.088 0-26.538667 0-26.026667-1.408l2.346667-8.448c2.816-8.405333 2.346667-8.405333 5.205333-8.405334 2.389333 0 2.389333 0 3.328-3.285333 22.272-73.6 29.354667-97.024 30.293334-100.309333l1.92-6.101334h13.226666c8.533333 0 14.72 0.426667 14.72 0.938667z m-168.192 40.32l-5.205333 16.384h-28.416a137.386667 137.386667 0 0 1-4.266667 13.141333c-0.469333 1.408 0.469333 1.408 14.208 1.408 8.064 0 14.677333 0.426667 14.677334 0.426667 0 0.512-0.426667 1.450667-0.938667 2.858667-0.426667 0.938667-1.408 4.693333-2.346667 8.405333l-1.92 6.101333h-29.354666l-3.328 11.264c-4.693333 15.914667-4.266667 16.384 13.738666 14.08 7.594667-0.938667 7.125333-1.877333 3.797334 9.386667l-2.858667 9.344h-19.882667c-31.274667 0-31.744-0.938667-23.210666-27.648 2.389333-8.448 4.736-15.488 4.736-15.488s-3.328-0.426667-8.064-0.426667c-4.266667 0-8.021333 0-8.021334-0.512 3.285333-11.690667 4.693333-15.445333 4.693334-16.384 0.512-0.938667 1.450667-1.408 8.533333-1.408h8.106667l3.754666-14.506666h-7.594666c-5.674667 0-7.552 0-7.552-0.981334 0-0.938667 4.266667-14.506667 4.693333-15.914666 0.981333-0.938667 72.533333-0.469333 72.021333 0.426666z m91.904 33.706667c0 0.981333-0.938667 3.797333-1.408 6.101333-2.858667 13.141333-6.613333 15.957333-21.76 16.896l-9.984 0.938667c-0.938667 1.408-0.938667 12.672 0 14.506666l1.408 1.92 9.472-0.469333c5.248-0.469333 9.472-0.469333 9.472-0.469333 0 0.938667-5.205333 17.322667-5.674666 17.792-0.938667 0.938667-29.866667 0.469333-33.621334-0.938667-5.674667-1.877333-5.674667-1.408-5.205333-30.933333l0.426667-25.770667h24.192v9.813333h4.736c5.205333 0 5.674667-0.426667 8.064-6.997333l1.408-3.754667h9.472c8.533333 0.426667 9.472 0.426667 9.002666 1.408z m44.544-200.576l-5.205333 22.485333h7.082667c36.48 0.938667 51.626667-40.789333 16.128-43.605333l-11.392-0.938667c-1.408 0-1.408 1.408-6.613334 22.058667z m-188.586666 31.872c-8.96 3.712-17.493333 37.461333-10.368 42.666666 5.205333 4.181333 12.8-2.858667 16.554666-14.549333 6.186667-21.589333 4.266667-31.872-6.144-28.16z m282.368 2.304c-9.472 4.693333-16.554667 37.973333-9.472 41.728 9.472 5.162667 21.76-12.629333 21.76-31.872 0-8.917333-5.162667-13.098667-12.288-9.813334z m-191.36 111.573333l-2.389334 8.448c-1.408 4.224-2.346667 7.978667-2.816 8.448 0 0.426667 2.346667-0.469333 5.674667-2.346667 9.472-4.693333 12.288-5.632 26.026667-6.101333l11.861333-0.469333c1.877333-5.632 2.389333-7.978667 2.389333-8.448 0.426667-0.426667-40.277333-0.426667-40.746666 0.469333z m-8.064 27.178667l-1.877334 7.509333 40.704-0.426667 2.389334-7.552c-32.213333 0-41.216 0-41.216 0.469334z m128.853333-16.853334c-1.92 6.101333-3.328 10.794667-2.858667 10.794667l5.717334-1.877333c2.816-0.938667 8.021333-2.346667 10.88-2.816 2.858667-0.469333 5.205333-0.938667 5.674666-0.938667 0 0 4.736-14.506667 4.736-15.018667 0 0-4.693333-0.426667-10.410666-0.426666h-10.410667l-3.328 10.24z m-7.594667 23.893334c0 0.469333-1.877333 5.162667-3.285333 10.794666-1.92 5.632-3.328 10.794667-3.328 10.794667 0 0.426667 2.346667-0.469333 5.674667-1.877333 3.328-1.408 8.064-2.816 10.88-3.285334 6.186667-0.938667 6.656-1.408 7.125333-3.754666 0.469333-0.938667 1.408-4.693333 2.346667-7.509334l1.92-5.632h-10.410667c-5.717333 0-10.922667 0-10.922667 0.469334zM686.933333 651.093333l20.821334 0.426667c4.266667-14.037333 5.674667-18.730667 5.674666-19.2l-20.821333-0.938667-5.674667 19.712z" fill="#FFFFFF" p-id="14613"></path></svg>