<?xml version="1.0" encoding="UTF-8"?>
<svg width="41px" height="40px" viewBox="0 0 41 40" version="1.1" xmlns="http://www.w3.org/2000/svg" xmlns:xlink="http://www.w3.org/1999/xlink">
    <title>双指移动</title>
    <g id="页面-1" stroke="none" stroke-width="1" fill="none" fill-rule="evenodd">
        <g id="我的藏品-详情-放大藏品备份" transform="translate(-167.000000, -700.000000)" fill-rule="nonzero">
            <g id="双指移动" transform="translate(167.500000, 700.000000)">
                <rect id="矩形" fill="#000000" opacity="0" x="0" y="0" width="40" height="40"></rect>
                <path d="M27.6083594,4.4028125 L27.6566406,4.4471875 L29.2278125,6.04476563 C29.4761328,6.29722656 29.4761328,6.70660156 29.2278125,6.9590625 C28.9990827,7.19333589 28.6287719,7.21264789 28.3769141,7.0034375 L28.3285937,6.9590625 L27.890625,6.51371094 L27.890625,8.515625 L29.8923047,8.515625 L29.4471875,8.07765625 C29.3260955,7.95940197 29.257823,7.79730216 29.257823,7.62804688 C29.257823,7.45879159 29.3260955,7.29669178 29.4471875,7.1784375 C29.6839063,6.945625 30.0584766,6.93109375 30.3124219,7.13476563 L30.3614844,7.1784375 L31.9590625,8.74960938 C32.1933596,8.97834408 32.2126722,9.34868272 32.0034375,9.60054688 L31.9590625,9.64882813 L30.3614844,11.22 C30.1090234,11.4683203 29.6996484,11.4683203 29.4471875,11.22 C29.2129141,10.9912702 29.1936021,10.6209594 29.4028125,10.3691016 L29.4471875,10.3207813 L29.8925781,9.8828125 L27.890625,9.8828125 L27.890625,11.8844922 L28.3285938,11.439375 C28.446848,11.318283 28.6089478,11.2500105 28.7782031,11.2500105 C28.9474584,11.2500105 29.1095582,11.318283 29.2278125,11.439375 C29.460625,11.6760937 29.4751563,12.0506641 29.2714844,12.3046094 L29.2278125,12.3536719 L27.6566406,13.95125 C27.4279059,14.1855471 27.0575673,14.2048597 26.8057031,13.995625 L26.7574219,13.95125 L25.18625,12.3536719 C24.9379297,12.1012109 24.9379297,11.6918359 25.18625,11.439375 C25.4149798,11.2051016 25.7852906,11.1857896 26.0371484,11.395 L26.0854688,11.439375 L26.5234375,11.8847656 L26.5234375,9.8828125 L24.52125,9.8828125 L24.966875,10.3207813 C25.2011721,10.549516 25.2204847,10.9198546 25.01125,11.1717187 L24.966875,11.22 C24.7301563,11.4528125 24.3555859,11.4673437 24.1016406,11.2636719 L24.0525781,11.22 L22.455,9.64882812 C22.2207029,9.42009342 22.2013903,9.04975478 22.410625,8.79789062 L22.455,8.74960937 L24.0525781,7.1784375 C24.3050391,6.93011719 24.7144141,6.93011719 24.966875,7.1784375 C25.2011484,7.40716729 25.2204604,7.77747813 25.01125,8.02933594 L24.966875,8.07765625 L24.5215234,8.515625 L26.5234375,8.515625 L26.5234375,6.5134375 L26.0854688,6.9590625 C25.856734,7.19335961 25.4863954,7.21267216 25.2345313,7.0034375 L25.18625,6.9590625 C24.9534375,6.72234375 24.9389063,6.34777344 25.1425781,6.09382812 L25.18625,6.04476563 L26.7574219,4.4471875 C26.9861566,4.21289039 27.3564952,4.19357784 27.6083594,4.4028125 L27.6083594,4.4028125 Z" id="路径" fill="#FFFFFF"></path>
                <path d="M19.1569531,6.64152344 C20.6477734,6.86238281 21.1671094,7.81839844 21.2255078,9.42433594 L21.23125,9.67894531 L21.2330859,10.4371484 L21.2359766,10.5656641 L21.4349609,15.6440234 C21.8016797,15.5533984 22.2164844,15.5221484 22.6767578,15.5674609 C24.1110156,15.7087891 24.7812109,16.6100391 24.9289063,18.2099609 C26.9002344,18.1022266 27.8624609,19.2816406 28.0032422,21.4547266 L28.0485547,22.1814453 C28.1391797,23.7049219 28.1640625,24.6893359 28.1640625,26.546875 C28.1640625,29.0523438 27.5582031,31.283125 26.5478125,33.2097656 C26.1929297,33.8865234 25.8117578,34.4780078 25.4289062,34.9814844 C25.1947266,35.2894141 25.0080078,35.5033594 24.8929688,35.6205859 C24.6397266,35.8787109 24.2196875,35.8878516 23.9548828,35.6408984 C23.7066406,35.4094531 23.6828906,35.0351563 23.8896094,34.7765625 L24.0407812,34.6085938 C24.1368359,34.4984375 24.2451953,34.3658594 24.3628125,34.2111719 C24.7035156,33.763125 25.0458594,33.231875 25.36625,32.6209766 C26.2852344,30.8686328 26.8370312,28.8368359 26.8370312,26.546875 L26.8338281,25.5402344 C26.8230469,24.0764453 26.7830469,23.1453516 26.6788281,21.53625 L26.6617969,21.3180859 C26.5354687,19.9533594 26.0875781,19.425 24.9610156,19.503125 L24.9609375,23.3300781 C24.9609375,23.6914063 24.6786719,23.984375 24.3304688,23.984375 C24.0027734,23.984375 23.7334766,23.7248828 23.7029297,23.3930859 L23.7000391,23.3300781 L23.7000391,18.9567969 C23.7000391,17.4819922 23.4089063,16.9541016 22.5576172,16.8702344 C22.1174609,16.826875 21.7635547,16.8816406 21.4878516,16.9945703 L21.6791797,21.8776953 C21.6932422,22.2360547 21.4071875,22.5376563 21.0403125,22.5513672 C20.695,22.5642578 20.4011328,22.3175391 20.3560547,21.9897266 L20.3505859,21.9273438 L19.9071875,10.6101562 C19.9039585,10.5038457 19.9023437,10.3974923 19.9023438,10.2911328 L19.9019922,9.72078125 L19.8997266,9.57355469 C19.8752734,8.44925781 19.6621484,8.02984375 18.9575391,7.92542969 C17.9376562,7.77433594 17.3853125,8.35140625 17.3171875,9.45851563 L17.3113672,9.60128906 C17.2919141,10.3102734 17.3246875,12.5475781 17.3954687,15.7814844 L17.4802344,19.4023438 L17.5536328,22.2632813 C17.5548118,22.3061716 17.5516578,22.3490714 17.5442188,22.3913281 L17.5764844,22.8479297 C17.6020313,23.2086328 17.3251953,23.5213672 16.958125,23.5464453 C16.6127344,23.5700781 16.3105078,23.3304297 16.2548828,23.0014453 L16.2473828,22.9387891 L15.415,11.1683594 C15.3865625,10.1028125 15.0783984,9.6071875 14.2339453,9.59101563 C13.3754688,9.57460938 12.9610156,10.1758203 12.935,11.2472656 L12.9337109,11.3559766 L13.2962891,26.5563672 C13.3048828,26.9178125 13.0137109,27.2176953 12.6458984,27.2264063 C12.2997266,27.2341797 12.0090625,26.9811719 11.9688672,26.65 L11.9643359,26.5870313 L11.8224609,20.6352344 C11.6209375,20.6169531 11.3931641,20.6039844 11.2049609,20.6039844 C10.5510938,20.6039844 10.0644531,21.1383984 9.92289063,22.2038281 L9.88855469,22.4882031 L9.87371094,22.6199609 C9.84322071,22.9003341 9.81661659,23.1811163 9.79390625,23.4622266 C9.73161255,24.2243082 9.69413178,24.988215 9.68152344,25.7527344 C9.64527344,28.0179687 9.95367188,29.0694531 10.9846484,30.5894531 C11.1210547,30.7905469 11.2778125,31.0015625 11.4533984,31.2210937 C11.7980859,31.6521094 12.2095703,32.1091797 12.6733984,32.5824219 C13.2059766,33.1258203 13.7783984,33.6615625 14.3509375,34.1651562 L14.5842188,34.3685156 L15.061875,34.7722656 C15.08125,34.7882031 15.0970313,34.8010937 15.1090234,34.8108203 C15.3860938,35.0350391 15.4326563,35.4460937 15.2130469,35.7289844 C14.9933984,36.0117969 14.5907031,36.059375 14.3136328,35.8351562 L14.1408203,35.6924609 L13.8729297,35.4658984 C13.7529664,35.3632246 13.6337058,35.2597326 13.5151563,35.1554297 C12.9203125,34.6321875 12.3253125,34.0753516 11.7682813,33.5069922 C11.2758984,33.0046094 10.8359766,32.5159766 10.4615234,32.0477344 C10.2655469,31.8026562 10.0885547,31.5644531 9.93195313,31.3335547 C8.74769531,29.5875391 8.36070313,28.2680859 8.40128906,25.7314062 C8.41434752,24.9378119 8.4532353,24.144853 8.51789063,23.3537891 L8.55050781,22.97875 C8.56160156,22.85875 8.57289063,22.7438672 8.58421875,22.6344531 L8.638125,22.1623437 C8.82125,20.4273828 9.80296875,19.296875 11.2049219,19.296875 C11.3874219,19.296875 11.5913281,19.3055469 11.7910547,19.3207812 L11.6015625,11.3713281 C11.6015625,9.57734375 12.4563281,8.24742188 14.2598438,8.281875 C15.0557031,8.29710937 15.6359375,8.546875 16.0348438,8.97234375 C16.2864062,7.40101562 17.4149219,6.38339844 19.1569531,6.64148437 L19.1569531,6.64152344 Z" id="路径" fill="#FFFFFF"></path>
            </g>
        </g>
    </g>
</svg>