<?xml version="1.0" standalone="no"?><!DOCTYPE svg PUBLIC "-//W3C//DTD SVG 1.1//EN" "http://www.w3.org/Graphics/SVG/1.1/DTD/svg11.dtd"><svg t="1653447107738" class="icon" viewBox="0 0 1024 1024" version="1.1" xmlns="http://www.w3.org/2000/svg" p-id="3688" xmlns:xlink="http://www.w3.org/1999/xlink" width="200" height="200"><defs><style type="text/css">@font-face { font-family: feedback-iconfont; src: url("//at.alicdn.com/t/font_1031158_u69w8yhxdu.woff2?t=1630033759944") format("woff2"), url("//at.alicdn.com/t/font_1031158_u69w8yhxdu.woff?t=1630033759944") format("woff"), url("//at.alicdn.com/t/font_1031158_u69w8yhxdu.ttf?t=1630033759944") format("truetype"); }
</style></defs><path d="M978.2272 544.1536c9.0624 23.808 13.7216 49.0496 13.7728 74.496 0 167.3728-198.8096 297.6768-446.208 308.5824l31.488 31.488a32 32 0 0 1 2.2016 42.8032l-2.2016 2.4576a32 32 0 0 1-42.8032 2.2016l-2.4576-2.2016-85.2992-85.3504a32 32 0 0 1-2.2016-42.8544l2.2016-2.4064 85.2992-85.3504a32 32 0 0 1 47.4624 42.8544l-2.2016 2.4064-29.7984 29.8496c215.04-10.9056 380.5184-119.808 380.5184-244.48 0-17.5616-3.2256-34.9184-9.6256-51.9168a32 32 0 0 1 59.904-22.5792zM87.552 524.4928a32 32 0 0 1 18.432 41.3184c-6.5536 16.896-9.9328 34.816-9.984 52.8384 0 91.648 90.5216 178.2784 233.8304 220.16a32 32 0 0 1-17.92 61.44c-167.68-49.0496-279.9104-156.416-279.9104-281.6 0-25.8048 4.8128-51.2 14.2336-75.7248a32 32 0 0 1 41.3184-18.432zM503.296 14.336a32 32 0 0 1 30.6176 0.512l301.4144 170.7008c2.56 1.4336 4.9664 3.2256 7.0656 5.3248l0.7168 0.8192a27.136 27.136 0 0 1 2.6624 3.328l0.4096 0.512 0.7168 1.1264 0.512 0.9216 0.256 0.512 0.8192 1.536-1.024-2.048c1.0752 2.048 2.048 4.096 2.7136 6.3488l0.2048 0.6656 0.512 2.2528 0.1536 0.6656a27.8016 27.8016 0 0 1 0.512 5.8368l-0.1024-2.9184a32.6144 32.6144 0 0 1 0.1536 2.4576v341.8112a32 32 0 0 1-16.2816 27.8528l-301.4144 170.6496a32 32 0 0 1-30.6176 0.512l-326.144-170.6496a32 32 0 0 1-17.152-28.3648V213.3504c0-11.9296 6.656-22.8352 17.152-28.3648L503.296 14.2336zM224 263.2192v272.0768l262.144 137.216v-269.312L224 263.168z m563.5584 5.0176l-237.4144 134.4v267.776l237.4656-134.4v-267.776zM517.632 79.104L263.68 211.9168l253.952 135.5776 236.9536-134.144-237.056-134.2464z" fill="#000000" p-id="3689"></path></svg>