<?xml version="1.0" standalone="no"?><!DOCTYPE svg PUBLIC "-//W3C//DTD SVG 1.1//EN" "http://www.w3.org/Graphics/SVG/1.1/DTD/svg11.dtd"><svg t="1653447094648" class="icon" viewBox="0 0 1024 1024" version="1.1" xmlns="http://www.w3.org/2000/svg" p-id="3387" xmlns:xlink="http://www.w3.org/1999/xlink" width="200" height="200"><defs><style type="text/css">@font-face { font-family: feedback-iconfont; src: url("//at.alicdn.com/t/font_1031158_u69w8yhxdu.woff2?t=1630033759944") format("woff2"), url("//at.alicdn.com/t/font_1031158_u69w8yhxdu.woff?t=1630033759944") format("woff"), url("//at.alicdn.com/t/font_1031158_u69w8yhxdu.ttf?t=1630033759944") format("truetype"); }
</style></defs><path d="M978.2272 544.1536c9.0624 23.808 13.7216 49.0496 13.7728 74.496 0 167.3728-198.8096 297.6768-446.208 308.5824l31.488 31.488a32 32 0 0 1 2.2016 42.8032l-2.2016 2.4576a32 32 0 0 1-42.8032 2.2016l-2.4576-2.2016-85.2992-85.3504a32 32 0 0 1-2.2016-42.8544l2.2016-2.4064 85.2992-85.3504a32 32 0 0 1 47.4624 42.8544l-2.2016 2.4064-29.7984 29.8496c215.04-10.9056 380.5184-119.808 380.5184-244.48 0-17.5616-3.2256-34.9184-9.6256-51.9168a32 32 0 0 1 59.904-22.5792zM87.552 524.4928a32 32 0 0 1 18.432 41.3184c-6.5536 16.896-9.9328 34.816-9.984 52.8384 0 91.648 90.5216 178.2784 233.8304 220.16a32 32 0 0 1-17.92 61.44c-167.68-49.0496-279.9104-156.416-279.9104-281.6 0-25.8048 4.8128-51.2 14.2336-75.7248a32 32 0 0 1 41.3184-18.432zM533.9136 14.848l301.4144 170.6496c2.56 1.4848 4.9664 3.2768 7.0656 5.4272l0.7168 0.768a27.136 27.136 0 0 1 2.6624 3.328l1.1264 1.6384 0.512 0.9216c1.1264 2.048 2.048 4.096 2.7648 6.3488l0.2048 0.6656 0.512 2.2528 0.1536 0.6656 0.4096 2.9184a32.6144 32.6144 0 0 1 0.1536 2.4576v341.8112a32 32 0 0 1-16.2816 27.8528l-301.4144 170.6496a32 32 0 0 1-30.6176 0.512l-326.144-170.6496a32 32 0 0 1-17.152-28.3648V213.3504c0-11.9296 6.656-22.8352 17.152-28.3648L503.296 14.2336a32 32 0 0 1 30.6176 0.512z m-5.5808 73.1136a25.6512 25.6512 0 0 0-24.5248-0.4096L242.2272 224.3584a25.7024 25.7024 0 0 0-13.824 22.7328v273.7664c0 9.5744 5.3248 18.3296 13.824 22.784L503.808 680.448c7.68 4.0448 16.9472 3.8912 24.576-0.4096l241.664-136.8576a25.6512 25.6512 0 0 0 13.1072-22.3744V246.784l-0.1536-1.9968-0.3072-2.3552-0.1024-0.512a24.32 24.32 0 0 0-0.4096-1.792l-0.2048-0.512a25.9584 25.9584 0 0 0-2.2016-5.12l-0.4096-0.7168-0.5632-0.9216-0.3072-0.4608a21.8112 21.8112 0 0 0-2.1504-2.6112l-0.5632-0.6656a25.7536 25.7536 0 0 0-5.632-4.3008z" fill="#000000" p-id="3388"></path><path d="M361.728 414.464c0 24.9344-19.2 46.08-60.0576 46.08-16.9984 0-33.792-4.4032-42.1888-9.0112l6.8608-27.8016c9.0624 4.608 22.9888 9.216 37.3248 9.216 15.4624 0 23.6544-6.3488 23.6544-16.0768 0-9.2672-7.0656-14.592-24.9856-20.992-24.7296-8.6016-40.8576-22.3232-40.8576-43.9296 0-25.3952 21.248-44.8512 56.32-44.8512 16.7936 0 29.184 3.584 37.9904 7.5264l-7.5264 27.136a70.5536 70.5536 0 0 0-31.1296-7.0656c-14.5408 0-21.6576 6.656-21.6576 14.336 0 9.5232 8.3968 13.7216 27.648 20.992 26.2656 9.728 38.6048 23.4496 38.6048 44.4416z m11.5712-104.96h114.3808v28.3136H446.976v120.5248h-33.792V337.8176h-39.936v-28.2624z m191.488-2.4064c-43.9296 0-72.3968 33.3824-72.3968 77.9776 0 42.3936 25.8048 75.7248 69.9904 75.7248 43.52 0 73.0624-29.5936 73.0624-78.3872 0-41.0624-24.9344-75.264-70.656-75.264z m-0.6656 126.976c-22.528 0-36.1984-20.48-36.1984-49.664 0-28.928 13.2608-50.5856 35.9936-50.5856 23.1936 0 35.9936 22.9888 35.9936 49.7152 0 28.928-13.056 50.5344-35.7888 50.5344z m126.8224 24.32v-53.248c3.072 0.512 7.0656 0.6656 11.52 0.6656 19.8656 0 36.864-4.864 48.3328-15.6672 8.8576-8.3968 13.7216-20.736 13.7216-35.328a43.4688 43.4688 0 0 0-15.9232-34.4576c-9.9328-7.936-24.7296-11.9296-45.4656-11.9296-20.5824 0-35.1232 1.3824-45.5168 3.1232v146.8416h33.3312z m13.9264-124.5696c16.7936 0 26.2656 8.192 26.2656 21.8624 0 15.2576-11.0592 24.2688-28.928 24.2688-4.864 0-8.3968-0.2048-11.264-0.8704v-43.9296a57.856 57.856 0 0 1 13.9264-1.3312z" fill="#000000" p-id="3389"></path></svg>