<?xml version="1.0" standalone="no"?><!DOCTYPE svg PUBLIC "-//W3C//DTD SVG 1.1//EN" "http://www.w3.org/Graphics/SVG/1.1/DTD/svg11.dtd"><svg t="1652254870137" class="icon" viewBox="0 0 1024 1024" version="1.1" xmlns="http://www.w3.org/2000/svg" p-id="2375" xmlns:xlink="http://www.w3.org/1999/xlink" width="200" height="200"><defs><style type="text/css">@font-face { font-family: feedback-iconfont; src: url("//at.alicdn.com/t/font_1031158_u69w8yhxdu.woff2?t=1630033759944") format("woff2"), url("//at.alicdn.com/t/font_1031158_u69w8yhxdu.woff?t=1630033759944") format("woff"), url("//at.alicdn.com/t/font_1031158_u69w8yhxdu.ttf?t=1630033759944") format("truetype"); }
</style></defs><path d="M766.862222 218.567111c13.653333-23.381333 20.935111-50.005333 20.992-77.084444 0-69.859556-48.071111-140.572444-140.060444-140.572445-42.496 0-78.620444 14.791111-107.406222 44.032a192.796444 192.796444 0 0 0-36.408889 54.044445 192.056889 192.056889 0 0 0-35.669334-53.987556C439.694222 15.758222 403.683556 0.910222 361.244444 0.910222c-54.499556 0-87.324444 24.291556-105.301333 44.714667a144.213333 144.213333 0 0 0-34.702222 95.800889c0 27.136 7.281778 53.76 20.878222 77.141333H78.791111C35.271111 218.567111 0 253.838222 0 297.358222v197.518222c0 43.52 35.271111 78.791111 78.791111 78.791112v333.937777a115.484444 115.484444 0 0 0 115.484445 115.484445h635.448888a115.484444 115.484444 0 0 0 115.484445-115.484445v-333.880889c43.52 0 78.791111-35.271111 78.791111-78.791111V282.168889c0-35.100444-28.444444-63.544889-63.544889-63.544889h-193.536z m-178.858666-126.691555c15.985778-16.213333 35.498667-24.120889 59.733333-24.120889 54.044444 0 73.159111 39.708444 73.159111 73.728 0 20.423111-6.826667 40.163556-18.830222 54.044444-13.141333 15.303111-31.288889 23.04-54.215111 23.04l-106.666667-0.853333c4.039111-38.912 16.213333-94.776889 46.762667-125.838222z m-299.918223 49.607111c0-20.138667 6.371556-38.456889 18.033778-51.712 12.856889-14.620444 31.402667-22.072889 55.125333-22.072889 24.007111 0 43.235556 7.793778 58.88 23.779555 30.264889 31.118222 41.813333 87.722667 45.454223 127.089778H361.244444c-57.742222 0-73.159111-48.469333-73.159111-77.084444z m-175.843555 143.928889h274.375111V506.88H112.241778a45.340444 45.340444 0 0 1-45.397334-45.340444V330.808889a45.340444 45.340444 0 0 1 45.397334-45.340445z m33.450666 288.312888h240.924445v382.520889H197.802667a52.110222 52.110222 0 0 1-52.110223-52.110222v-330.410667z m307.768889 382.520889V285.468444h117.077334v670.72H453.518222z m372.736 0h-188.814222v-382.520889h240.924445v330.410667c0 28.728889-23.324444 52.053333-52.110223 52.110222z m85.560889-449.422222h-274.375111V285.468444h274.375111a45.340444 45.340444 0 0 1 45.340445 45.340445v130.673778a45.397333 45.397333 0 0 1-45.340445 45.340444z" fill="#FFFFFF" p-id="2376"></path></svg>