<?xml version="1.0" standalone="no"?><!DOCTYPE svg PUBLIC "-//W3C//DTD SVG 1.1//EN" "http://www.w3.org/Graphics/SVG/1.1/DTD/svg11.dtd"><svg t="1661235031015" class="icon" viewBox="0 0 1325 1024" version="1.1" xmlns="http://www.w3.org/2000/svg" p-id="5325" xmlns:xlink="http://www.w3.org/1999/xlink" width="258.7890625" height="200"><defs><style type="text/css">@font-face { font-family: feedback-iconfont; src: url("//at.alicdn.com/t/font_1031158_u69w8yhxdu.woff2?t=1630033759944") format("woff2"), url("//at.alicdn.com/t/font_1031158_u69w8yhxdu.woff?t=1630033759944") format("woff"), url("//at.alicdn.com/t/font_1031158_u69w8yhxdu.ttf?t=1630033759944") format("truetype"); }
</style></defs><path d="M93.364706 245.458824H385.505882c10.541176 4.517647 18.070588 12.047059 25.6 18.070588h-54.211764v15.058823h72.282353c4.517647 4.517647 10.541176 12.047059 15.058823 18.070589h-87.341176v15.058823h97.882353c3.011765 4.517647 6.023529 12.047059 7.529411 18.070588H171.670588v15.058824h296.658824c1.505882 4.517647 1.505882 12.047059 1.505882 18.070588H171.670588v15.058824h298.164706c0 4.517647-1.505882 12.047059-1.505882 18.070588H171.670588v15.058823h292.141177c-1.505882 4.517647-4.517647 12.047059-7.529412 18.070589h-286.117647v15.058823h277.082353c-4.517647 6.023529-7.529412 12.047059-12.047059 18.070588H171.670588v15.058824h251.482353c-4.517647 6.023529-12.047059 12.047059-18.070588 18.070588h-76.8v15.058824h96.376471c7.529412 4.517647 13.552941 12.047059 19.57647 18.070588h-115.952941v15.058823h128c4.517647 4.517647 7.529412 12.047059 12.047059 18.070589H171.670588v15.058823h302.682353c3.011765 4.517647 4.517647 12.047059 7.529412 18.070588H171.670588v15.058824h314.729412c1.505882 6.023529 1.505882 12.047059 3.011765 18.070588H171.670588v15.058824h317.741177c0 6.023529 0 12.047059-1.505883 18.070588h-316.235294v15.058823h316.235294c-1.505882 4.517647-3.011765 12.047059-4.517647 16.564706H171.670588v15.058824h304.188236c-3.011765 4.517647-6.023529 12.047059-10.541177 18.070588h-106.917647v15.058824h97.882353c-4.517647 4.517647-10.541176 12.047059-16.564706 18.070588h-81.317647v15.058823H421.647059c-9.035294 6.023529-18.070588 12.047059-28.611765 18.070589H91.858824V323.764706l1.505882-78.305882z" fill="#E7A602" p-id="5326"></path><path d="M718.305882 575.247059v140.047059c0 15.058824 1.505882 25.6 4.517647 30.117647 1.505882 4.517647 6.023529 9.035294 10.541177 10.541176v12.047059h-72.282353c-3.011765-9.035294-4.517647-19.576471-6.023529-31.623529-10.541176 12.047059-19.576471 19.576471-28.611765 25.6-4.517647 3.011765-10.541176 4.517647-16.564706 7.529411v-45.17647c10.541176-1.505882 19.576471-6.023529 27.105882-12.047059 10.541176-9.035294 16.564706-22.588235 16.564706-37.647059v-33.129412c-3.011765 1.505882-7.529412 4.517647-15.058823 7.529412-7.529412 1.505882-16.564706 4.517647-30.117647 6.02353v-45.176471l21.082353-3.011765c7.529412-1.505882 12.047059-3.011765 15.058823-4.517647 4.517647-4.517647 7.529412-9.035294 7.529412-15.058823 0-12.047059-4.517647-21.082353-15.058824-25.6-6.023529-3.011765-16.564706-4.517647-28.611764-4.517647h-1.505883v-60.235295h9.035294c25.6 0 46.682353 4.517647 63.247059 12.047059 27.105882 18.070588 39.152941 39.152941 39.152941 66.258824z m-109.929411 194.258823c-10.541176 3.011765-22.588235 4.517647-34.635295 4.517647-21.082353 0-39.152941-4.517647-52.705882-18.070588-16.564706-13.552941-24.094118-33.129412-24.094118-58.729412s6.023529-43.670588 19.576471-57.223529c13.552941-13.552941 31.623529-22.588235 54.211765-25.6l39.152941-4.517647v45.176471l-1.505882 1.505882c-13.552941 1.505882-24.094118 4.517647-30.117647 9.035294-9.035294 6.023529-13.552941 16.564706-13.552942 28.611765 0 10.541176 3.011765 18.070588 10.541177 25.6 4.517647 4.517647 12.047059 6.023529 19.57647 6.023529 4.517647 0 10.541176-1.505882 15.058824-1.505882l-1.505882 45.17647z m0-213.835294c-13.552941 0-24.094118 4.517647-31.62353 12.047059-4.517647 4.517647-7.529412 13.552941-9.035294 24.094118h-63.247059c3.011765-36.141176 16.564706-61.741176 39.152941-75.294118 16.564706-9.035294 37.647059-15.058824 63.247059-15.058823l1.505883 54.211764zM971.294118 587.294118v180.705882h-66.258824V608.376471c0-15.058824-1.505882-25.6-4.517647-33.129412-6.023529-12.047059-19.576471-18.070588-37.647059-18.070588-15.058824 0-27.105882 4.517647-37.647059 15.058823s-15.058824 25.6-15.058823 43.670588v149.082353h-66.258824V504.470588h63.247059v39.152941c10.541176-16.564706 22.588235-28.611765 34.635294-34.635294 12.047059-6.023529 25.6-10.541176 42.164706-10.541176 25.6 0 46.682353 7.529412 63.247059 22.588235 16.564706 16.564706 24.094118 39.152941 24.094118 66.258824zM1066.164706 685.176471V768h-66.258824V415.623529h66.258824v191.247059l84.329412-99.388235h81.317647l-88.847059 100.894118L1234.823529 768h-79.811764l-60.235294-111.435294z" fill="#6D1687" p-id="5327"></path></svg>