<?xml version="1.0" encoding="UTF-8"?>
<svg width="16px" height="16px" viewBox="0 0 16 16" version="1.1" xmlns="http://www.w3.org/2000/svg" xmlns:xlink="http://www.w3.org/1999/xlink">
    <title>分享</title>
    <g id="页面-1" stroke="none" stroke-width="1" fill="none" fill-rule="evenodd">
        <g id="我的-已登录" transform="translate(-40.000000, -929.000000)" fill="#FFFFFF" fill-rule="nonzero">
            <g id="分享" transform="translate(40.000214, 929.000000)">
                <rect id="矩形" opacity="0" x="0" y="0" width="16" height="16"></rect>
                <path d="M13.14288,9.71432 C12.20648,9.71432 11.38336,10.1708 10.86216,10.86608 L6.72824,8.92128 C6.81024,8.62784 6.85712,8.31968 6.85712,8 C6.85712,7.68032 6.81024,7.37224 6.72824,7.07872 L10.86216,5.13392 C11.38336,5.8292 12.20648,6.28568 13.14288,6.28568 C14.72096,6.28568 16,5.00672 16,3.42856 C16,1.8504 14.72096,0.57144 13.14288,0.57144 C11.5648,0.57144 10.2856,1.8504 10.2856,3.42856 C10.2856,3.66136 10.32136,3.88392 10.3732,4.10048 L6.24272,6.044 C5.62328,5.15448 4.59488,4.57136 3.42856,4.57136 C1.53464,4.57144 0,6.106 0,8 C0,9.894 1.53464,11.42856 3.42856,11.42856 C4.59488,11.42856 5.62328,10.84536 6.24272,9.95592 L10.37328,11.89952 C10.32144,12.11608 10.28568,12.33872 10.28568,12.57144 C10.28568,14.14952 11.56472,15.42856 13.14288,15.42856 C14.72104,15.42856 16,14.1496 16,12.57144 C16,10.99328 14.72096,9.71432 13.14288,9.71432 Z M13.14288,1.71432 C14.08816,1.71432 14.85712,2.48328 14.85712,3.42856 C14.85712,4.37384 14.08816,5.14288 13.14288,5.14288 C12.1976,5.14288 11.42856,4.37392 11.42856,3.42856 C11.42856,2.4832 12.19752,1.71432 13.14288,1.71432 Z M3.42856,10.2856 C2.16856,10.2856 1.14288,9.26 1.14288,7.99992 C1.14288,6.73984 2.16848,5.71424 3.42856,5.71424 C4.68864,5.71424 5.7144,6.73992 5.7144,8 C5.7144,9.26008 4.68872,10.28568 3.42864,10.28568 L3.42856,10.2856 Z M13.14288,14.2856 C12.19752,14.2856 11.42856,13.51664 11.42856,12.57136 C11.42856,11.62608 12.19752,10.85704 13.14288,10.85704 C14.08824,10.85704 14.85712,11.626 14.85712,12.57136 C14.85712,13.51672 14.08816,14.2856 13.14288,14.2856 Z" id="形状"></path>
            </g>
        </g>
    </g>
</svg>