<?xml version="1.0" encoding="UTF-8"?>
<svg width="16px" height="16px" viewBox="0 0 16 16" version="1.1" xmlns="http://www.w3.org/2000/svg" xmlns:xlink="http://www.w3.org/1999/xlink">
    <title>star</title>
    <g id="页面-1" stroke="none" stroke-width="1" fill="none" fill-rule="evenodd">
        <g id="我的-已登录" transform="translate(-40.000000, -533.000000)" fill="#FFFFFF" fill-rule="nonzero">
            <g id="star" transform="translate(40.000214, 532.999929)">
                <rect id="矩形" opacity="0" x="0" y="0" width="16" height="16"></rect>
                <path d="M15.4003718,5.76537524 L10.6567532,5.07597183 L8.5362305,0.777009103 C8.47831314,0.659306082 8.38302974,0.564022684 8.26532672,0.506105324 C7.97013502,0.360377774 7.61142105,0.481817399 7.4638252,0.777009103 L5.34330251,5.07597183 L0.599683925,5.76537524 C0.468902791,5.78405826 0.349331467,5.84571223 0.257784673,5.93912732 C0.0279835363,6.17640167 0.0317201401,6.55379865 0.268994485,6.78546809 L3.70106512,10.1315968 L2.89022208,14.8565324 C2.86780246,14.9854452 2.88835378,15.119963 2.95000775,15.2357977 C3.1032085,15.5272528 3.46565908,15.6412192 3.75711418,15.4861502 L8.00002785,13.2553977 L12.2429415,15.4861502 C12.3587762,15.5478041 12.493294,15.5683554 12.6222068,15.5459358 C12.9472913,15.4898868 13.1658827,15.1816169 13.1098336,14.8565324 L12.2989906,10.1315968 L15.7310612,6.78546809 C15.8244763,6.6939213 15.8861303,6.57434998 15.9048133,6.44356884 C15.9552574,6.116616 15.7273246,5.81395109 15.4003718,5.76537524 Z M10.8547932,9.66078476 L11.5292502,13.5898237 L8.00002785,11.7364682 L4.47080551,13.591692 L5.14526251,9.66265306 L2.29049717,6.87888319 L6.23635083,6.3053145 L8.00002785,2.73125292 L9.76370487,6.3053145 L13.7095585,6.87888319 L10.8547932,9.66078476 Z" id="形状"></path>
            </g>
        </g>
    </g>
</svg>