<?xml version="1.0" standalone="no"?><!DOCTYPE svg PUBLIC "-//W3C//DTD SVG 1.1//EN" "http://www.w3.org/Graphics/SVG/1.1/DTD/svg11.dtd"><svg t="1661248194389" class="icon" viewBox="0 0 1109 1024" version="1.1" xmlns="http://www.w3.org/2000/svg" p-id="4398" xmlns:xlink="http://www.w3.org/1999/xlink" width="216.6015625" height="200"><defs><style type="text/css">@font-face { font-family: feedback-iconfont; src: url("//at.alicdn.com/t/font_1031158_u69w8yhxdu.woff2?t=1630033759944") format("woff2"), url("//at.alicdn.com/t/font_1031158_u69w8yhxdu.woff?t=1630033759944") format("woff"), url("//at.alicdn.com/t/font_1031158_u69w8yhxdu.ttf?t=1630033759944") format("truetype"); }
</style></defs><path d="M876.373333 761.173333V340.821333c0-82.773333-67.157333-149.76-149.76-149.76H193.194667C110.506667 191.146667 43.52 258.133333 43.52 340.906667v533.333333c0 82.773333 66.986667 149.76 149.674667 149.76h533.333333c82.773333 0 149.76-67.072 149.76-149.674667V832.853333h1.194667v-72.021333c-0.426667 0-0.682667 0.170667-1.194667 0.256z m-123.733333-22.869333v56.832l-0.256 3.498667a105.130667 105.130667 0 0 1-104.96 101.802666H272.213333a105.216 105.216 0 0 1-105.216-105.301333V420.010667c0-56.32 44.373333-101.973333 100.096-104.789334 1.706667-0.085333 3.413333-0.512 5.12-0.512h375.125334c58.197333 0 105.216 47.189333 105.216 105.301334v318.293333z m312.746667-168.277333V149.76C1065.386667 66.986667 998.314667 0 915.626667 0H382.378667c-82.773333 0-149.76 66.986667-149.76 149.76v5.973333h153.429333c17.92-18.432 42.666667-30.293333 70.144-31.658666 1.706667-0.085333 3.498667-0.512 5.205333-0.512H836.437333c58.282667 0 105.301333 47.189333 105.301334 105.301333v375.125333l-0.256 3.498667c-1.194667 34.56-18.944 64.853333-45.568 83.2V832.853333h19.712c82.773333 0 149.76-67.072 149.76-149.674666V641.706667h1.194666v-72.021334c-0.426667 0-0.682667 0.170667-1.194666 0.341334z" fill="#cccccc" p-id="4399"></path></svg>