<?xml version="1.0" standalone="no"?><!DOCTYPE svg PUBLIC "-//W3C//DTD SVG 1.1//EN" "http://www.w3.org/Graphics/SVG/1.1/DTD/svg11.dtd"><svg t="1653644317136" class="icon" viewBox="0 0 1024 1024" version="1.1" xmlns="http://www.w3.org/2000/svg" p-id="4403" xmlns:xlink="http://www.w3.org/1999/xlink" width="200" height="200"><defs><style type="text/css">@font-face { font-family: feedback-iconfont; src: url("//at.alicdn.com/t/font_1031158_u69w8yhxdu.woff2?t=1630033759944") format("woff2"), url("//at.alicdn.com/t/font_1031158_u69w8yhxdu.woff?t=1630033759944") format("woff"), url("//at.alicdn.com/t/font_1031158_u69w8yhxdu.ttf?t=1630033759944") format("truetype"); }
</style></defs><path d="M833.536 761.1392V340.8896c0-82.7392-66.9696-149.8112-149.6064-149.8112H150.528c-82.7392 0-149.7088 67.072-149.7088 149.8112v533.504C0.8192 956.8256 67.7888 1024 150.528 1024H684.032c82.7392 0 149.7088-67.072 149.7088-149.7088v-41.3696h1.1264V760.832c-0.4096 0-0.6144 0.2048-1.1264 0.3072zM710.144 738.304v56.832l-0.3072 3.4816c-1.9456 56.5248-48.128 101.7856-105.0624 101.7856H229.6832c-58.1632 0-105.2672-47.104-105.2672-105.2672V419.84c0-56.32 44.3392-101.9904 100.0448-104.7552 1.7408 0 3.4816-0.512 5.12-0.512H604.7744c58.2656 0 105.3696 47.2064 105.3696 105.2672V738.304z m312.6272-168.3456V149.8112C1022.6688 67.072 955.5968 0 872.96 0H339.6608c-82.7392 0-149.7088 67.072-149.7088 149.8112v5.9392h153.3952c18.0224-18.432 42.7008-30.3104 70.2464-31.744 1.6384 0 3.3792-0.4096 5.12-0.4096H793.8048c58.1632 0 105.2672 47.104 105.2672 105.2672V603.9552c0 1.1264-0.3072 2.3552-0.3072 3.584a105.2672 105.2672 0 0 1-45.568 83.1488v142.1312h19.7632c82.7392 0 149.7088-66.9696 149.7088-149.6064v-41.472H1024v-72.0896l-1.2288 0.3072z" fill="#6667AB" p-id="4404"></path></svg>