<?xml version="1.0" encoding="UTF-8"?>
<svg width="16px" height="16px" viewBox="0 0 16 16" version="1.1" xmlns="http://www.w3.org/2000/svg" xmlns:xlink="http://www.w3.org/1999/xlink">
    <title>银行卡</title>
    <g id="页面-1" stroke="none" stroke-width="1" fill="none" fill-rule="evenodd">
        <g id="个人中心-银行卡" transform="translate(-40.000000, -527.000000)" fill="#FFFFFF" fill-rule="nonzero">
            <g id="银行卡" transform="translate(40.000428, 527.000000)">
                <rect id="矩形" opacity="0" x="0" y="0" width="16" height="16"></rect>
                <path d="M14.8,5.80000001 L1.2,5.80000001 L1.2,12.8 C1.2,13.0652165 1.30535684,13.3195704 1.49289322,13.5071068 C1.6804296,13.6946432 1.93478352,13.8 2.2,13.8 L13.8,13.8 C14.0652165,13.8 14.3195704,13.6946432 14.5071068,13.5071068 C14.6946432,13.3195704 14.8,13.0652165 14.8,12.8 L14.8,5.80000001 Z M1.2,4.60000001 L14.8,4.60000001 L14.8,3.20000001 C14.8,2.93478351 14.6946432,2.6804296 14.5071068,2.49289322 C14.3195704,2.30535684 14.0652165,2.20000001 13.8,2.20000001 L2.2,2.20000001 C1.93478352,2.20000001 1.6804296,2.30535684 1.49289322,2.49289322 C1.30535684,2.6804296 1.2,2.93478351 1.2,3.20000001 L1.2,4.60000001 Z M12.6,11 C12.9313708,11 13.2,11.2686291 13.2,11.6 C13.2,11.9313708 12.9313708,12.2 12.6,12.2 L10.6,12.2 C10.2686292,12.2 10,11.9313708 10,11.6 C10,11.2686291 10.2686292,11 10.6,11 L12.6,11 Z M2.20000001,1.00000001 L13.8,1.00000001 C15.015,1.00000001 16,1.985 16,3.2 L16,12.8 C16,14.015 15.015,15 13.8,15 L2.20000001,15 C0.985000012,15 0,14.015 0,12.8 L0,3.2 C0,1.985 0.984999993,1.00000001 2.20000001,1.00000001 Z" id="形状"></path>
            </g>
        </g>
    </g>
</svg>