<?xml version="1.0" standalone="no"?><!DOCTYPE svg PUBLIC "-//W3C//DTD SVG 1.1//EN" "http://www.w3.org/Graphics/SVG/1.1/DTD/svg11.dtd"><svg t="1653648269742" class="icon" viewBox="0 0 1024 1024" version="1.1" xmlns="http://www.w3.org/2000/svg" p-id="7126" xmlns:xlink="http://www.w3.org/1999/xlink" width="200" height="200"><defs><style type="text/css">@font-face { font-family: feedback-iconfont; src: url("//at.alicdn.com/t/font_1031158_u69w8yhxdu.woff2?t=1630033759944") format("woff2"), url("//at.alicdn.com/t/font_1031158_u69w8yhxdu.woff?t=1630033759944") format("woff"), url("//at.alicdn.com/t/font_1031158_u69w8yhxdu.ttf?t=1630033759944") format("truetype"); }
</style></defs><path d="M985.6 368.96l-303.552-44.096L546.368 49.728a38.4 38.4 0 0 0-68.608 0L341.952 324.864 38.4 369.024a38.208 38.208 0 0 0-21.12 65.28L236.8 648.384l-51.84 302.4a38.208 38.208 0 0 0 55.488 40.32L512 848.256l271.552 142.784a38.208 38.208 0 0 0 55.488-40.32l-51.84-302.336 219.584-214.208a38.144 38.144 0 0 0-21.12-65.28z m-290.88 249.344l43.136 251.456L512 751.104l-225.856 118.784 43.136-251.52L146.624 440.32l252.544-36.736L512 174.784l112.896 228.736 252.544 36.736-182.72 178.048z" fill="#FFFFFF" p-id="7127"></path></svg>