<?xml version="1.0" standalone="no"?><!DOCTYPE svg PUBLIC "-//W3C//DTD SVG 1.1//EN" "http://www.w3.org/Graphics/SVG/1.1/DTD/svg11.dtd"><svg t="1653648491705" class="icon" viewBox="0 0 1024 1024" version="1.1" xmlns="http://www.w3.org/2000/svg" p-id="7577" xmlns:xlink="http://www.w3.org/1999/xlink" width="200" height="200"><defs><style type="text/css">@font-face { font-family: feedback-iconfont; src: url("//at.alicdn.com/t/font_1031158_u69w8yhxdu.woff2?t=1630033759944") format("woff2"), url("//at.alicdn.com/t/font_1031158_u69w8yhxdu.woff?t=1630033759944") format("woff"), url("//at.alicdn.com/t/font_1031158_u69w8yhxdu.ttf?t=1630033759944") format("truetype"); }
</style></defs><path d="M839.935795 1023.99936H186.496203a158.143901 158.143901 0 0 1-158.463901-158.463901V490.047694a158.143901 158.143901 0 0 1 158.463901-158.463901h651.007594a158.143901 158.143901 0 0 1 158.463901 158.463901v375.487765c0 87.743945-70.719956 158.463901-156.031903 158.463901zM186.496203 404.735747a86.399946 86.399946 0 0 0-85.311946 85.311947v375.487765c0 46.335971 39.039976 85.311947 85.311946 85.311947h651.007594a86.399946 86.399946 0 0 0 85.311946-85.311947V490.047694a86.399946 86.399946 0 0 0-85.311946-85.311947H186.496203z m636.351603-31.67998h-73.151955V307.199808A235.199853 235.199853 0 0 0 513.279999 70.719956 235.199853 235.199853 0 0 0 276.736147 307.199808v65.855959H203.584193V307.199808C203.584193 138.943913 342.592106 0 513.279999 0a310.079806 310.079806 0 0 1 309.631807 309.631806v63.359961z m-273.02383 451.007718H476.672022a109.247932 109.247932 0 0 1-109.695931-109.695931v-73.151955c0-60.927962 48.70397-109.695931 109.695931-109.695931H549.759976c60.927962 0 109.695931 48.76797 109.695932 109.695931v73.151955c0 60.927962-48.76797 109.695931-109.695932 109.695931zM476.672022 604.671622a37.503977 37.503977 0 0 0-36.607977 36.543977v73.151955c0 19.519988 17.087989 36.543977 36.607977 36.543977H549.759976a37.503977 37.503977 0 0 0 36.543978-36.543977v-73.151955a37.503977 37.503977 0 0 0-36.543978-36.543977H476.672022z" fill="#FFFFFF" p-id="7578"></path></svg>