<?xml version="1.0" encoding="UTF-8"?>
<svg width="17px" height="16px" viewBox="0 0 17 16" version="1.1" xmlns="http://www.w3.org/2000/svg" xmlns:xlink="http://www.w3.org/1999/xlink">
    <title>客服 客服中心</title>
    <g id="页面-1" stroke="none" stroke-width="1" fill="none" fill-rule="evenodd">
        <g id="我的-已登录" transform="translate(-40.000000, -599.000000)" fill="#FFFFFF" fill-rule="nonzero">
            <g id="客服-客服中心" transform="translate(40.591517, 599.000000)">
                <rect id="矩形" opacity="0" x="0" y="0" width="16" height="16"></rect>
                <g id="编组" transform="translate(0.085395, 0.000000)">
                    <path d="M1.80706977,11.4792558 L0.558139535,11.4792558 C0.249860465,11.4792558 0,11.2292093 0,10.9211163 L0,6.81525581 C0,6.50697674 0.249860465,6.25711628 0.558139535,6.25711628 L1.80706977,6.25711628 C2.93544186,6.25711628 3.8535814,7.17525581 3.8535814,8.30362791 L3.8535814,9.43274419 C3.8535814,10.5611163 2.93562791,11.4792558 1.80706977,11.4792558 Z M1.11627907,10.3629767 L1.80706977,10.3629767 C2.32,10.3629767 2.73730233,9.94586047 2.73730233,9.43274419 L2.73730233,8.30362791 C2.73730233,7.79069767 2.32,7.37339535 1.80706977,7.37339535 L1.11627907,7.37339535 L1.11627907,10.3629767 Z M15.2710698,11.8212093 L14.0221395,11.8212093 C12.8939535,11.8212093 11.9756279,10.9028837 11.9756279,9.77469767 L11.9756279,8.64576744 C11.9756279,7.51739535 12.8939535,6.59925581 14.0221395,6.59925581 L15.2710698,6.59925581 C15.5791628,6.59925581 15.8292093,6.84911628 15.8292093,7.15739535 L15.8292093,11.2630698 C15.8292093,11.5711628 15.5791628,11.8212093 15.2710698,11.8212093 L15.2710698,11.8212093 Z M14.0221395,7.71553488 C13.5090233,7.71553488 13.091907,8.13283721 13.091907,8.64576744 L13.091907,9.77469767 C13.091907,10.287814 13.5090233,10.7049302 14.0221395,10.7049302 L14.7129302,10.7049302 L14.7129302,7.71553488 L14.0221395,7.71553488 Z M7.91460465,16 C7.13525581,16 6.50102326,15.3659535 6.50102326,14.5864186 C6.50102326,13.8068837 7.13506977,13.1728372 7.91460465,13.1728372 C8.69413953,13.1728372 9.32818605,13.8068837 9.32818605,14.5864186 C9.32818605,15.3659535 8.69395349,16 7.91460465,16 Z M7.91460465,14.2893023 C7.75069767,14.2893023 7.61730233,14.4226977 7.61730233,14.5866047 C7.61730233,14.7505116 7.75069767,14.8837209 7.91460465,14.8837209 C8.07851163,14.8837209 8.21190698,14.7503256 8.21190698,14.5864186 C8.21190698,14.4225116 8.07832558,14.2893023 7.91460465,14.2893023 Z" id="形状"></path>
                    <path d="M15.2710698,7.95925581 C14.9629767,7.95925581 14.7129302,7.70939535 14.7129302,7.40111628 C14.7129302,3.93562791 11.6630698,1.11627907 7.91460465,1.11627907 C4.16613953,1.11627907 1.11646512,3.93562791 1.11646512,7.40111628 C1.11646512,7.70939535 0.866604651,7.95925581 0.558325581,7.95925581 C0.250046512,7.95925581 0.000186046512,7.70939535 0.000186046512,7.40111628 C1.73438466e-13,3.32018605 3.55051163,0 7.91460465,0 C12.2786977,0 15.8292093,3.32018605 15.8292093,7.40111628 C15.8292093,7.70939535 15.5791628,7.95925581 15.2710698,7.95925581 Z M9.24334884,15.1689302 C8.97488372,15.1689302 8.77432558,15.1551628 8.66772093,15.1350698 C8.36465116,15.0786977 8.16483721,14.7873488 8.2212093,14.4842791 C8.2775814,14.1812093 8.56818605,13.979907 8.872,14.0377674 C9.26511628,14.1112558 12.2688372,14.0264186 13.8301395,12.7285581 C14.423814,12.2351628 14.7127442,11.643907 14.7127442,10.9211163 C14.7127442,10.6130233 14.9627907,10.3629767 15.2708837,10.3629767 C15.5789767,10.3629767 15.8290233,10.6130233 15.8290233,10.9211163 C15.8290233,11.9810233 15.3966512,12.8783256 14.543814,13.5871628 C12.9763721,14.8898605 10.4377674,15.1689302 9.24334884,15.1689302 L9.24334884,15.1689302 Z" id="形状"></path>
                </g>
            </g>
        </g>
    </g>
</svg>