<?xml version="1.0" standalone="no"?><!DOCTYPE svg PUBLIC "-//W3C//DTD SVG 1.1//EN" "http://www.w3.org/Graphics/SVG/1.1/DTD/svg11.dtd"><svg t="1654073867933" class="icon" viewBox="0 0 1024 1024" version="1.1" xmlns="http://www.w3.org/2000/svg" p-id="2112" xmlns:xlink="http://www.w3.org/1999/xlink" width="200" height="200"><defs><style type="text/css">@font-face { font-family: feedback-iconfont; src: url("//at.alicdn.com/t/font_1031158_u69w8yhxdu.woff2?t=1630033759944") format("woff2"), url("//at.alicdn.com/t/font_1031158_u69w8yhxdu.woff?t=1630033759944") format("woff"), url("//at.alicdn.com/t/font_1031158_u69w8yhxdu.ttf?t=1630033759944") format("truetype"); }
</style></defs><path d="M512 32v75.776H145.664a37.888 37.888 0 0 0-37.76 34.24l-0.128 3.648v732.672c0 19.648 15.04 35.84 34.24 37.76l3.648 0.128h732.672c19.648 0 35.84-15.04 37.76-34.24l0.128-3.648V512H992v366.336c0 60.992-48 110.72-108.352 113.536l-5.312 0.128H145.664c-60.992 0-110.72-48-113.536-108.352L32 878.336V145.664C32 84.672 80 34.944 140.352 32.128L145.664 32H512z m480 0v353.664h-75.776V161.344L538.816 538.816 485.12 485.12l377.408-377.408H638.336V32H992z" fill="#000000" p-id="2113"></path></svg>