<?xml version="1.0" encoding="UTF-8"?>
<svg width="25px" height="24px" viewBox="0 0 25 24" version="1.1" xmlns="http://www.w3.org/2000/svg" xmlns:xlink="http://www.w3.org/1999/xlink">
    <title>签到</title>
    <g id="页面-1" stroke="none" stroke-width="1" fill="none" fill-rule="evenodd">
        <g id="我的-已登录" transform="translate(-287.000000, -112.000000)" fill="#FFFFFF" fill-rule="nonzero">
            <g id="签到" transform="translate(287.929625, 112.000000)">
                <rect id="矩形" opacity="0" x="0" y="0" width="24" height="24"></rect>
                <path d="M24,8.296875 C24,8.2546875 23.9953125,8.2125 23.9882812,8.1703125 L23.9882812,3.703125 C23.9882812,2.4890625 22.9992187,1.5 21.7851562,1.5 L18.703125,1.5 L18.703125,0.703125 C18.703125,0.31640625 18.3867188,0 18,0 C17.6132812,0 17.296875,0.31640625 17.296875,0.703125 L17.296875,1.5 L6.703125,1.5 L6.703125,0.703125 C6.703125,0.31640625 6.38671875,0 6,0 C5.61328125,0 5.296875,0.31640625 5.296875,0.703125 L5.296875,1.5 L2.21484375,1.5 C1.00078125,1.5 0.01171875,2.4890625 0.01171875,3.703125 L0.01171875,8.1703125 C0.0046875,8.2125 0,8.2546875 0,8.296875 C0,8.3390625 0.0046875,8.38125 0.01171875,8.4234375 L0.01171875,21.796875 C0.01171875,23.0109375 1.00078125,24 2.21484375,24 L21.7851562,24 C22.9992187,24 23.9882812,23.0109375 23.9882812,21.796875 L23.9882812,8.4234375 C23.9953125,8.38125 24,8.3390625 24,8.296875 Z M2.21484375,2.90625 L5.296875,2.90625 L5.296875,3.796875 C5.296875,4.18359375 5.61328125,4.5 6,4.5 C6.38671875,4.5 6.703125,4.18359375 6.703125,3.796875 L6.703125,2.90625 L17.296875,2.90625 L17.296875,3.796875 C17.296875,4.18359375 17.6132812,4.5 18,4.5 C18.3867188,4.5 18.703125,4.18359375 18.703125,3.796875 L18.703125,2.90625 L21.7851562,2.90625 C22.2234375,2.90625 22.5820312,3.26484375 22.5820312,3.703125 L22.5820312,7.59375 L1.41796875,7.59375 L1.41796875,3.703125 C1.41796875,3.26484375 1.7765625,2.90625 2.21484375,2.90625 Z M21.7851562,22.59375 L2.21484375,22.59375 C1.7765625,22.59375 1.41796875,22.2351563 1.41796875,21.796875 L1.41796875,9 L22.5820312,9 L22.5820312,21.796875 C22.5820312,22.2351563 22.2234375,22.59375 21.7851562,22.59375 Z" id="形状"></path>
                <path d="M16.3429687,11.990625 L10.4085937,17.925 L7.65703125,15.1734375 C7.3828125,14.8992188 6.93515625,14.8992188 6.66328125,15.1734375 C6.3890625,15.4476563 6.3890625,15.8953125 6.66328125,16.1671875 L9.91171875,19.415625 C10.0898437,19.59375 10.340625,19.6546875 10.5703125,19.603125 C10.575,19.603125 10.5796875,19.6007813 10.584375,19.6007813 C10.7039062,19.5703125 10.8140625,19.509375 10.9078125,19.4179688 L17.3367187,12.984375 C17.6109375,12.7101563 17.6109375,12.2625 17.3367187,11.990625 C17.0625,11.7164063 16.6148437,11.7164063 16.3429687,11.990625 L16.3429687,11.990625 Z" id="路径"></path>
            </g>
        </g>
    </g>
</svg>