<?xml version="1.0" encoding="UTF-8"?>
<svg width="41px" height="40px" viewBox="0 0 41 40" version="1.1" xmlns="http://www.w3.org/2000/svg" xmlns:xlink="http://www.w3.org/1999/xlink">
    <title>编组 4</title>
    <g id="页面-1" stroke="none" stroke-width="1" fill="none" fill-rule="evenodd">
        <g id="签到页面" transform="translate(-117.000000, -574.000000)">
            <g id="编组-4" transform="translate(117.333333, 574.000000)">
                <circle id="椭圆形备份-4" fill="#9C76F2" cx="20" cy="20" r="20"></circle>
                <circle id="椭圆形备份-4" fill="#C8BEDD" opacity="0.697930472" cx="20" cy="20" r="16"></circle>
                <g id="礼物" transform="translate(10.340743, 11.267848)" fill-rule="nonzero">
                    <rect id="矩形" fill="#000000" opacity="0" x="0" y="6.9345333e-08" width="17.4643029" height="17.4643029"></rect>
                    <path d="M0.305029178,3.86508553 L19.0134854,3.86508553 C19.1812514,3.86508553 19.3185145,4.00234866 19.3185145,4.17011471 L19.3185145,7.81012955 C19.3185145,7.9778956 19.1812514,8.11515872 19.0134854,8.11515872 L0.305029178,8.11515872 C0.137263128,8.11515872 0,7.9778956 0,7.81012955 L0,4.17011471 C0,4.00234866 0.137263128,3.86508553 0.305029178,3.86508553 Z" id="路径" fill="#E6505C"></path>
                    <path d="M2.42752387,8.11515872 L16.8909907,8.11515872 C17.0028347,8.11515872 17.0943435,8.20666748 17.0943435,8.31851152 L17.0943435,17.2609502 C17.0943435,17.3727942 17.0028347,17.464303 16.8909907,17.464303 L2.42752387,17.464303 C2.31567983,17.464303 2.22417108,17.3727942 2.22417108,17.2609502 L2.22417108,8.31851152 C2.22417108,8.20666748 2.31567983,8.11515872 2.42752387,8.11515872 Z" id="路径" fill="#FF6174"></path>
                    <path d="M4.40767161,2.73901948 C4.40767161,2.73901948 2.19112626,2.31197862 1.74883395,2.15946404 L2.53174216,3.28553008 L1.11844031,3.84729215 C1.11844031,3.84729215 4.42546497,4.45989242 7.98922253,3.93117518 L6.2734334,3.15335077 L4.40767161,2.73901948 Z M6.00144906,0.0573046257 C4.875383,-0.143506257 4.33904004,0.247947856 4.33904004,0.247947873 L4.03146895,2.19250887 C4.03146895,2.19250887 4.82708672,1.65108209 5.77013527,1.88493779 C6.99787771,2.19250887 8.53319124,3.93117518 8.53319124,3.93117518 L8.53319124,2.60175635 C8.53319124,2.60175635 7.52659495,0.329288972 6.00144906,0.0573046257 Z M16.8782811,3.28553008 L17.6637313,2.15946404 C17.221439,2.31197862 15.0048936,2.73901948 15.0048936,2.73901948 L13.1391318,3.15335077 L11.4233427,3.93371709 C14.9871002,4.46243433 18.2941249,3.84729215 18.2941249,3.84729215 L16.8782811,3.28553008 Z M15.3785543,2.19250887 L15.0735252,0.250489782 C15.0735252,0.250489782 14.5371822,-0.140964331 13.4111161,0.0598465346 C11.8859703,0.331830881 10.879374,2.60429826 10.879374,2.60429826 L10.879374,3.93371709 C10.879374,3.93371709 12.4121456,2.19505078 13.639888,1.8874797 C14.5803947,1.65108209 15.3785543,2.19250887 15.3785543,2.19250887 Z" id="形状" fill="#FFCA3E"></path>
                    <polygon id="路径" fill="#FFCA3E" points="8.38830236 2.41365503 10.9302122 2.41365503 10.9302122 17.464303 8.38830236 17.464303"></polygon>
                    <polygon id="路径" fill="#F2AB21" points="8.38830236 8.18633221 10.9302122 8.18633221 10.9302122 17.464303 8.38830236 17.464303"></polygon>
                    <path d="M6.60388169,2.18234122 C5.49560901,1.54177994 4.17889973,1.75784228 4.03401086,2.19505078 C3.87387053,2.67547174 4.65932067,3.1863956 5.79555436,3.7812025 C6.54287584,4.17265662 8.53573314,3.93371709 8.53573314,3.93371709 C8.53573314,3.93371709 7.71215436,2.82036059 6.60388169,2.18234122 L6.60388169,2.18234122 Z M15.3785543,2.19250887 C15.2336655,1.75530039 13.9169562,1.53923805 12.8086835,2.17979931 C11.7004108,2.82036058 10.8768321,3.93117518 10.8768321,3.93117518 C10.8768321,3.93117518 12.8722313,4.17011469 13.6170108,3.7786606 C14.7532445,3.18639562 15.5386947,2.67292983 15.3785543,2.19250887 Z" id="形状" fill="#F2AB21"></path>
                </g>
            </g>
        </g>
    </g>
</svg>