<?xml version="1.0" encoding="UTF-8"?>
<svg width="14px" height="14px" viewBox="0 0 14 14" version="1.1" xmlns="http://www.w3.org/2000/svg" xmlns:xlink="http://www.w3.org/1999/xlink">
    <title>疑问</title>
    <g id="页面-1" stroke="none" stroke-width="1" fill="none" fill-rule="evenodd">
        <g id="签到页面" transform="translate(-278.000000, -506.000000)" fill="#FFFFFF" fill-rule="nonzero">
            <g id="疑问" transform="translate(278.000000, 506.000000)">
                <rect id="矩形" opacity="0" x="0" y="0" width="14" height="14"></rect>
                <path d="M7,0.823999996 C10.4093115,0.827857622 13.1721424,3.59068854 13.176,7 C13.1721424,10.4093115 10.4093115,13.1721424 7,13.176 C3.59068854,13.1721424 0.827857622,10.4093115 0.823999996,7 C0.82840735,3.59091664 3.59091664,0.82840735 7,0.823999996 Z M7,0 C3.13400675,0 0,3.13400675 0,7 C0,10.8659932 3.13400675,14 7,14 C10.8659932,14 14,10.8659932 14,7 C14,3.13400675 10.8659932,0 7,0 Z M6.413,10.302 C6.413,10.6261911 6.67580885,10.889 7,10.889 C7.32419115,10.889 7.587,10.6261911 7.587,10.302 C7.587,9.97780885 7.32419115,9.715 7,9.715 C6.67580885,9.715 6.413,9.97780885 6.413,10.302 L6.413,10.302 Z M6.914,8.981 C6.6868493,8.98044866 6.50299933,8.79615136 6.503,8.569 C6.503,6.949 7.94,6.267 7.947,6.264 C8.30000001,5.983 8.504,5.678 8.456,5.234 C8.422,4.914 8.06700001,4.516 7.582,4.41399999 C7.077,4.298 6.442,4.466 6.12,4.74900001 C5.705,5.11400001 5.68700001,5.67 5.68700001,5.676 C5.68212431,5.89979596 5.49984669,6.07896909 5.276,6.07999999 L5.27,6.07999999 C5.04418459,6.0772554 4.86288438,5.89282933 4.86399488,5.66699999 C4.86399488,5.62999999 4.878,4.753 5.565,4.14000001 C6.078,3.682 6.897,3.41 7.833,3.626 C9.458,4.16899999 9.34100001,5.34 9.214,5.77199999 C9.094,6.186 8.87900001,6.677 8.269,7.016 L8.27099999,7.021 C8.23399999,7.03800001 7.327,7.483 7.327,8.568 C7.327,8.7960936 7.1420936,8.981 6.914,8.981 Z" id="形状"></path>
            </g>
        </g>
    </g>
</svg>