<?xml version="1.0" encoding="UTF-8"?>
<svg width="51px" height="24px" viewBox="0 0 51 24" version="1.1" xmlns="http://www.w3.org/2000/svg" xmlns:xlink="http://www.w3.org/1999/xlink">
    <title>编组 6</title>
    <g id="页面-1" stroke="none" stroke-width="1" fill="none" fill-rule="evenodd">
        <g id="签到页面" transform="translate(-207.000000, -545.000000)">
            <g id="编组-6" transform="translate(207.666667, 545.000000)">
                <path d="M9.71107716,19.4221543 C4.34779734,19.4221543 6.56812347e-16,15.074357 0,9.71107716 C-6.56812347e-16,4.34779734 4.34779734,-7.9113832e-16 9.71107716,0 L40.2889228,0 C45.6522027,-2.76157536e-15 50,4.34779734 50,9.71107716 C50,15.074357 45.6522027,19.4221543 40.2889228,19.4221543 L29.5619792,19.4221543 L25,24 L20.4380208,19.4221543 L9.71107716,19.4221543 Z" id="形状结合备份" fill="#444444"></path>
                <g id="领取奖励备份-3" transform="translate(5.330000, 5.011573)" fill="#888888" fill-rule="nonzero">
                    <path d="M4.37,0.41 L4.37,1.09 L6.41,1.09 C6.37,1.47 6.31,1.83 6.23,2.19 L4.8,2.19 L4.8,6.99 L5.51,6.99 L5.51,2.85 L8.1,2.85 L8.1,6.91 L8.8,6.91 L8.8,2.19 L6.93,2.19 C7.01,1.83 7.07,1.47 7.12,1.09 L9.11,1.09 L9.11,0.41 L4.37,0.41 Z M7.55,6.94 L7.06,7.41 C7.78,8.04 8.35,8.64 8.76,9.2 L9.27,8.69 C8.8,8.11 8.23,7.52 7.55,6.94 Z M6.45,3.51 L6.45,5.23 C6.43,6.1 6.27,6.8 5.97,7.34 C5.65,7.86 5.08,8.28 4.27,8.59 L4.65,9.2 C5.51,8.86 6.13,8.39 6.51,7.8 C6.9,7.16 7.11,6.3 7.13,5.23 L7.13,3.51 L6.45,3.51 Z M2.05,0.08 C1.43,1.19 0.75,2.16 0,2.98 L0.41,3.56 C1.16,2.72 1.82,1.79 2.39,0.77 C2.87,1.35 3.44,2.13 4.09,3.11 L4.57,2.6 C3.93,1.71 3.27,0.87 2.59,0.08 L2.05,0.08 Z M0.57,4.45 L0.57,5.12 L3.38,5.12 C3,5.86 2.61,6.51 2.2,7.06 C1.89,6.79 1.57,6.52 1.23,6.25 L0.75,6.71 C1.8,7.56 2.62,8.36 3.22,9.11 L3.74,8.6 C3.42,8.23 3.06,7.86 2.67,7.49 C3.23,6.77 3.72,5.96 4.15,5.05 L4.15,4.45 L0.57,4.45 Z M2.26,2.25 L1.74,2.57 C2.16,3.15 2.5,3.68 2.75,4.16 L3.27,3.79 C3.03,3.35 2.7,2.84 2.26,2.25 Z" id="形状"></path>
                    <path d="M15.14,6.42 C14.84,6.5 14.54,6.57 14.23,6.64 L14.23,1.06 L15,1.06 L15,1.62 L15.4,1.62 C15.54,3.3 15.98,4.85 16.72,6.27 C16.18,7.17 15.51,7.93 14.7,8.57 L15.19,9.13 C15.94,8.54 16.58,7.82 17.12,6.98 C17.58,7.73 18.14,8.45 18.81,9.14 L19.29,8.59 C18.58,7.9 17.98,7.14 17.5,6.32 C18.19,5.01 18.65,3.43 18.87,1.58 L18.87,0.92 L15,0.92 L15,0.38 L10.24,0.38 L10.24,1.06 L11.03,1.06 L11.03,7.25 C10.73,7.29 10.43,7.34 10.13,7.38 L10.3,8.08 C11.42,7.92 12.49,7.73 13.53,7.51 L13.53,9.16 L14.23,9.16 L14.23,7.35 C14.53,7.28 14.83,7.21 15.14,7.13 L15.14,6.42 Z M16.06,1.62 L18.19,1.62 C18.01,3.11 17.64,4.42 17.1,5.56 C16.53,4.37 16.18,3.06 16.06,1.62 Z M13.53,6.8 C12.94,6.92 12.34,7.04 11.73,7.14 L11.73,5.44 L13.53,5.44 L13.53,6.8 Z M11.73,4.79 L11.73,3.27 L13.53,3.27 L13.53,4.79 L11.73,4.79 Z M11.73,2.61 L11.73,1.06 L13.53,1.06 L13.53,2.61 L11.73,2.61 Z" id="形状"></path>
                    <path d="M20.36,5.57 L20.36,6.27 L24.1,6.27 C23.59,7.29 22.26,8.03 20.12,8.48 L20.42,9.15 C22.68,8.63 24.11,7.78 24.72,6.61 C25.3,7.8 26.69,8.64 28.9,9.12 L29.19,8.45 C27.18,8.07 25.85,7.34 25.19,6.27 L28.98,6.27 L28.98,5.57 L25.02,5.57 C25.05,5.31 25.07,5.03 25.07,4.73 L24.37,4.73 C24.36,5.05 24.34,5.33 24.31,5.57 L20.36,5.57 Z M23.03,0.04 L23.03,2.49 C22.24,2.91 21.31,3.28 20.24,3.6 L20.53,4.26 C21.48,3.95 22.31,3.6 23.03,3.22 L23.03,4.65 L23.77,4.65 L23.77,0.04 L23.03,0.04 Z M20.86,0.46 L20.47,1.03 C21.04,1.3 21.6,1.68 22.14,2.16 L22.53,1.56 C22.03,1.12 21.47,0.76 20.86,0.46 Z M25.99,0 C25.65,0.77 25.01,1.42 24.07,1.96 L24.51,2.54 C25.05,2.21 25.5,1.85 25.87,1.45 L28.07,1.45 C27.81,2 27.39,2.48 26.83,2.89 C26.53,2.58 26.22,2.29 25.89,2.02 L25.39,2.39 C25.69,2.62 25.99,2.9 26.31,3.22 C25.75,3.52 25.09,3.77 24.31,3.97 L24.66,4.6 C26.92,3.98 28.29,2.92 28.79,1.4 L28.79,0.79 L26.37,0.79 C26.51,0.57 26.62,0.33 26.72,0.09 L25.99,0 Z" id="形状"></path>
                    <path d="M32.3,2.9 L32.3,4.45 C32.28,6.39 31.93,7.79 31.24,8.67 L31.75,9.11 C32.45,8.21 32.85,6.84 32.93,5 L34.13,5 C34.12,6.42 34.09,7.34 34.03,7.76 C33.96,8.19 33.78,8.41 33.48,8.43 C33.29,8.43 33.05,8.41 32.77,8.39 L32.96,8.99 C33.18,9.01 33.38,9.03 33.56,9.03 C34.11,9.01 34.45,8.72 34.58,8.15 C34.7,7.59 34.78,6.33 34.8,4.38 L32.94,4.38 L32.94,2.9 L34.86,2.9 L34.86,2.24 L31.32,2.24 L31.32,1.06 L35.12,1.06 L35.12,0.4 L30.66,0.4 L30.66,4.47 C30.64,6.28 30.43,7.69 30.03,8.7 L30.54,9.16 C31.03,7.98 31.29,6.42 31.32,4.47 L31.32,2.9 L32.3,2.9 Z M36.36,0.03 L36.36,2.14 L35.22,2.14 L35.22,2.8 L36.36,2.8 C36.31,5.5 35.79,7.47 34.8,8.72 L35.31,9.17 C36.41,7.81 36.99,5.68 37.05,2.8 L38.18,2.8 C38.17,5.56 38.12,7.2 38.04,7.72 C37.96,8.19 37.69,8.43 37.24,8.43 C37,8.43 36.73,8.41 36.42,8.39 L36.57,9 C36.93,9.02 37.19,9.03 37.34,9.03 C38.14,9.03 38.59,8.66 38.69,7.93 C38.79,7.21 38.85,5.28 38.85,2.14 L37.06,2.14 L37.06,0.03 L36.36,0.03 Z" id="形状"></path>
                </g>
            </g>
        </g>
    </g>
</svg>