<?xml version="1.0" encoding="UTF-8"?>
<svg width="51px" height="24px" viewBox="0 0 51 24" version="1.1" xmlns="http://www.w3.org/2000/svg" xmlns:xlink="http://www.w3.org/1999/xlink">
    <title>编组 5</title>
    <g id="页面-1" stroke="none" stroke-width="1" fill="none" fill-rule="evenodd">
        <g id="签到页面" transform="translate(-112.000000, -545.000000)">
            <g id="编组-5" transform="translate(112.333333, 545.000000)">
                <path d="M9.71107716,19.4221543 C4.34779734,19.4221543 6.56812347e-16,15.074357 0,9.71107716 C-6.56812347e-16,4.34779734 4.34779734,-7.9113832e-16 9.71107716,0 L40.2889228,0 C45.6522027,-2.76157536e-15 50,4.34779734 50,9.71107716 C50,15.074357 45.6522027,19.4221543 40.2889228,19.4221543 L29.5619792,19.4221543 L25,24 L20.4380208,19.4221543 L9.71107716,19.4221543 Z" id="形状结合备份-2" fill="#9C76F2"></path>
                <g id="领取奖励备份-4" transform="translate(5.290000, 5.001573)" fill="#FFFFFF" fill-rule="nonzero">
                    <path d="M4.38,0.31 L4.38,1.21 L6.33,1.21 C6.29,1.51 6.24,1.8 6.18,2.09 L4.75,2.09 L4.75,7.03 L5.68,7.03 L5.68,2.97 L8.03,2.97 L8.03,6.93 L8.95,6.93 L8.95,2.09 L7.11,2.09 C7.17,1.81 7.22,1.51 7.26,1.21 L9.18,1.21 L9.18,0.31 L4.38,0.31 Z M7.68,6.89 L7.04,7.51 C7.74,8.13 8.29,8.71 8.68,9.25 L9.36,8.57 C8.9,8.01 8.34,7.45 7.68,6.89 Z M6.39,3.49 L6.39,5.23 C6.36,6.06 6.2,6.73 5.92,7.24 C5.62,7.73 5.07,8.13 4.27,8.45 L4.77,9.24 C5.63,8.9 6.26,8.44 6.64,7.84 C7.03,7.18 7.24,6.31 7.28,5.23 L7.28,3.49 L6.39,3.49 Z M2,0.02 C1.39,1.1 0.72,2.05 0,2.85 L0.54,3.61 C1.28,2.77 1.91,1.87 2.45,0.93 C2.87,1.44 3.4,2.19 4.02,3.17 L4.65,2.5 C4.03,1.64 3.39,0.81 2.71,0.02 L2,0.02 Z M0.58,4.35 L0.58,5.24 L3.24,5.24 C2.9,5.88 2.57,6.43 2.23,6.89 C1.95,6.65 1.66,6.41 1.36,6.17 L0.73,6.79 C1.77,7.64 2.59,8.43 3.17,9.17 L3.85,8.49 C3.55,8.15 3.22,7.8 2.86,7.46 C3.38,6.78 3.85,6.01 4.26,5.15 L4.26,4.35 L0.58,4.35 Z M2.41,2.23 L1.73,2.65 C2.13,3.22 2.45,3.74 2.69,4.21 L3.37,3.73 C3.15,3.31 2.83,2.81 2.41,2.23 Z" id="形状"></path>
                    <path d="M15.22,6.3 C14.95,6.37 14.67,6.44 14.38,6.51 L14.38,1.19 L14.99,1.19 L14.99,1.76 L15.39,1.76 C15.52,3.38 15.94,4.88 16.64,6.26 C16.13,7.1 15.49,7.83 14.71,8.44 L15.36,9.18 C16.06,8.63 16.66,7.97 17.18,7.2 C17.61,7.88 18.13,8.54 18.75,9.18 L19.39,8.45 C18.72,7.81 18.15,7.1 17.69,6.32 C18.34,5.04 18.77,3.51 18.99,1.72 L18.99,0.85 L15.07,0.85 L15.07,0.3 L10.25,0.3 L10.25,1.19 L10.97,1.19 L10.97,7.15 L10.13,7.25 L10.36,8.18 C11.43,8.02 12.46,7.84 13.46,7.64 L13.46,9.18 L14.38,9.18 L14.38,7.45 L15.22,7.25 L15.22,6.3 Z M16.26,1.76 L18.1,1.76 C17.93,3.08 17.61,4.26 17.15,5.3 C16.67,4.23 16.38,3.05 16.26,1.76 Z M13.46,6.72 C12.95,6.82 12.43,6.92 11.9,7.01 L11.9,5.54 L13.46,5.54 L13.46,6.72 Z M11.9,4.69 L11.9,3.37 L13.46,3.37 L13.46,4.69 L11.9,4.69 Z M11.9,2.51 L11.9,1.19 L13.46,1.19 L13.46,2.51 L11.9,2.51 Z" id="形状"></path>
                    <path d="M20.35,5.45 L20.35,6.38 L23.93,6.38 C23.36,7.27 22.09,7.92 20.12,8.32 L20.51,9.2 C22.69,8.68 24.12,7.88 24.79,6.78 C25.36,7.9 26.72,8.7 28.88,9.18 L29.27,8.3 C27.4,7.96 26.12,7.32 25.44,6.38 L29.07,6.38 L29.07,5.45 L25.18,5.45 C25.2,5.23 25.22,5 25.22,4.74 L24.3,4.74 C24.3,5 24.28,5.23 24.25,5.45 L20.35,5.45 Z M22.96,0.02 L22.96,2.49 C22.17,2.87 21.26,3.2 20.23,3.48 L20.61,4.36 C21.49,4.08 22.28,3.78 22.96,3.44 L22.96,4.68 L23.92,4.68 L23.92,0.02 L22.96,0.02 Z M20.97,0.38 L20.46,1.13 C21.02,1.39 21.56,1.76 22.09,2.23 L22.6,1.44 C22.11,1.02 21.57,0.66 20.97,0.38 Z M25.94,0 C25.61,0.73 24.98,1.35 24.05,1.86 L24.63,2.62 C25.15,2.3 25.6,1.95 25.97,1.56 L27.98,1.56 C27.74,2.02 27.38,2.43 26.88,2.78 C26.62,2.5 26.35,2.23 26.06,1.98 L25.41,2.47 C25.66,2.68 25.92,2.92 26.19,3.19 C25.67,3.45 25.06,3.66 24.35,3.83 L24.81,4.66 C27.11,4.06 28.48,3.01 28.92,1.5 L28.92,0.7 L26.62,0.7 C26.73,0.51 26.83,0.31 26.91,0.11 L25.94,0 Z" id="形状"></path>
                    <path d="M32.24,3.01 L32.24,4.71 C32.23,6.47 31.9,7.76 31.25,8.57 L31.91,9.14 C32.62,8.27 33.01,6.93 33.07,5.12 L34.04,5.12 C34.03,6.52 34,7.4 33.94,7.75 C33.88,8.09 33.75,8.27 33.53,8.29 C33.33,8.29 33.09,8.27 32.8,8.25 L33.05,9.03 C33.27,9.06 33.46,9.08 33.63,9.08 C34.17,9.07 34.51,8.8 34.66,8.27 C34.8,7.73 34.89,6.4 34.92,4.3 L33.08,4.3 L33.08,3.01 L34.93,3.01 L34.93,2.15 L31.47,2.15 L31.47,1.17 L35.19,1.17 L35.19,0.31 L30.59,0.31 L30.59,4.81 C30.57,6.43 30.39,7.7 30.03,8.6 L30.69,9.2 C31.18,8.1 31.44,6.63 31.47,4.81 L31.47,3.01 L32.24,3.01 Z M36.29,0.01 L36.29,2.04 L35.23,2.04 L35.23,2.92 L36.29,2.92 C36.24,5.52 35.75,7.43 34.81,8.63 L35.48,9.23 C36.56,7.88 37.14,5.78 37.2,2.92 L38.09,2.92 C38.08,5.58 38.05,7.15 37.99,7.62 C37.93,8.06 37.72,8.29 37.37,8.29 C37.1,8.29 36.78,8.27 36.42,8.24 L36.62,9.04 C37.04,9.06 37.33,9.08 37.51,9.08 C38.29,9.08 38.73,8.71 38.83,7.97 C38.92,7.22 38.97,5.24 38.97,2.04 L37.21,2.04 L37.21,0.01 L36.29,0.01 Z" id="形状"></path>
                </g>
            </g>
        </g>
    </g>
</svg>