<?xml version="1.0" standalone="no"?><!DOCTYPE svg PUBLIC "-//W3C//DTD SVG 1.1//EN" "http://www.w3.org/Graphics/SVG/1.1/DTD/svg11.dtd"><svg t="1653648275365" class="icon" viewBox="0 0 1024 1024" version="1.1" xmlns="http://www.w3.org/2000/svg" p-id="7276" xmlns:xlink="http://www.w3.org/1999/xlink" width="200" height="200"><defs><style type="text/css">@font-face { font-family: feedback-iconfont; src: url("//at.alicdn.com/t/font_1031158_u69w8yhxdu.woff2?t=1630033759944") format("woff2"), url("//at.alicdn.com/t/font_1031158_u69w8yhxdu.woff?t=1630033759944") format("woff"), url("//at.alicdn.com/t/font_1031158_u69w8yhxdu.ttf?t=1630033759944") format("truetype"); }
</style></defs><path d="M520.832 788.736h-9.6c-20.992 0-149.76-79.168-191.104-197.12-41.216-117.44-33.6-212.48-33.28-216.512l3.392-38.144 38.016 4.288c23.36 2.688 64 4.672 81.28 0.704 10.048-2.304 40.768-20.288 78.08-49.152 8.128-6.272 25.536-14.72 48.64 2.112 56.064 40.96 73.664 46.4 76.672 47.04 17.216 3.968 57.792 1.984 81.216-0.64l33.92-3.84 6.848 33.408c1.728 8.448 15.36 86.08-32.768 220.928-42.752 119.808-167.68 189.44-172.992 192.32l-8.32 4.608zM361.28 418.432c1.664 33.92 8 87.936 29.248 148.48 24.448 69.824 89.088 119.68 120.576 140.608 31.488-21.184 96-71.424 120.768-140.8 24.128-67.648 30.272-118.08 31.232-148.352-21.76 0.832-47.872 0.64-66.816-3.712-19.584-4.48-46.4-18.88-85.312-46.08-28.48 20.416-61.056 40.704-84.864 46.08-18.368 4.224-43.52 4.672-64.832 3.84zM512 1024c-282.304 0-512-229.696-512-512s229.696-512 512-512 512 229.696 512 512-229.696 512-512 512zM512 74.624A437.952 437.952 0 0 0 74.624 512 437.888 437.888 0 0 0 512 949.376 437.888 437.888 0 0 0 949.44 512 437.952 437.952 0 0 0 512 74.624z" fill="#FFFFFF" p-id="7277"></path></svg>