<?xml version="1.0" encoding="UTF-8"?>
<svg width="51px" height="50px" viewBox="0 0 51 50" version="1.1" xmlns="http://www.w3.org/2000/svg" xmlns:xlink="http://www.w3.org/1999/xlink">
    <title>编组 2</title>
    <g id="页面-1" stroke="none" stroke-width="1" fill="none" fill-rule="evenodd">
        <g id="手机动态密码登录-输入效果" transform="translate(-232.000000, -642.000000)" fill="#DDDDDD" fill-rule="nonzero">
            <g id="编组-2" transform="translate(232.500000, 642.000000)">
                <g id="qq" transform="translate(9.000000, 9.000000)">
                    <rect id="矩形" opacity="0" x="0" y="0" width="32" height="32"></rect>
                    <path d="M29.1095956,26.2777782 C28.3892215,26.3648406 26.3058492,22.9814701 26.3058492,22.9814701 C26.3058492,24.94053 25.2973505,27.4969016 23.1151659,29.3430867 C24.1677895,29.6675863 26.5428489,30.5410226 25.9778497,31.4943964 C25.5206002,32.2658329 18.1334849,31.9869582 16.0008627,31.7467086 C13.8682405,31.9869583 6.48112519,32.2658329 6.02387578,31.4943964 C5.45856403,30.5412726 7.83124841,29.6685238 8.88530953,29.3434617 C6.70281237,27.4972766 5.69412622,24.940655 5.69412622,22.9814701 C5.69412622,22.9814701 3.61075394,26.3648406 2.89044237,26.2777782 C2.55481781,26.2371533 2.11394341,24.4250307 3.47462909,20.0462864 C4.11594075,17.9822891 4.84931478,16.2664163 5.98362581,13.4351075 C5.79268856,6.12892958 8.81137212,0.000375113479 15.9999877,1.1347888e-07 C23.1085409,0.000375113479 26.1972244,6.00830474 26.0164746,13.43517 C27.1488482,16.2616038 27.8859722,17.9882891 28.5254713,20.0462864 C29.8859695,24.4250307 29.4452201,26.2370908 29.1095956,26.2777782 L29.1095956,26.2777782 Z" id="路径"></path>
                </g>
                <g id="椭圆形-2">
                    <path d="M25,0 C38.8071187,0 50,11.1928813 50,25 C50,38.8071187 38.8071187,50 25,50 C11.1928813,50 0,38.8071187 0,25 C0,11.1928813 11.1928813,0 25,0 Z M25,1 C11.745166,1 1,11.745166 1,25 C1,38.254834 11.745166,49 25,49 C38.254834,49 49,38.254834 49,25 C49,11.745166 38.254834,1 25,1 Z" id="椭圆形"></path>
                </g>
            </g>
        </g>
    </g>
</svg>