<?xml version="1.0" encoding="UTF-8"?>
<svg width="51px" height="50px" viewBox="0 0 51 50" version="1.1" xmlns="http://www.w3.org/2000/svg" xmlns:xlink="http://www.w3.org/1999/xlink">
    <title>编组 3</title>
    <g id="页面-1" stroke="none" stroke-width="1" fill="none" fill-rule="evenodd">
        <g id="手机动态密码登录-输入效果" transform="translate(-92.000000, -642.000000)" fill="#DDDDDD" fill-rule="nonzero">
            <g id="编组-3" transform="translate(92.500000, 642.000000)">
                <g id="椭圆形备份-2">
                    <path d="M25,0 C38.8071187,0 50,11.1928813 50,25 C50,38.8071187 38.8071187,50 25,50 C11.1928813,50 0,38.8071187 0,25 C0,11.1928813 11.1928813,0 25,0 Z M25,1 C11.745166,1 1,11.745166 1,25 C1,38.254834 11.745166,49 25,49 C38.254834,49 49,38.254834 49,25 C49,11.745166 38.254834,1 25,1 Z" id="椭圆形备份"></path>
                </g>
                <g id="微信" transform="translate(9.000000, 9.000000)">
                    <rect id="矩形" opacity="0" x="0" y="0" width="32" height="32"></rect>
                    <path d="M20.7578142,11.5169275 C21.070786,11.5169275 21.3794407,11.539824 21.6850895,11.5730495 C20.8523421,7.7352355 16.7051379,4.88312125 11.9717711,4.88312125 C6.67948728,4.88312125 2.34409069,8.45289294 2.34409069,12.9854359 C2.34409069,15.6013263 3.78676056,17.7498216 6.19664666,19.4162118 L5.23387541,22.2827803 L8.59914575,20.6122969 C9.80408881,20.8478172 10.7697701,21.0906925 11.9717711,21.0906925 C12.2737424,21.0906925 12.5727397,21.0759825 12.8702979,21.0523825 C12.6820096,20.41595 12.5727397,19.7485305 12.5727397,19.0566796 C12.5727717,14.8947653 16.1846268,11.5169275 20.7578142,11.5169275 Z M15.5821553,8.93355906 C16.3071677,8.93355906 16.7870664,9.40607069 16.7870664,10.1229926 C16.7870664,10.8369406 16.3071677,11.3153682 15.5821553,11.3153682 C14.8600529,11.3153682 14.1365115,10.8369406 14.1365115,10.1229926 C14.1365115,9.40607069 14.8600849,8.93355906 15.5821553,8.93355906 Z M8.84425959,11.3153362 C8.12215719,11.3153362 7.39417075,10.8369086 7.39417075,10.1229606 C7.39417075,9.40603869 8.12215719,8.93352706 8.84425959,8.93352706 C9.56556256,8.93352706 10.0462287,9.40603869 10.0462287,10.1229606 C10.0462287,10.8369406 9.56556256,11.3153362 8.84425959,11.3153362 Z M29.5452643,18.9422292 C29.5452643,15.1332277 25.6934438,12.0285806 21.3676407,12.0285806 C16.7870664,12.0285806 13.1796562,15.1332277 13.1796562,18.9422292 C13.1796562,22.7567629 16.7870664,25.8547585 21.3676407,25.8547585 C22.325967,25.8547585 23.2931832,25.6169677 24.2558905,25.3778018 L26.8969479,26.8086397 L26.172607,24.4283016 C28.1056004,22.9930187 29.5452643,21.0906925 29.5452643,18.9422292 Z M18.7126088,17.7498216 C18.2334777,17.7498216 17.7498696,17.2780455 17.7498696,16.7966439 C17.7498696,16.3219257 18.2334777,15.8442336 18.7126088,15.8442336 C19.4405953,15.8442336 19.9175519,16.3219257 19.9175519,16.7966439 C19.9175519,17.2780455 19.4405953,17.7498216 18.7126088,17.7498216 Z M24.0078347,17.7498216 C23.532413,17.7498216 23.0517469,17.2780455 23.0517469,16.7966439 C23.0517469,16.3219257 23.532413,15.8442336 24.0078347,15.8442336 C24.7299371,15.8442336 25.2127777,16.3219257 25.2127777,16.7966439 C25.2127777,17.2780455 24.7299371,17.7498216 24.0078347,17.7498216 Z" id="形状"></path>
                </g>
            </g>
        </g>
    </g>
</svg>