<?xml version="1.0" standalone="no"?><!DOCTYPE svg PUBLIC "-//W3C//DTD SVG 1.1//EN" "http://www.w3.org/Graphics/SVG/1.1/DTD/svg11.dtd"><svg t="1652266419651" class="icon" viewBox="0 0 1024 1024" version="1.1" xmlns="http://www.w3.org/2000/svg" p-id="7084" xmlns:xlink="http://www.w3.org/1999/xlink" width="200" height="200"><defs><style type="text/css">@font-face { font-family: feedback-iconfont; src: url("//at.alicdn.com/t/font_1031158_u69w8yhxdu.woff2?t=1630033759944") format("woff2"), url("//at.alicdn.com/t/font_1031158_u69w8yhxdu.woff?t=1630033759944") format("woff"), url("//at.alicdn.com/t/font_1031158_u69w8yhxdu.ttf?t=1630033759944") format("truetype"); }
</style></defs><path d="M1024 696.900321l-329.386612-110.762648s25.309862-37.887994 52.343458-112.196248c27.016529-74.291188 30.890662-115.080514 30.890662-115.080514l-213.230898-1.757867v-72.823454l258.218624-1.826133v-51.490125H564.56541V113.766552h-126.463979v117.19678H197.171338v51.490125l240.930093-1.706666v78.11412H244.855597v40.789326h397.772733s-4.386133 33.109328-19.626663 74.291188a1672.635455 1672.635455 0 0 1-30.958928 77.260787s-186.760502-65.365322-285.183953-65.365322c-98.42345 0-218.111964 39.526393-229.717295 154.282641-11.554131 114.687981 55.756791 176.810637 150.579175 199.679966 94.839451 22.988796 182.391436-0.221867 258.611157-37.54666 76.236787-37.273594 151.039975-121.975446 151.039975-121.975446L1021.269334 866.69656A189.439968 189.439968 0 0 1 834.389365 1024H189.610806C84.992157 1024.1024 0.102571 939.366414 0.000171 834.730698v-645.119892C-0.102229 84.992157 84.650823 0.085504 189.269472 0.000171h645.119893C939.008014-0.102229 1023.914667 84.650823 1024 189.269472v507.630849z m-480.05112-64.170656s-119.842113 151.278908-261.034623 151.278908c-141.260776 0-170.905572-71.884788-170.905572-123.579712 0-51.643725 29.354662-107.827182 149.538109-115.950914 120.11518-8.106665 282.453286 88.234652 282.453286 88.234652h-0.068267z" fill="#02A9F1" p-id="7085"></path></svg>