<?xml version="1.0" standalone="no"?><!DOCTYPE svg PUBLIC "-//W3C//DTD SVG 1.1//EN" "http://www.w3.org/Graphics/SVG/1.1/DTD/svg11.dtd"><svg t="1652266425950" class="icon" viewBox="0 0 1041 1024" version="1.1" xmlns="http://www.w3.org/2000/svg" p-id="7234" xmlns:xlink="http://www.w3.org/1999/xlink" width="203.3203125" height="200"><defs><style type="text/css">@font-face { font-family: feedback-iconfont; src: url("//at.alicdn.com/t/font_1031158_u69w8yhxdu.woff2?t=1630033759944") format("woff2"), url("//at.alicdn.com/t/font_1031158_u69w8yhxdu.woff?t=1630033759944") format("woff"), url("//at.alicdn.com/t/font_1031158_u69w8yhxdu.ttf?t=1630033759944") format("truetype"); }
</style></defs><path d="M381.627733 629.213867c-4.7104 2.389333-9.5232 3.515733-15.36 3.515733-13.090133 0-23.7568-7.031467-29.730133-17.544533l-2.389333-4.642134-93.7472-201.506133c-1.143467-2.372267-1.143467-4.625067-1.143467-6.997333 0-9.403733 7.1168-16.418133 16.64-16.418134 3.549867 0 7.1168 1.1264 10.666667 3.498667l110.353066 77.312c8.260267 4.642133 17.783467 8.157867 28.450134 8.157867 5.973333 0 11.8272-1.143467 17.783466-3.515734L940.663467 243.882667C848.093867 136.123733 695.04 65.826133 521.728 65.826133c-282.453333 0-512.682667 188.586667-512.682667 421.546667 0 126.464 68.8128 241.237333 176.776534 318.549333 8.2432 5.888 14.216533 16.418133 14.216533 26.9312 0 3.515733-1.143467 7.031467-2.4064 10.530134-8.260267 31.573333-22.596267 83.2-22.596267 85.469866a42.3424 42.3424 0 0 0-2.423466 12.9024c0 9.386667 7.1168 16.418133 16.64 16.418134a13.550933 13.550933 0 0 0 9.5232-3.515734l111.5136-64.4096c8.260267-4.642133 17.783467-8.1408 27.306666-8.1408 4.693333 0 10.666667 1.1264 15.36 2.372267 52.206933 15.172267 109.226667 23.432533 167.389867 23.432533 282.453333 0 512.682667-188.586667 512.682667-421.546666 0-70.314667-21.333333-136.977067-58.1632-195.618134L385.194667 626.858667l-3.566934 2.389333z" fill="#09BB07" p-id="7235"></path></svg>