<?xml version="1.0" standalone="no"?><!DOCTYPE svg PUBLIC "-//W3C//DTD SVG 1.1//EN" "http://www.w3.org/Graphics/SVG/1.1/DTD/svg11.dtd"><svg t="1652150516278" class="icon" viewBox="0 0 1070 1024" version="1.1" xmlns="http://www.w3.org/2000/svg" p-id="3183" xmlns:xlink="http://www.w3.org/1999/xlink" width="208.984375" height="200"><defs><style type="text/css">@font-face { font-family: feedback-iconfont; src: url("//at.alicdn.com/t/font_1031158_u69w8yhxdu.woff2?t=1630033759944") format("woff2"), url("//at.alicdn.com/t/font_1031158_u69w8yhxdu.woff?t=1630033759944") format("woff"), url("//at.alicdn.com/t/font_1031158_u69w8yhxdu.ttf?t=1630033759944") format("truetype"); }
</style></defs><path d="M349.463273 654.754909l35.048727-18.850909 134.702545 75.450182v-185.995637l-26.949818-13.498181L357.562182 433.803636v153.693091l-29.649455 16.151273-113.198545-64.698182L80.058182 614.4v156.299636l134.702545 75.450182 134.749091-75.450182v-115.898181z m412.253091-51.2l-26.903273-16.151273v-153.6l-161.698909 91.648v185.902546l134.749091-75.403637 35.002182 18.804364v115.898182l134.74909 75.450182 134.749091-75.450182v-156.299636l-134.749091-75.450182-115.898181 64.698182z m0-484.957091V242.501818l142.848 78.103273v140.101818l13.498181 8.145455 94.254546 53.853091V256l-250.600727-137.402182zM680.96 827.298909l-134.702545 72.750546-134.749091-72.750546-21.550546 13.498182-88.901818 48.500364L546.164364 1024l245.201454-134.702545-88.901818-48.500364-21.597091-13.498182zM187.810909 460.846545V320.698182l142.801455-78.196364V118.597818L80.058182 256v266.705455l94.301091-53.853091 13.498182-8.005819zM384.465455 388.096l161.652363 91.601455 26.996364-16.151273 134.702545-75.450182-134.749091-75.450182V293.701818L680.96 231.796364V78.149818L546.210909 0 411.461818 78.149818v153.6l107.799273 61.952v18.850909L384.465455 388.096z" fill="#FFFFFF" p-id="3184"></path></svg>