<?xml version="1.0" standalone="no"?><!DOCTYPE svg PUBLIC "-//W3C//DTD SVG 1.1//EN" "http://www.w3.org/Graphics/SVG/1.1/DTD/svg11.dtd"><svg t="1652238931753" class="icon" viewBox="0 0 1070 1024" version="1.1" xmlns="http://www.w3.org/2000/svg" p-id="2225" xmlns:xlink="http://www.w3.org/1999/xlink" width="208.984375" height="200"><defs><style type="text/css">@font-face { font-family: feedback-iconfont; src: url("//at.alicdn.com/t/font_1031158_u69w8yhxdu.woff2?t=1630033759944") format("woff2"), url("//at.alicdn.com/t/font_1031158_u69w8yhxdu.woff?t=1630033759944") format("woff"), url("//at.alicdn.com/t/font_1031158_u69w8yhxdu.ttf?t=1630033759944") format("truetype"); }
</style></defs><path d="M1039.910118 937.049595a13.956652 13.956652 0 0 1-14.514918 5.303527l-99.092227-23.028475-34.147275 94.533054a14.933617 14.933617 0 0 1-12.607508 9.63009h-1.535232a14.14274 14.14274 0 0 1-12.560986-7.536592l-100.487893-185.297812a187.996098 187.996098 0 0 1-44.847374-0.372178l-99.883104 184.693024a14.282307 14.282307 0 0 1-13.026208 7.583114h-1.116532a14.56144 14.56144 0 0 1-12.235331-9.630089l-33.728575-94.905232-99.324838 22.423687a14.747529 14.747529 0 0 1-14.701007-5.443094 14.701006 14.701006 0 0 1-1.116532-15.864061l113.607145-205.860612-0.930443-2.093498a204.139292 204.139292 0 0 1 186.181733-287.739636h0.930444a204.232336 204.232336 0 0 1 185.111723 289.460957l111.560169 208.279765a15.073184 15.073184 0 0 1-1.535231 15.864061z m-442.472381-172.271604l-58.059671 104.349232 45.266073-10.188356a4.977872 4.977872 0 0 1 5.815272 3.256552l15.259273 42.986488 52.942232-96.626552c-25.028929-13.770563-41.079078-23.214564-61.223179-43.730842z m146.777453-275.504305h-0.558266a137.798674 137.798674 0 0 0-137.70563 137.379975 138.170852 138.170852 0 0 0 137.147364 138.682596 138.170852 138.170852 0 0 0 138.356941-137.519542 137.891719 137.891719 0 0 0-137.240409-138.543029z m146.451799 275.318216c-23.354131 23.400653-42.381699 34.705541-71.039357 50.569601l60.664913 111.699736 17.538858-49.03437a6.978326 6.978326 0 0 1 7.90877-4.373084l51.453522 11.723588-66.526706-120.585471zM226.935157 711.184448h246.102291v64.340164h-246.102291v-64.340164z m0-113.607145v-64.154075h246.102291v64.200598h-246.102291z m0-419.816083h505.230791v64.340165H226.935157V177.714698z m0 177.714699h359.942047v64.386686H226.935157V355.522441z m656.19524-291.507932H112.723224v824.977682h275.876481v64.200597H117.235874c-37.68296 0-68.573682-31.728122-68.573682-70.992835V70.946313C48.662192 31.867688 79.366826 0 117.235874 0h761.381872c37.68296 0 68.573682 31.681599 68.573682 70.946313v303.231519h-64.061031V63.967987z" fill="#FFFFFF" p-id="2226"></path></svg>