<?xml version="1.0" standalone="no"?><!DOCTYPE svg PUBLIC "-//W3C//DTD SVG 1.1//EN" "http://www.w3.org/Graphics/SVG/1.1/DTD/svg11.dtd"><svg t="1652238924213" class="icon" viewBox="0 0 1070 1024" version="1.1" xmlns="http://www.w3.org/2000/svg" p-id="2074" xmlns:xlink="http://www.w3.org/1999/xlink" width="208.984375" height="200"><defs><style type="text/css">@font-face { font-family: feedback-iconfont; src: url("//at.alicdn.com/t/font_1031158_u69w8yhxdu.woff2?t=1630033759944") format("woff2"), url("//at.alicdn.com/t/font_1031158_u69w8yhxdu.woff?t=1630033759944") format("woff"), url("//at.alicdn.com/t/font_1031158_u69w8yhxdu.ttf?t=1630033759944") format("truetype"); }
</style></defs><path d="M975.715954 406.018946a15.918278 15.918278 0 0 1-10.379462-11.496534C915.99914 186.607363 729.122283 32.032509 506.173305 32.032509c-35.839397 0-70.84099 4.002842-104.306609 11.589623a15.918278 15.918278 0 0 1-15.313197-4.701012A119.387083 119.387083 0 0 0 300.073499 0.009774a120.45761 120.45761 0 0 0-121.94704 118.502735c-0.046545 10.891453 1.256706 21.410549 3.816663 31.417653a16.104456 16.104456 0 0 1-4.375199 15.266652 470.380453 470.380453 0 0 0-143.357589 338.845211c0 140.564909 61.438967 266.840603 158.950054 353.274058a16.197546 16.197546 0 0 1 4.88719 16.151001A120.45761 120.45761 0 0 0 315.619419 1023.992553c41.936749-0.465447 78.660495-22.481076 99.745232-55.481249 0.372357-0.69817 1.210161-0.977438 2.001421-0.930893 28.764607 5.585361 58.367018 8.378041 88.807233 8.378041 210.754274 0 389.25309-138.237675 449.854253-328.931196a15.825188 15.825188 0 0 1 11.310355-10.705274 119.945619 119.945619 0 0 0 8.378041-230.256491z m-733.07858-293.696879a56.086329 56.086329 0 0 1 111.521033 7.679871 56.132874 56.132874 0 0 1-55.99324 55.99324 56.039785 56.039785 0 0 1-55.481249-63.719655z m105.097869 836.454296a56.086329 56.086329 0 0 1-89.598493-43.100366v-1.675608a55.99324 55.99324 0 1 1 89.598493 44.775974z m534.332831-285.970463a405.729904 405.729904 0 0 1-87.503983 129.673456 405.822993 405.822993 0 0 1-288.390786 119.480172 410.058558 410.058558 0 0 1-70.282454-5.957718 2.047966 2.047966 0 0 1-1.722153-2.001421 119.945619 119.945619 0 0 0-186.5045-99.93141 15.825188 15.825188 0 0 1-19.688396-1.675608c-3.49085-3.211582-6.888611-6.609343-10.332917-9.914015a407.358967 407.358967 0 0 1-87.503983-129.673456 404.79901 404.79901 0 0 1-31.976189-158.81042 406.567708 406.567708 0 0 1 112.405382-281.176362l0.69817-0.69817c5.399182-5.585361 13.963402-6.423165 20.386566-2.1876 19.316039 12.892874 42.588375 20.293477 67.489774 20.060754a120.224887 120.224887 0 0 0 118.921637-118.270011v-2.79268a16.197546 16.197546 0 0 1 13.079052-16.104457 414.014855 414.014855 0 0 1 74.936922-6.795522A406.567708 406.567708 0 0 1 794.517547 215.511605a407.358967 407.358967 0 0 1 103.794618 175.892314 15.825188 15.825188 0 0 1-8.983122 18.804048 120.085253 120.085253 0 0 0-8.005683 215.50183c6.981701 3.770118 10.286372 12.101615 7.493692 19.548762a218.294511 218.294511 0 0 1-6.795522 17.547341z m92.437718-100.303768a55.760517 55.760517 0 0 1-65.395263 5.399182 55.900151 55.900151 0 0 1 3.630484-97.790355 55.667427 55.667427 0 0 1 64.790183 10.193283 55.853606 55.853606 0 0 1-3.025404 82.19789z" fill="#FFFFFF" p-id="2075"></path><path d="M514.551346 352.027127c42.681464 0 82.89606 16.569903 113.103553 46.870484A158.577697 158.577697 0 0 1 674.525383 512.001164c0 42.681464-16.569903 82.89606-46.870484 113.103552a158.577697 158.577697 0 0 1-113.103553 46.870484 158.577697 158.577697 0 0 1-113.103552-46.870484A158.577697 158.577697 0 0 1 354.577309 512.001164c0-42.681464 16.569903-82.89606 46.870485-113.103553a159.182777 159.182777 0 0 1 113.103552-46.870484z m0-63.998924a224.019505 224.019505 0 1 0 0 447.992466 224.019505 224.019505 0 0 0 0-447.992466z" fill="#FFFFFF" p-id="2076"></path></svg>