<?xml version="1.0" standalone="no"?><!DOCTYPE svg PUBLIC "-//W3C//DTD SVG 1.1//EN" "http://www.w3.org/Graphics/SVG/1.1/DTD/svg11.dtd"><svg t="1661244958878" class="icon" viewBox="0 0 1024 1024" version="1.1" xmlns="http://www.w3.org/2000/svg" p-id="2668" xmlns:xlink="http://www.w3.org/1999/xlink" width="200" height="200"><defs><style type="text/css">@font-face { font-family: feedback-iconfont; src: url("//at.alicdn.com/t/font_1031158_u69w8yhxdu.woff2?t=1630033759944") format("woff2"), url("//at.alicdn.com/t/font_1031158_u69w8yhxdu.woff?t=1630033759944") format("woff"), url("//at.alicdn.com/t/font_1031158_u69w8yhxdu.ttf?t=1630033759944") format("truetype"); }
</style></defs><path d="M433.095111 480.028444H174.876444a46.876444 46.876444 0 0 1-46.876444-46.933333V174.876444c0-25.884444 21.048889-46.876444 46.876444-46.876444h258.275556c25.827556 0 46.876444 21.048889 46.876444 46.876444v258.275556c0 25.827556-21.048889 46.876444-46.933333 46.876444z m0 415.971556H174.876444a46.876444 46.876444 0 0 1-46.876444-46.876444v-258.275556c0-25.827556 21.048889-46.819556 46.876444-46.819556h258.275556c25.827556 0 46.876444 20.992 46.876444 46.876445v258.218667c0 25.884444-21.048889 46.876444-46.933333 46.876444z m416.028445-416.028444h-258.275556a46.876444 46.876444 0 0 1-46.819556-46.876445V174.876444c0-25.884444 20.992-46.876444 46.876445-46.876444h258.218667c25.884444 0 46.876444 21.048889 46.876444 46.876444v258.275556c0 25.827556-21.048889 46.876444-46.876444 46.876444z m0 416.028444h-258.275556a46.876444 46.876444 0 0 1-46.819556-46.876444v-258.275556c0-25.827556 20.992-46.819556 46.876445-46.819556h258.218667c25.884444 0 46.876444 20.992 46.876444 46.876445v258.218667c0 25.884444-21.048889 46.876444-46.876444 46.876444z" fill="#666666" p-id="2669"></path></svg>