<?xml version="1.0" encoding="UTF-8"?>
<svg width="17px" height="16px" viewBox="0 0 17 16" version="1.1" xmlns="http://www.w3.org/2000/svg" xmlns:xlink="http://www.w3.org/1999/xlink">
    <title>认证</title>
    <g id="页面-1" stroke="none" stroke-width="1" fill="none" fill-rule="evenodd">
        <g id="我的-分享与邀请" transform="translate(-179.000000, -406.000000)" fill="#28D8E5" fill-rule="nonzero">
            <g id="认证" transform="translate(179.500000, 406.000000)">
                <rect id="矩形" opacity="0" x="0" y="0" width="16" height="16"></rect>
                <path d="M7.99927273,15.6585455 C5.76509092,15.6585455 1.61018181,12.2403636 1.61018181,9.008 L1.61018181,2.56909091 L2.24545455,2.55854545 C2.25890909,2.55854545 3.67709091,2.52836364 5.14036364,1.93454545 C6.64109091,1.32472727 7.60909091,0.624727266 7.61818183,0.618181813 L7.99745456,0.341818172 L8.38000002,0.618181813 C8.38909092,0.625090906 9.35709092,1.32472727 10.8578182,1.93454545 C12.3210909,2.52836364 13.7392727,2.55854545 13.7541818,2.55854545 L14.3865455,2.56909091 L14.3894546,9.008 C14.3898182,12.24 10.2349091,15.6585455 7.99927273,15.6585455 L7.99927273,15.6585455 Z M2.90036364,3.80327273 L2.90036364,9.00763638 C2.90036364,11.5069091 6.51963638,14.368 7.99927273,14.368 C9.47927273,14.368 13.0981818,11.5069091 13.0981818,9.00763638 L13.0981818,3.80327273 C12.4658182,3.73490909 11.4392727,3.56218183 10.3730909,3.12945455 C9.28036364,2.68509091 8.45054545,2.20218181 7.99890909,1.91454545 C7.54872728,2.20218181 6.71781819,2.68509091 5.62618183,3.12945455 C4.55927273,3.56254545 3.53236364,3.73490909 2.90036364,3.80327273 L2.90036364,3.80327273 Z M7.65745455,11.4272727 L4.94472728,9.11636364 L5.77890909,8.13490909 L7.51927273,9.61636364 L10.8221818,5.81127273 L11.7974546,6.65745455 L7.65745455,11.4272727 L7.65745455,11.4272727 Z" id="形状"></path>
            </g>
        </g>
    </g>
</svg>