<?xml version="1.0" encoding="UTF-8"?>
<svg width="29px" height="30px" viewBox="0 0 29 30" version="1.1" xmlns="http://www.w3.org/2000/svg" xmlns:xlink="http://www.w3.org/1999/xlink">
    <title>关闭</title>
    <g id="页面-1" stroke="none" stroke-width="1" fill="none" fill-rule="evenodd">
        <g id="首页-公告" transform="translate(-291.000000, -235.000000)" fill="#FFFFFF" fill-rule="nonzero">
            <g id="关闭" transform="translate(291.000000, 235.493070)">
                <rect id="矩形" opacity="0" x="0" y="0" width="29" height="29"></rect>
                <path d="M24.7898217,21.5147001 L24.8009501,21.5147001 L24.8009501,21.4477438 L24.7898217,21.5147001 Z M26.2769048,14.499942 C26.2769048,8.00564816 20.9932651,2.72322563 14.5002174,2.72322563 C8.00554674,2.72322563 2.72312421,8.00564816 2.72312421,14.499942 C2.72312421,20.9938012 8.00554674,26.2766874 14.5002174,26.2766874 C20.9932361,26.2766874 26.2769048,20.9938012 26.2769048,14.499942 M14.5002174,24.5869011 C8.93880101,24.5869011 4.41328729,20.0605469 4.41328729,14.499942 C4.41328729,8.93855465 8.93880098,4.41344668 14.5002174,4.41344668 C20.0607643,4.41344668 24.586336,8.93855465 24.586336,14.499942 C24.586336,20.0605469 20.0607643,24.5869011 14.5002174,24.5869011 M19.325185,18.1880975 L15.6837169,14.5358197 L19.3218523,10.9381409 C19.6521124,10.612054 19.6546047,10.0791054 19.3284888,9.74881629 C19.0024019,9.41812151 18.4686128,9.41560021 18.1382947,9.74252757 L14.4968556,13.3444085 L10.9096388,9.74588928 C10.5810595,9.41728107 10.0488934,9.41562921 9.7194737,9.74420841 C9.3908655,10.0732513 9.3908655,10.6053596 9.71779284,10.9339967 L13.3008365,14.5275023 L9.68945007,18.0996494 C9.35916099,18.4265768 9.35582826,18.9579025 9.6827846,19.2882496 C9.84791465,19.4550604 10.0631227,19.5384079 10.2799537,19.5384079 C10.493481,19.5384079 10.7086311,19.4567123 10.8721382,19.2957265 L14.4885093,15.7185368 L18.1333101,19.3766396 C18.2976287,19.5409003 18.5136193,19.6235233 18.7296388,19.6235233 C18.9448469,19.6235233 19.1591276,19.5409003 19.3234752,19.3782915 C19.6521124,19.0505527 19.6528948,18.5183576 19.325185,18.1880975" id="形状"></path>
            </g>
        </g>
    </g>
</svg>