<?xml version="1.0" standalone="no"?><!DOCTYPE svg PUBLIC "-//W3C//DTD SVG 1.1//EN" "http://www.w3.org/Graphics/SVG/1.1/DTD/svg11.dtd"><svg t="1656575291345" class="icon" viewBox="0 0 1024 1024" version="1.1" xmlns="http://www.w3.org/2000/svg" p-id="1968" xmlns:xlink="http://www.w3.org/1999/xlink" width="200" height="200"><defs><style type="text/css">@font-face { font-family: feedback-iconfont; src: url("//at.alicdn.com/t/font_1031158_u69w8yhxdu.woff2?t=1630033759944") format("woff2"), url("//at.alicdn.com/t/font_1031158_u69w8yhxdu.woff?t=1630033759944") format("woff"), url("//at.alicdn.com/t/font_1031158_u69w8yhxdu.ttf?t=1630033759944") format("truetype"); }
</style></defs><path d="M0 0h1024v1024H0z" fill="#bfbfbf" fill-opacity="0" p-id="1969"></path><path d="M762.88 63.808H261.76c-39.744 0-71.936 32.192-71.936 72v753.088c0 39.808 32.192 72 72 72h501.12c39.744 0 71.936-32.192 71.936-72V135.808c0-39.808-32.256-72-72-72zM261.76 135.808h501.12v523.072H261.76V135.808z m501.12 753.088H261.76V730.88h501.12v158.08z" fill="#bfbfbf" fill-opacity=".25" p-id="1970"></path><path d="M545.984 771.84h-62.016a35.968 35.968 0 1 0 0 71.936h62.08a35.968 35.968 0 1 0 0-72z" fill="#bfbfbf" fill-opacity=".25" p-id="1971"></path></svg>