<?xml version="1.0" standalone="no"?><!DOCTYPE svg PUBLIC "-//W3C//DTD SVG 1.1//EN" "http://www.w3.org/Graphics/SVG/1.1/DTD/svg11.dtd"><svg t="1661249859477" class="icon" viewBox="0 0 1041 1024" version="1.1" xmlns="http://www.w3.org/2000/svg" p-id="7093" xmlns:xlink="http://www.w3.org/1999/xlink" width="203.3203125" height="200"><defs><style type="text/css">@font-face { font-family: feedback-iconfont; src: url("//at.alicdn.com/t/font_1031158_u69w8yhxdu.woff2?t=1630033759944") format("woff2"), url("//at.alicdn.com/t/font_1031158_u69w8yhxdu.woff?t=1630033759944") format("woff"), url("//at.alicdn.com/t/font_1031158_u69w8yhxdu.ttf?t=1630033759944") format("truetype"); }
</style></defs><path d="M520.533333 64C273.134933 64 72.533333 264.6016 72.533333 512S273.134933 960 520.533333 960 968.533333 759.3984 968.533333 512 767.931733 64 520.533333 64z m193.501867 301.704533l-210.602667 292.010667a31.812267 31.812267 0 0 1-51.712 0l-124.689066-172.817067a8.021333 8.021333 0 0 1 6.5024-12.6976h46.8992c10.205867 0 19.899733 4.898133 25.9072 13.312l71.185066 98.781867 157.201067-217.992533c6.007467-8.2944 15.598933-13.312 25.9072-13.312h46.8992c6.485333 0 10.308267 7.406933 6.485333 12.714666z" fill="#28D8E5" p-id="7094"></path></svg>