<?xml version="1.0" standalone="no"?><!DOCTYPE svg PUBLIC "-//W3C//DTD SVG 1.1//EN" "http://www.w3.org/Graphics/SVG/1.1/DTD/svg11.dtd"><svg t="1653472129797" class="icon" viewBox="0 0 1097 1024" version="1.1" xmlns="http://www.w3.org/2000/svg" p-id="10952" xmlns:xlink="http://www.w3.org/1999/xlink" width="214.2578125" height="200"><defs><style type="text/css">@font-face { font-family: feedback-iconfont; src: url("//at.alicdn.com/t/font_1031158_u69w8yhxdu.woff2?t=1630033759944") format("woff2"), url("//at.alicdn.com/t/font_1031158_u69w8yhxdu.woff?t=1630033759944") format("woff"), url("//at.alicdn.com/t/font_1031158_u69w8yhxdu.ttf?t=1630033759944") format("truetype"); }
</style></defs><path d="M548.571429 0a512 512 0 1 1 0 1024 512 512 0 0 1 0-1024z m277.577142 317.001143a64 64 0 0 0-90.550857-1.682286L467.456 574.171429 361.398857 474.697143l-4.973714-4.242286a64 64 0 0 0-82.578286 97.645714l140.580572 131.730286 5.046857 4.315429a63.926857 63.926857 0 0 0 48.420571 12.288c19.090286 2.925714 39.277714-2.779429 54.198857-17.188572l302.372572-291.84 4.534857-4.754285a64 64 0 0 0-2.925714-85.650286z" fill="#8066EA" p-id="10953"></path></svg>