<?xml version="1.0" standalone="no"?><!DOCTYPE svg PUBLIC "-//W3C//DTD SVG 1.1//EN" "http://www.w3.org/Graphics/SVG/1.1/DTD/svg11.dtd"><svg t="1653648279652" class="icon" viewBox="0 0 1024 1024" version="1.1" xmlns="http://www.w3.org/2000/svg" p-id="7426" xmlns:xlink="http://www.w3.org/1999/xlink" width="200" height="200"><defs><style type="text/css">@font-face { font-family: feedback-iconfont; src: url("//at.alicdn.com/t/font_1031158_u69w8yhxdu.woff2?t=1630033759944") format("woff2"), url("//at.alicdn.com/t/font_1031158_u69w8yhxdu.woff?t=1630033759944") format("woff"), url("//at.alicdn.com/t/font_1031158_u69w8yhxdu.ttf?t=1630033759944") format("truetype"); }
</style></defs><path d="M512 0a512 512 0 1 0 0.056889 1024.056889A512 512 0 0 0 512 0z m0 937.130667A425.187556 425.187556 0 0 1 86.869333 512 425.187556 425.187556 0 0 1 512 86.869333 425.187556 425.187556 0 0 1 937.130667 512 425.187556 425.187556 0 0 1 512 937.130667z" fill="#FFFFFF" p-id="7427"></path><path d="M457.159111 713.159111a54.840889 54.840889 0 1 0 109.681778 0 54.840889 54.840889 0 0 0-109.681778 0zM484.579556 585.159111h54.840888c5.063111 0 9.102222-4.152889 9.102223-9.159111V265.159111a9.159111 9.159111 0 0 0-9.102223-9.159111h-54.840888a9.159111 9.159111 0 0 0-9.102223 9.102222v310.897778c0 5.006222 4.039111 9.102222 9.102223 9.102222z" fill="#FFFFFF" p-id="7428"></path></svg>