<?xml version="1.0" standalone="no"?><!DOCTYPE svg PUBLIC "-//W3C//DTD SVG 1.1//EN" "http://www.w3.org/Graphics/SVG/1.1/DTD/svg11.dtd"><svg t="1653286976689" class="icon" viewBox="0 0 1058 1024" version="1.1" xmlns="http://www.w3.org/2000/svg" p-id="16166" xmlns:xlink="http://www.w3.org/1999/xlink" width="206.640625" height="200"><defs><style type="text/css">@font-face { font-family: feedback-iconfont; src: url("//at.alicdn.com/t/font_1031158_u69w8yhxdu.woff2?t=1630033759944") format("woff2"), url("//at.alicdn.com/t/font_1031158_u69w8yhxdu.woff?t=1630033759944") format("woff"), url("//at.alicdn.com/t/font_1031158_u69w8yhxdu.ttf?t=1630033759944") format("truetype"); }
</style></defs><path d="M529.066667 960C282.043733 960 81.066667 759.022933 81.066667 512S282.043733 64 529.066667 64 977.066667 264.977067 977.066667 512 776.0896 960 529.066667 960z m0-831.726933C317.474133 128.273067 145.339733 300.407467 145.339733 512c0 211.5584 172.1344 383.726933 383.726934 383.726933 211.5584 0 383.726933-172.168533 383.726933-383.726933 0-211.592533-172.168533-383.726933-383.726933-383.726933z m45.056 385.092266l138.376533-136.874666a31.982933 31.982933 0 1 0-44.987733-45.499734l-138.581334 137.045334-136.430933-136.874667a31.9488 31.9488 0 1 0-45.329067 45.192533l136.260267 136.669867-137.386667 135.918933a31.982933 31.982933 0 1 0 44.987734 45.499734l137.557333-136.0896 138.717867 139.1616a31.9488 31.9488 0 0 0 45.2608 0.068266 31.982933 31.982933 0 0 0 0.034133-45.2608l-138.478933-138.922666z" fill="#FFFFFF" p-id="16167"></path></svg>