<?xml version="1.0" standalone="no"?><!DOCTYPE svg PUBLIC "-//W3C//DTD SVG 1.1//EN" "http://www.w3.org/Graphics/SVG/1.1/DTD/svg11.dtd"><svg t="1653286194622" class="icon" viewBox="0 0 1024 1024" version="1.1" xmlns="http://www.w3.org/2000/svg" p-id="2751" xmlns:xlink="http://www.w3.org/1999/xlink" width="200" height="200"><defs><style type="text/css">@font-face { font-family: feedback-iconfont; src: url("//at.alicdn.com/t/font_1031158_u69w8yhxdu.woff2?t=1630033759944") format("woff2"), url("//at.alicdn.com/t/font_1031158_u69w8yhxdu.woff?t=1630033759944") format("woff"), url("//at.alicdn.com/t/font_1031158_u69w8yhxdu.ttf?t=1630033759944") format("truetype"); }
</style></defs><path d="M512 0C228.992 0 0 228.992 0 512s228.992 512 512 512 512-228.992 512-512S795.008 0 512 0z m260.693333 425.386667l-279.296 279.296a30.293333 30.293333 0 0 1-21.418666 9.344 30.976 30.976 0 0 1-27.946667-8.405334l-175.914667-176.853333a30.890667 30.890667 0 0 1 0-43.776l14.890667-14.890667a30.890667 30.890667 0 0 1 43.733333 0l141.525334 141.525334 244.821333-244.864a30.890667 30.890667 0 0 1 43.733333 0l15.829334 14.933333a30.890667 30.890667 0 0 1 0 43.733333z" fill="#9CE480" p-id="2752"></path></svg>