<?xml version="1.0" standalone="no"?><!DOCTYPE svg PUBLIC "-//W3C//DTD SVG 1.1//EN" "http://www.w3.org/Graphics/SVG/1.1/DTD/svg11.dtd"><svg t="1653648264195" class="icon" viewBox="0 0 1024 1024" version="1.1" xmlns="http://www.w3.org/2000/svg" p-id="6976" xmlns:xlink="http://www.w3.org/1999/xlink" width="200" height="200"><defs><style type="text/css">@font-face { font-family: feedback-iconfont; src: url("//at.alicdn.com/t/font_1031158_u69w8yhxdu.woff2?t=1630033759944") format("woff2"), url("//at.alicdn.com/t/font_1031158_u69w8yhxdu.woff?t=1630033759944") format("woff"), url("//at.alicdn.com/t/font_1031158_u69w8yhxdu.ttf?t=1630033759944") format("truetype"); }
</style></defs><path d="M322.56 885.504a81.792 81.792 0 1 0 163.584 0 81.792 81.792 0 0 0-163.584 0z m337.28 0a81.792 81.792 0 1 0 163.584 0 81.792 81.792 0 0 0-163.584 0z m160.064-157.248H347.136c-49.92 0-93.312-33.728-105.408-81.984L129.088 156.16a34.176 34.176 0 0 0-33.088-24.96H37.312A37.376 37.376 0 0 1 0 93.952c0-20.48 16.768-37.248 37.312-37.248h58.88c49.92 0 93.312 33.728 105.472 82.176l112.32 489.856c3.712 14.336 17.344 24.96 33.152 24.96h472.768c14.72 0 27.968-9.28 32.64-23.488L947.2 301.504a35.008 35.008 0 0 0-4.096-32.64 34.048 34.048 0 0 0-27.968-14.272H372.352a37.376 37.376 0 0 1-37.312-37.312c0-20.48 16.768-37.248 37.312-37.248h542.592c35.392 0 67.648 16.64 88.512 45.248a107.52 107.52 0 0 1 14.72 98.24l-94.72 328.704a108.992 108.992 0 0 1-103.552 76.032z" fill="#FFFFFF" p-id="6977"></path></svg>