<?xml version="1.0" standalone="no"?><!DOCTYPE svg PUBLIC "-//W3C//DTD SVG 1.1//EN" "http://www.w3.org/Graphics/SVG/1.1/DTD/svg11.dtd"><svg t="1653299705639" class="icon" viewBox="0 0 1024 1024" version="1.1" xmlns="http://www.w3.org/2000/svg" p-id="3069" xmlns:xlink="http://www.w3.org/1999/xlink" width="200" height="200"><defs><style type="text/css">@font-face { font-family: feedback-iconfont; src: url("//at.alicdn.com/t/font_1031158_u69w8yhxdu.woff2?t=1630033759944") format("woff2"), url("//at.alicdn.com/t/font_1031158_u69w8yhxdu.woff?t=1630033759944") format("woff"), url("//at.alicdn.com/t/font_1031158_u69w8yhxdu.ttf?t=1630033759944") format("truetype"); }
</style></defs><path d="M919.792941 243.952941l-6.324706 627.169883c0 67.704471-52.826353 122.759529-117.76 122.759529H221.967059c-64.933647 0-117.76-55.055059-117.76-122.819765V152.877176C104.207059 85.172706 157.033412 30.117647 221.967059 30.117647h499.892706l0.843294 0.903529 197.089882 211.606589v1.325176z m-235.821176-143.36v142.697412c0 7.047529 2.590118 13.613176 7.348706 18.492235a24.455529 24.455529 0 0 0 17.769411 7.710118h136.854589L683.971765 100.592941z m166.128941 234.977883h-169.140706c-33.249882 0-60.355765-28.250353-60.355765-62.945883v-176.489412H221.967059c-29.997176 0-54.452706 25.479529-54.452706 56.741647v718.185412c0 31.322353 24.455529 56.741647 54.452706 56.741647h573.741176c29.997176 0 54.392471-25.419294 54.392471-56.741647v-535.491764z m-130.710588 398.516705h-447.548236a33.370353 33.370353 0 0 1-26.443294-32.948705 33.370353 33.370353 0 0 1 25.901177-33.008942h447.548235a33.430588 33.430588 0 0 1 26.503529 33.008942 33.370353 33.370353 0 0 1-25.901176 32.948705z m0-154.985411h-447.548236a33.430588 33.430588 0 0 1-26.443294-33.008942c0-15.962353 10.842353-29.756235 25.901177-32.948705h447.548235c15.600941 3.192471 26.503529 16.986353 26.503529 32.948705a33.370353 33.370353 0 0 1-25.901176 33.008942zM531.034353 424.056471H271.841882a30.298353 30.298353 0 0 1-26.503529-31.924706 30.298353 30.298353 0 0 1 26.202353-32.888471H530.672941c16.444235 2.048 28.190118 16.865882 26.50353 33.249882a30.117647 30.117647 0 0 1-26.142118 31.563295z" fill="#A6A4FF" p-id="3070"></path></svg>