<?xml version="1.0" encoding="UTF-8"?>
<svg width="21px" height="20px" viewBox="0 0 21 20" version="1.1" xmlns="http://www.w3.org/2000/svg" xmlns:xlink="http://www.w3.org/1999/xlink">
    <title>播放备份 2</title>
    <g id="页面-1" stroke="none" stroke-width="1" fill="none" fill-rule="evenodd">
        <g id="我的藏品-详情-放大图片备份" transform="translate(-252.000000, -395.000000)" fill="#000000" fill-rule="nonzero">
            <g id="播放备份-2" transform="translate(252.500000, 395.000000)">
                <rect id="矩形" opacity="0" x="0" y="0" width="20" height="20"></rect>
                <g id="暂停" transform="translate(7.000000, 5.500000)">
                    <path d="M0.631537395,0 C0.282748923,0 0,0.194964908 0,0.43546631 L0,8.56453369 C0,8.80503509 0.282748926,9 0.631537402,9 C0.980325878,9 1.2630748,8.80503509 1.2630748,8.56453369 L1.2630748,0.43546631 C1.2630748,0.319973462 1.19653802,0.209210901 1.07810178,0.127545126 C0.95966554,0.0458793511 0.799031529,0 0.631537395,0 L0.631537395,0 Z M5.3684626,0 C5.20096847,0 5.04033446,0.0458793511 4.92189822,0.127545126 C4.80346198,0.209210901 4.7369252,0.319973462 4.7369252,0.43546631 L4.7369252,8.56453369 C4.7369252,8.80503509 5.01967412,9 5.3684626,9 C5.71725107,9 6,8.80503509 6,8.56453369 L6,0.43546631 C6,0.194964908 5.71725108,0 5.3684626,0 L5.3684626,0 Z" id="形状"></path>
                </g>
                <path d="M14.8908411,17.2336996 C13.4461524,18.2153846 11.7582403,18.7311355 10.002929,18.7311355 C5.18827695,18.7311355 1.27325864,14.8161172 1.27325864,10.0043956 C1.27325864,8.27545788 1.77728794,6.6021978 2.7325993,5.17216117 C2.92893629,4.88205128 2.84688501,4.48644689 2.55677512,4.29010989 C2.26666523,4.09377289 1.87106084,4.17582418 1.67472384,4.46593407 C0.578753144,6.10695971 0.00146376651,8.02344322 0.00146376651,10.0043956 C0.00146376651,15.5164835 4.48791065,20 10.002929,20 C12.010255,20 13.9501817,19.4080586 15.6058594,18.2857143 C15.8959693,18.0893773 15.9721597,17.6937729 15.7758227,17.4007326 C15.5765553,17.1135531 15.1809509,17.0373626 14.8908411,17.2336996 Z M9.99999857,0 C7.86373483,0 5.82710479,0.662271062 4.10695827,1.91941392 C3.82270919,2.12747253 3.76117073,2.52600733 3.96922933,2.80732601 C4.17728794,3.09157509 4.57582274,3.15311355 4.85714142,2.94505495 C6.35750772,1.85201465 8.1362623,1.27179487 9.99999857,1.27179487 C14.8117202,1.27179487 18.7267385,5.18974359 18.7267385,10.0014652 C18.7267385,11.8652015 18.1494491,13.643956 17.0534784,15.1413919 C16.8454198,15.425641 16.9098887,15.8241758 17.1912074,16.029304 C17.3025627,16.1142857 17.4344308,16.152381 17.5662989,16.152381 C17.7626359,16.152381 17.9560425,16.0615385 18.0791194,15.8886447 C19.3362623,14.1684982 19.9985348,12.1318681 19.9985348,9.9985348 C20.0014638,4.48644689 15.5179473,0 9.99999857,0 Z" id="形状"></path>
            </g>
        </g>
    </g>
</svg>