<?xml version="1.0" standalone="no"?><!DOCTYPE svg PUBLIC "-//W3C//DTD SVG 1.1//EN" "http://www.w3.org/Graphics/SVG/1.1/DTD/svg11.dtd"><svg t="1652940734601" class="icon" viewBox="0 0 1024 1024" version="1.1" xmlns="http://www.w3.org/2000/svg" p-id="3117" xmlns:xlink="http://www.w3.org/1999/xlink" width="200" height="200"><defs><style type="text/css">@font-face { font-family: feedback-iconfont; src: url("//at.alicdn.com/t/font_1031158_u69w8yhxdu.woff2?t=1630033759944") format("woff2"), url("//at.alicdn.com/t/font_1031158_u69w8yhxdu.woff?t=1630033759944") format("woff"), url("//at.alicdn.com/t/font_1031158_u69w8yhxdu.ttf?t=1630033759944") format("truetype"); }
</style></defs><path d="M980.630588 508.024471L558.320941 111.917176a39.875765 39.875765 0 0 0-58.428235 0l-458.992941 398.757648a39.936 39.936 0 0 0 29.153882 67.041882H169.261176v301.537882c0 37.827765 29.575529 45.598118 67.403295 45.598118H335.149176h-8.734117c25.178353 0 45.537882-20.48 45.537882-45.598118V695.115294c0-25.118118 20.48-45.598118 45.778824-45.598118h186.970353c25.298824 0 45.658353 20.48 45.658353 45.598118v184.19953c0 25.118118 20.48 45.598118 45.658353 45.598117h90.593882c37.827765 0 69.571765-7.830588 69.571765-45.598117V577.716706h97.822117a39.875765 39.875765 0 0 0 26.684236-69.692235z" fill="#6667AB" p-id="3118"></path></svg>