<?xml version="1.0" standalone="no"?><!DOCTYPE svg PUBLIC "-//W3C//DTD SVG 1.1//EN" "http://www.w3.org/Graphics/SVG/1.1/DTD/svg11.dtd"><svg t="1642048237404" class="icon" viewBox="0 0 1024 1024" version="1.1" xmlns="http://www.w3.org/2000/svg" p-id="1097" xmlns:xlink="http://www.w3.org/1999/xlink" width="200" height="200"><defs><style type="text/css"></style></defs><path d="M512 64C264.96 64 64 264.96 64 512s200.96 448 448 448 448-200.96 448-448-200.96-448-448-448z m182.784 585.984a32 32 0 1 1-45.312 45.184l-137.6-138.048L373.76 693.76a32 32 0 1 1-44.992-45.504l137.856-136.384-137.408-137.856a32 32 0 1 1 45.312-45.184l137.6 137.984L650.24 330.24a32 32 0 1 1 44.992 45.504L557.376 512.128l137.408 137.856z" fill="#B2B2B2" p-id="1098"></path></svg>