<?xml version="1.0" standalone="no"?><!DOCTYPE svg PUBLIC "-//W3C//DTD SVG 1.1//EN" "http://www.w3.org/Graphics/SVG/1.1/DTD/svg11.dtd"><svg t="1652757279126" class="icon" viewBox="0 0 1024 1024" version="1.1" xmlns="http://www.w3.org/2000/svg" p-id="2894" xmlns:xlink="http://www.w3.org/1999/xlink" width="200" height="200"><defs><style type="text/css">@font-face { font-family: feedback-iconfont; src: url("//at.alicdn.com/t/font_1031158_u69w8yhxdu.woff2?t=1630033759944") format("woff2"), url("//at.alicdn.com/t/font_1031158_u69w8yhxdu.woff?t=1630033759944") format("woff"), url("//at.alicdn.com/t/font_1031158_u69w8yhxdu.ttf?t=1630033759944") format("truetype"); }
</style></defs><path d="M385.156202 385.685144H256.264471v-150.395018c0-32.702917 6.463786-63.229906 19.455356-91.516968 12.927572-28.287063 30.846978-53.182238 53.694221-74.685527 22.847243-21.503288 49.790351-38.398728 80.829323-50.622323A274.294914 274.294914 0 0 1 512 0.033919c32.702917 0 64.253872 6.143796 94.652865 18.431389a267.511139 267.511139 0 0 1 80.765324 50.558326c23.55122 21.567286 42.238601 46.462461 56.318135 74.749524 13.951538 28.287063 20.927307 58.814052 20.927307 91.516968v150.395018h-123.771901V263.961176c0-42.942578-11.903606-76.157477-35.838812-99.772695-23.807211-23.487222-56.254137-35.262832-97.148782-35.262832-36.798781 0-66.493797 11.77561-88.957054 35.262832-22.527254 23.55122-33.790881 56.830118-33.79088 99.772695v121.723968z m440.945393 61.373967c18.367392 0 34.238866 6.65578 47.486427 19.967339 13.311559 13.247561 19.967339 29.119035 19.967339 47.550425v317.109495a136.507478 136.507478 0 0 1-36.286798 93.628899 122.683936 122.683936 0 0 1-39.934677 28.159067c-15.359491 6.783775-32.190934 10.175663-50.622323 10.175663H250.120675a119.740034 119.740034 0 0 1-88.509068-37.310764 120.060023 120.060023 0 0 1-24.511188-39.422694 132.21962 132.21962 0 0 1-8.703712-48.062408V514.576875c0-18.431389 6.463786-34.302864 19.455355-47.550425a63.293903 63.293903 0 0 1 47.038442-19.967339h631.211091z" fill="#FFFFFF" p-id="2895"></path></svg>